<svg id="Badges" xmlns="http://www.w3.org/2000/svg" xmlns:xlink="http://www.w3.org/1999/xlink" viewBox="0 0 128 40"><defs><style>.cls-1{fill:url(#linear-gradient);}.cls-2{fill:url(#linear-gradient-2);}.cls-3{fill:url(#linear-gradient-3);}.cls-4{fill:url(#linear-gradient-4);}.cls-5{fill:#fff;}</style><linearGradient id="linear-gradient" x1="16.26" y1="79.42" x2="21.86" y2="56.43" gradientTransform="matrix(1, 0, 0, -1, 0, 130)" gradientUnits="userSpaceOnUse"><stop offset="0" stop-color="#006884"/><stop offset="1" stop-color="#8ad1d0"/></linearGradient><linearGradient id="linear-gradient-2" x1="9.43" y1="76.13" x2="24.68" y2="67.88" gradientTransform="matrix(1, 0, 0, -1, 0, 130)" gradientUnits="userSpaceOnUse"><stop offset="0" stop-color="#24bbb6"/><stop offset="1" stop-color="#dbe692"/></linearGradient><linearGradient id="linear-gradient-3" x1="27" y1="62.38" x2="27" y2="70.33" gradientTransform="matrix(1, 0, 0, -1, 0, 130)" gradientUnits="userSpaceOnUse"><stop offset="0" stop-color="#fcc072"/><stop offset="1" stop-color="#f58a5b"/></linearGradient><linearGradient id="linear-gradient-4" x1="12.37" y1="52.76" x2="24.42" y2="65.03" gradientTransform="matrix(1, 0, 0, -1, 0, 130)" gradientUnits="userSpaceOnUse"><stop offset="0" stop-color="#712b8f"/><stop offset="1" stop-color="#ea1d27"/></linearGradient></defs><title>Android</title><path d="M124,84H4a4,4,0,0,1-4-4V48a4,4,0,0,1,4-4H124a4,4,0,0,1,4,4V80A4,4,0,0,1,124,84Z" transform="translate(0 -44)"/><path class="cls-1" d="M9.8,63.6V53.1a1.1,1.1,0,0,1,1-1.1,1.5,1.5,0,0,1,1,.3L31.1,62.9a.8.8,0,0,1,0,1.6L11.8,75.1a2,2,0,0,1-1,.3,1.1,1.1,0,0,1-1-1.1Z" transform="translate(0 -44)"/><path class="cls-2" d="M22.3,63.7,10.6,52h.2a1.5,1.5,0,0,1,1,.3L26,60.1Z" transform="translate(0 -44)"/><path class="cls-3" d="M25.9,67.2l-3.6-3.6L26,59.9l5.1,2.8a.8.8,0,0,1,0,1.6Z" transform="translate(0 -44)"/><path class="cls-4" d="M10.7,75.2h0L22.3,63.6l3.6,3.6L11.8,74.9a1.6,1.6,0,0,1-1.1.3Z" transform="translate(0 -44)"/><path class="cls-5" d="M71.1,77.9A4.8,4.8,0,0,1,70,76.4l1.6-.7.5.8a2.5,2.5,0,0,0,1.6.8,2.3,2.3,0,0,0,1.7-.8,3.1,3.1,0,0,0,.5-1.7v-.6c-1.2,1.5-3.7,1.3-5.1-.3a4.4,4.4,0,0,1,0-5.9c1.5-1.5,3.7-1.7,5-.3h0V67h1.7v7.5a4.3,4.3,0,0,1-1.6,3.7,3.7,3.7,0,0,1-2.3.7,4.6,4.6,0,0,1-2.5-1Zm41.9.4h0l1.7-4-3-6.9h1.7l2.1,4.9,2.1-4.9h1.7l-4.6,10.9H113Zm-8.1-3.8h0a2.6,2.6,0,0,1-.7-1.9,2.3,2.3,0,0,1,.6-1.6,3.9,3.9,0,0,1,2.8-1,3.4,3.4,0,0,1,1.8.4,1.7,1.7,0,0,0-1.8-1.7,1.8,1.8,0,0,0-1.7,1.1l-1.5-.6a3.2,3.2,0,0,1,3.1-2,3.4,3.4,0,0,1,2.6,1,3.7,3.7,0,0,1,.8,2.6V75h-1.7v-.7a3.1,3.1,0,0,1-.9.7,3.2,3.2,0,0,1-1.4.3,3.9,3.9,0,0,1-2-.8ZM51.6,70.9h0a4.2,4.2,0,0,1,4.2-4.2A4.2,4.2,0,0,1,60,70.9a4.2,4.2,0,1,1-8.4,0Zm9,0h0a4.2,4.2,0,0,1,4.2-4.2A4.2,4.2,0,0,1,69,70.9a4.2,4.2,0,0,1-4.2,4.2,4.2,4.2,0,0,1-4.2-4.2ZM40.3,73.1h0a6.6,6.6,0,0,1,.1-9.2A6.3,6.3,0,0,1,45,62a6.2,6.2,0,0,1,4.4,1.8l-1.2,1.3a4.5,4.5,0,0,0-6.4.1,4.8,4.8,0,0,0,0,6.7,4.5,4.5,0,0,0,6.6.1,3.6,3.6,0,0,0,.9-2.2H45.1V68H51a6.1,6.1,0,0,1,.1,1.4,5.8,5.8,0,0,1-1.6,4,6.1,6.1,0,0,1-4.3,1.7,7.4,7.4,0,0,1-4.9-2Zm42.3.7h0a4.6,4.6,0,0,1,0-6,3.6,3.6,0,0,1,5.4,0,5.9,5.9,0,0,1,1.1,1.9L83.6,72a2.1,2.1,0,0,0,2,1.3,2.3,2.3,0,0,0,2.1-1.2l1.5,1h0l-.5.6a4.4,4.4,0,0,1-6.1.1ZM93,75h0V63.9h3.6a3.6,3.6,0,0,1,3.8,3.3A3.4,3.4,0,0,1,97,70.5H94.8v4.4H93Zm8.4,0h0V63.9h1.7V75Zm-22.6-.2h0V62.4h1.8V74.8H78.8Zm30.5-3.1h0a2.7,2.7,0,0,0-1.6-.4c-1.2,0-1.9.6-1.9,1.3a1.3,1.3,0,0,0,1.4,1.1,2.1,2.1,0,0,0,2.1-2Zm-51.2-.8h0a2.3,2.3,0,1,0-2.3,2.5,2.4,2.4,0,0,0,2.3-2.5Zm9,0h0a2.3,2.3,0,1,0-2.3,2.5,2.4,2.4,0,0,0,2.3-2.5Zm8.9.7h0a.4.4,0,0,1,.1-.3h0v-.8h0c0-.1-.1-.3-.1-.4a2.3,2.3,0,0,0-2.1-1.7,2.4,2.4,0,0,0-2.2,2.5A2.4,2.4,0,0,0,74,73.3c.8.1,1.6-.6,2-1.7Zm7.3-.9h0L87,69.1a1.7,1.7,0,0,0-1.5-.9,2.4,2.4,0,0,0-2.2,2.5Zm15.3-3.4h0a1.7,1.7,0,0,0-1.9-1.7h-2v3.5h2.1A1.8,1.8,0,0,0,98.6,67.3Z" transform="translate(0 -44)"/><polygon class="cls-5" points="114.3 32.3 114.3 32.3 114.2 32.3 114.2 32.3 114.2 32.2 114.2 32.2 114.3 32.2 114.3 32.2 114.2 32.2 114.2 32.2 114.2 32.3 114.2 32.3 114.3 32.3"/><path class="cls-5" d="M114.3,76.3Zm0-.1Z" transform="translate(0 -44)"/><polygon class="cls-5" points="114.3 32.3 114.3 32.3 114.3 32.2 114.3 32.2 114.3 32.2 114.3 32.2 114.3 32.2 114.3 32.2 114.3 32.2 114.3 32.2 114.3 32.3 114.3 32.3"/><path class="cls-5" d="M114.3,76.3Zm0-.1Z" transform="translate(0 -44)"/><polygon class="cls-5" points="114.3 32.2 114.3 32.2 114.3 32.2 114.3 32.2 114.3 32.3 114.3 32.3 114.3 32.2 114.3 32.2"/><polygon class="cls-5" points="114.3 32.3 114.3 32.3 114.3 32.2 114.3 32.2 114.3 32.2 114.3 32.2 114.3 32.2 114.3 32.2 114.3 32.2 114.3 32.2 114.3 32.3 114.3 32.3"/><path class="cls-5" d="M114.3,76.3Zm0,0Z" transform="translate(0 -44)"/><path class="cls-5" d="M114.4,76.3Zm0-.1Zm0,.1Z" transform="translate(0 -44)"/><polygon class="cls-5" points="114.4 32.2 114.4 32.2 114.4 32.2 114.4 32.2 114.4 32.2 114.4 32.2 114.4 32.2 114.4 32.2 114.4 32.3 114.4 32.3 114.4 32.2"/><polygon class="cls-5" points="114.4 32.3 114.4 32.3 114.4 32.2 114.4 32.2 114.4 32.3 114.4 32.3"/><path class="cls-5" d="M114.4,76.3Zm0-.1Z" transform="translate(0 -44)"/><path class="cls-5" d="M114.4,76.3Z" transform="translate(0 -44)"/><path class="cls-5" d="M114.5,76.3Zm0-.1Z" transform="translate(0 -44)"/><polygon class="cls-5" points="114.5 32.3 114.5 32.2 114.5 32.2 114.5 32.2 114.5 32.2 114.5 32.2 114.5 32.3 114.5 32.3 114.5 32.2 114.5 32.2 114.5 32.3 114.5 32.3 114.5 32.2 114.5 32.2 114.5 32.3"/><path class="cls-5" d="M114.5,76.3Zm0-.1Z" transform="translate(0 -44)"/><path class="cls-5" d="M114.5,76.3Z" transform="translate(0 -44)"/><polygon class="cls-5" points="114.6 32.2 114.5 32.2 114.5 32.2 114.6 32.2 114.6 32.3 114.6 32.3 114.6 32.2 114.6 32.2"/><polygon class="cls-5" points="114.6 32.3 114.6 32.3 114.6 32.2 114.6 32.2 114.6 32.2 114.6 32.2 114.6 32.2 114.6 32.2 114.6 32.2 114.6 32.2 114.6 32.3 114.6 32.3"/><path class="cls-5" d="M114.6,76.3Zm0-.1Z" transform="translate(0 -44)"/><path class="cls-5" d="M38.9,54.1a2.8,2.8,0,0,1,2.9-2.9,2.7,2.7,0,0,1,2.3,1.2l-.8.5a1.8,1.8,0,0,0-1.5-.7,2,2,0,0,0,0,4,2,2,0,0,0,1.3-.5v-.9H41.5v-.9h2.7V56a2.9,2.9,0,0,1-2.3,1A2.9,2.9,0,0,1,38.9,54.1Z" transform="translate(0 -44)"/><path class="cls-5" d="M45.4,56.9V51.3h3.8v.9H46.3v1.4h2.8v.9H46.3v1.6h2.9V57Z" transform="translate(0 -44)"/><path class="cls-5" d="M52,56.9V52.2H50.3v-.9h4.4v.9H53v4.7Z" transform="translate(0 -44)"/><path class="cls-5" d="M58.1,56.9V51.3h1v5.6Z" transform="translate(0 -44)"/><path class="cls-5" d="M61.8,56.9V52.2H60.1v-.9h4.4v.9H62.8v4.7Z" transform="translate(0 -44)"/><path class="cls-5" d="M67.7,54.1A2.9,2.9,0,1,1,70.6,57,2.8,2.8,0,0,1,67.7,54.1Zm4.7,0a1.8,1.8,0,0,0-1.9-2,1.9,1.9,0,0,0-1.9,2,1.8,1.8,0,0,0,1.9,2A1.9,1.9,0,0,0,72.4,54.1Z" transform="translate(0 -44)"/><path class="cls-5" d="M78.5,56.9l-2.9-4v4h-1V51.3h1l2.9,3.9V51.3h1v5.6Z" transform="translate(0 -44)"/></svg>