<svg id="Badges" xmlns="http://www.w3.org/2000/svg" viewBox="0 0 128 40"><defs><style>.cls-1{fill:#fff;}</style></defs><title>Apple</title><path d="M124,84H4a4,4,0,0,1-4-4V48a4,4,0,0,1,4-4H124a4,4,0,0,1,4,4V80A4,4,0,0,1,124,84Z" transform="translate(0 -44)"/><path class="cls-1" d="M27,63.8a5.8,5.8,0,0,1,2.7-4.7,6.2,6.2,0,0,0-4.5-2.5c-1.9-.2-3.8,1.1-4.7,1.1s-2.5-1.1-4.1-1.1a5.9,5.9,0,0,0-5.1,3.1c-2.2,3.8-.6,9.4,1.5,12.5,1.1,1.5,2.3,3.2,3.9,3.1s2.2-1,4.1-1,2.4,1,4.1,1,2.8-1.5,3.8-3a11.5,11.5,0,0,0,1.7-3.5A5.5,5.5,0,0,1,27,63.8Z" transform="translate(0 -44)"/><path class="cls-1" d="M23.9,54.6a6.2,6.2,0,0,0,1.3-4,5.4,5.4,0,0,0-3.6,1.9,5.1,5.1,0,0,0-1.3,3.8A4.8,4.8,0,0,0,23.9,54.6Z" transform="translate(0 -44)"/><path class="cls-1" d="M49.8,75.1H47.6l-1.2-3.8H42.2l-1.1,3.8H39l4.2-12.9h2.6ZM46,69.7l-1.1-3.4c-.1-.3-.3-1.2-.7-2.4h0c-.1.5-.3,1.4-.6,2.4l-1.1,3.4Z" transform="translate(0 -44)"/><path class="cls-1" d="M60.5,70.4a5.3,5.3,0,0,1-1.3,3.8,3.8,3.8,0,0,1-2.9,1.2,2.7,2.7,0,0,1-2.6-1.3h0V79H51.6V69c0-1,0-2-.1-3.1h1.8v1.5h0a3.4,3.4,0,0,1,3.1-1.7A3.2,3.2,0,0,1,59.2,67,4.2,4.2,0,0,1,60.5,70.4Zm-2.1,0a3.6,3.6,0,0,0-.6-2.2,2,2,0,0,0-1.8-.9,2.4,2.4,0,0,0-1.4.5,2.2,2.2,0,0,0-.8,1.3,1.8,1.8,0,0,0-.1.6v1.6a2.5,2.5,0,0,0,.6,1.7,2,2,0,0,0,1.6.7,2,2,0,0,0,1.8-.9A3.6,3.6,0,0,0,58.4,70.4Z" transform="translate(0 -44)"/><path class="cls-1" d="M71.2,70.4a5.3,5.3,0,0,1-1.3,3.8A3.8,3.8,0,0,1,67,75.4a2.7,2.7,0,0,1-2.6-1.3h0V79H62.3V69c0-1,0-2-.1-3.1H64v1.5h0a3.4,3.4,0,0,1,3.1-1.7A3.2,3.2,0,0,1,69.9,67,4.2,4.2,0,0,1,71.2,70.4Zm-2.1,0a3.6,3.6,0,0,0-.6-2.2,2,2,0,0,0-1.8-.9,2.4,2.4,0,0,0-1.4.5,2.2,2.2,0,0,0-.8,1.3,1.8,1.8,0,0,0-.1.6v1.6A2.5,2.5,0,0,0,65,73a2,2,0,0,0,1.6.7,2,2,0,0,0,1.8-.9A3.6,3.6,0,0,0,69.1,70.4Z" transform="translate(0 -44)"/><path class="cls-1" d="M83.2,71.5a3.7,3.7,0,0,1-1.1,2.7,4.8,4.8,0,0,1-3.5,1.1,6.2,6.2,0,0,1-3.3-.8l.5-1.7a6.1,6.1,0,0,0,3,.8,3,3,0,0,0,1.8-.5,1.8,1.8,0,0,0,.6-1.4,1.9,1.9,0,0,0-.5-1.3,5,5,0,0,0-1.8-1c-2.3-.8-3.4-2.1-3.4-3.7a3.2,3.2,0,0,1,1.2-2.6,4.6,4.6,0,0,1,3.2-1,6.2,6.2,0,0,1,2.9.6l-.5,1.7a4.9,4.9,0,0,0-2.5-.6,2.9,2.9,0,0,0-1.7.5,1.7,1.7,0,0,0-.5,1.2,1.8,1.8,0,0,0,.6,1.3,7.8,7.8,0,0,0,1.9,1,6.7,6.7,0,0,1,2.5,1.6A4,4,0,0,1,83.2,71.5Z" transform="translate(0 -44)"/><path class="cls-1" d="M90,67.4H87.7v4.5c0,1.1.4,1.7,1.2,1.7h.9v1.6a3.7,3.7,0,0,1-1.6.2,2.4,2.4,0,0,1-1.9-.7,3.4,3.4,0,0,1-.7-2.5V67.4H84.3V65.8h1.4V64.1l2-.6v2.3H90Z" transform="translate(0 -44)"/><path class="cls-1" d="M100.3,70.4a5.1,5.1,0,0,1-1.2,3.5,4.6,4.6,0,0,1-3.4,1.4,4.2,4.2,0,0,1-3.3-1.4,4.9,4.9,0,0,1-1.2-3.4A4.8,4.8,0,0,1,92.5,67a4.4,4.4,0,0,1,3.4-1.4A4.2,4.2,0,0,1,99.2,67,5.3,5.3,0,0,1,100.3,70.4Zm-2.2.1a3.8,3.8,0,0,0-.6-2.2,2.2,2.2,0,0,0-3.8,0,4,4,0,0,0-.6,2.2,3.8,3.8,0,0,0,.6,2.2,2.1,2.1,0,0,0,1.9,1.1,2.3,2.3,0,0,0,1.9-1.1A4,4,0,0,0,98.1,70.5Z" transform="translate(0 -44)"/><path class="cls-1" d="M107,67.6h-.7a2.1,2.1,0,0,0-1.7.8,3.5,3.5,0,0,0-.5,1.8V75H102V68.6a26.2,26.2,0,0,0-.1-2.9h1.8v1.8h.1a4,4,0,0,1,1-1.5,3,3,0,0,1,1.5-.5h.5v2.1Z" transform="translate(0 -44)"/><path class="cls-1" d="M116.2,70a2.2,2.2,0,0,1-.1.9h-6.2a2.6,2.6,0,0,0,.9,2.1,3.2,3.2,0,0,0,2,.7,6.6,6.6,0,0,0,2.5-.4l.3,1.4a7.5,7.5,0,0,1-3.1.6,4.4,4.4,0,0,1-3.4-1.3,4.7,4.7,0,0,1-1.2-3.4,5.6,5.6,0,0,1,1.1-3.5,4,4,0,0,1,3.3-1.5,3.3,3.3,0,0,1,3,1.5A4.2,4.2,0,0,1,116.2,70Zm-1.9-.5a2.9,2.9,0,0,0-.4-1.6,1.8,1.8,0,0,0-1.6-.9,1.9,1.9,0,0,0-1.6.8,3.8,3.8,0,0,0-.6,1.6h4.2Z" transform="translate(0 -44)"/><path class="cls-1" d="M45.4,54.3a3.3,3.3,0,0,1-1,2.6,4.1,4.1,0,0,1-2.7.8H40.2V51.4H42a3.7,3.7,0,0,1,2.5.7A3.2,3.2,0,0,1,45.4,54.3Zm-1.1,0A2.1,2.1,0,0,0,42,52h-.8v4.7h.7a2.4,2.4,0,0,0,1.8-.6A2.7,2.7,0,0,0,44.3,54.3Z" transform="translate(0 -44)"/><path class="cls-1" d="M51,55.3a2.4,2.4,0,0,1-.6,1.7,2.1,2.1,0,0,1-1.7.7,1.9,1.9,0,0,1-1.6-.7,2.7,2.7,0,0,1,0-3.4,2.1,2.1,0,0,1,1.7-.7,1.9,1.9,0,0,1,1.6.7A2.4,2.4,0,0,1,51,55.3Zm-1,0a2,2,0,0,0-.3-1.1.9.9,0,0,0-.9-.5,1.1,1.1,0,0,0-.9.5,2.2,2.2,0,0,0,0,2.2.9.9,0,0,0,.9.5,1,1,0,0,0,.9-.6A1.5,1.5,0,0,0,50,55.3Z" transform="translate(0 -44)"/><path class="cls-1" d="M58.7,53l-1.4,4.6h-.9l-.6-2a8.3,8.3,0,0,1-.4-1.5h0a8.3,8.3,0,0,1-.4,1.5l-.6,2h-.9L52,53h1l.5,2.2.3,1.5h0c.1-.4.2-.9.4-1.5l.6-2.2h.8l.6,2.1a8.3,8.3,0,0,1,.4,1.5h0l.3-1.5.6-2.1Z" transform="translate(0 -44)"/><path class="cls-1" d="M63.9,57.6h-1V55q0-1.2-.9-1.2a.9.9,0,0,0-.7.3,1.1,1.1,0,0,0-.3.8v2.7H60V53h.9v.7h0l.5-.6a1.6,1.6,0,0,1,.9-.3,1.5,1.5,0,0,1,1.1.4,1.7,1.7,0,0,1,.5,1.5Z" transform="translate(0 -44)"/><path class="cls-1" d="M66.7,57.6h-1V50.9h1Z" transform="translate(0 -44)"/><path class="cls-1" d="M72.7,55.3a2.4,2.4,0,0,1-.6,1.7,2.1,2.1,0,0,1-1.7.7,1.9,1.9,0,0,1-1.6-.7,2.7,2.7,0,0,1,0-3.4,2.4,2.4,0,0,1,1.7-.7,1.9,1.9,0,0,1,1.6.7A2.4,2.4,0,0,1,72.7,55.3Zm-1,0a2,2,0,0,0-.3-1.1.9.9,0,0,0-.9-.5,1.1,1.1,0,0,0-.9.5,2.2,2.2,0,0,0,0,2.2.9.9,0,0,0,.9.5,1,1,0,0,0,.9-.6A1.5,1.5,0,0,0,71.7,55.3Z" transform="translate(0 -44)"/><path class="cls-1" d="M77.6,57.6h-.9v-.5h0a1.6,1.6,0,0,1-1.3.6,1.2,1.2,0,0,1-1-.4,1.8,1.8,0,0,1-.4-.9,1.4,1.4,0,0,1,.7-1.3,3.7,3.7,0,0,1,2-.4h0a.8.8,0,0,0-.9-.9,2.4,2.4,0,0,0-1.2.3l-.2-.7a2.5,2.5,0,0,1,1.6-.4c1.2,0,1.8.6,1.8,1.9v1.7A4.9,4.9,0,0,0,77.6,57.6Zm-1-1.6v-.7c-1.1,0-1.7.3-1.7.9a.8.8,0,0,0,.2.5l.5.2.6-.2a1,1,0,0,0,.4-.5Z" transform="translate(0 -44)"/><path class="cls-1" d="M83.4,57.6h-.9v-.7h0a1.5,1.5,0,0,1-1.5.8,1.8,1.8,0,0,1-1.4-.6,2.3,2.3,0,0,1-.5-1.7,2.8,2.8,0,0,1,.6-1.8,2,2,0,0,1,1.4-.6,1.5,1.5,0,0,1,1.3.6h0V51h1v6.6Zm-1-1.9V54.6A2.1,2.1,0,0,0,82,54a.8.8,0,0,0-.7-.2,1.1,1.1,0,0,0-.9.5,2.1,2.1,0,0,0-.3,1.2,1.8,1.8,0,0,0,.3,1.1,1.1,1.1,0,0,0,.9.5.9.9,0,0,0,.8-.4A2.2,2.2,0,0,0,82.4,55.7Z" transform="translate(0 -44)"/><path class="cls-1" d="M92.1,55.3a2.4,2.4,0,0,1-.6,1.7,2.1,2.1,0,0,1-1.7.7,1.9,1.9,0,0,1-1.6-.7,2.7,2.7,0,0,1,0-3.4,2.1,2.1,0,0,1,1.7-.7,1.9,1.9,0,0,1,1.6.7A2.4,2.4,0,0,1,92.1,55.3Zm-1.1,0a2,2,0,0,0-.3-1.1.9.9,0,0,0-.9-.5,1.1,1.1,0,0,0-.9.5,2.2,2.2,0,0,0,0,2.2.9.9,0,0,0,.9.5,1,1,0,0,0,.9-.6A1.5,1.5,0,0,0,91,55.3Z" transform="translate(0 -44)"/><path class="cls-1" d="M97.6,57.6h-1V55q0-1.2-.9-1.2a.9.9,0,0,0-.7.3,1.1,1.1,0,0,0-.3.8v2.7h-1V53h.9v.7h0l.5-.6.9-.3a1.5,1.5,0,0,1,1.1.4,1.7,1.7,0,0,1,.5,1.5Z" transform="translate(0 -44)"/><path class="cls-1" d="M104.4,53.8h-1.1V56c0,.6.2.8.6.8h.5v.8h-.8a1,1,0,0,1-.9-.4,1.9,1.9,0,0,1-.3-1.2V53.8h-.7V53h.7v-.8l1-.3V53h1.1v.8Z" transform="translate(0 -44)"/><path class="cls-1" d="M109.8,57.6h-1V55q0-1.2-.9-1.2a1,1,0,0,0-1,.7v3.1h-1V50.9h1v2.8h0a1.6,1.6,0,0,1,1.4-.8,1.2,1.2,0,0,1,1,.4,2.3,2.3,0,0,1,.5,1.5Z" transform="translate(0 -44)"/><path class="cls-1" d="M115.3,55.1v.5h-3a1.3,1.3,0,0,0,.4,1,1.7,1.7,0,0,0,1,.3l1.2-.2.2.7a3.3,3.3,0,0,1-1.5.3,2.4,2.4,0,0,1-1.7-4,1.9,1.9,0,0,1,1.6-.7,1.6,1.6,0,0,1,1.5.7A2.6,2.6,0,0,1,115.3,55.1Zm-.9-.3a1.9,1.9,0,0,0-.2-.8.8.8,0,0,0-.8-.4.9.9,0,0,0-.8.4,1.1,1.1,0,0,0-.3.8Z" transform="translate(0 -44)"/></svg>