<?xml version="1.0" encoding="utf-8"?>
<!-- Generator: Adobe Illustrator 21.0.2, SVG Export Plug-In . SVG Version: 6.00 Build 0)  -->
<svg version="1.1" id="e9a400c3-14c4-48e9-ac4d-1e6d0c39fdb5"
	 xmlns="http://www.w3.org/2000/svg" xmlns:xlink="http://www.w3.org/1999/xlink" x="0px" y="0px" viewBox="0 0 893.6 736.8"
	 style="enable-background:new 0 0 893.6 736.8;" xml:space="preserve">
<style type="text/css">
	.st0{fill:#F5F5F5;}
	.st1{fill:#E1E1E1;}
	.st2{fill:#00A4E5;}
	.st3{fill:#FFFFFF;}
	.st4{fill:#2B454E;}
	.st5{fill:#1A2E35;}
	.st6{fill:#375A64;}
	.st7{opacity:0.6;fill:#0055AB;}
	.st8{fill:#F0F0F0;}
	.st9{fill:#008BE8;}
	.st10{opacity:0.4;fill:#0055AB;}
	.st11{fill:#0055AB;}
	.st12{opacity:0.15;fill:#0055AB;}
	.st13{fill:#00A5F1;}
	.st14{opacity:0.1;}
	.st15{opacity:0.3;}
	.st16{opacity:0.15;}
	.st17{opacity:0.11;}
	.st18{fill:url(#SVGID_1_);}
	.st19{fill:url(#SVGID_2_);}
	.st20{fill:url(#SVGID_3_);}
	.st21{fill:url(#SVGID_4_);}
	.st22{opacity:0.5;fill:url(#SVGID_5_);}
	.st23{fill:url(#SVGID_6_);}
	.st24{opacity:0.2;}
	.st25{fill:#160A5B;}
	.st26{opacity:0.5;}
	.st27{fill:#40E6DE;}
	.st28{fill:url(#SVGID_7_);}
	.st29{fill:#BABCFD;}
	.st30{opacity:0.7;fill:#443C9C;}
	.st31{fill:url(#SVGID_8_);}
	.st32{fill:#24126A;}
	.st33{opacity:0.51;}
	.st34{fill:#443C9C;}
	.st35{fill:url(#SVGID_9_);}
	.st36{fill:url(#SVGID_10_);}
	.st37{fill:#3F21D1;}
	.st38{fill:url(#SVGID_11_);}
	.st39{fill:url(#SVGID_12_);}
	.st40{fill:url(#SVGID_13_);}
	.st41{fill:url(#SVGID_14_);}
	.st42{fill:url(#SVGID_15_);}
	.st43{fill:url(#SVGID_16_);}
	.st44{fill:url(#SVGID_17_);}
	.st45{fill:#0F054C;}
	.st46{opacity:0.5;fill:url(#SVGID_18_);}
	.st47{opacity:0.5;fill:url(#SVGID_19_);}
	.st48{opacity:0.5;fill:url(#SVGID_20_);}
	.st49{opacity:0.5;fill:url(#SVGID_21_);}
	.st50{opacity:0.5;fill:#40E6DE;}
	.st51{opacity:0.5;fill:url(#SVGID_22_);}
	.st52{opacity:0.5;fill:url(#SVGID_23_);}
	.st53{opacity:0.8;fill:#40E6DE;}
	.st54{opacity:0.1;fill:#40E6DE;}
	.st55{opacity:0.4;fill:#40E6DE;}
	.st56{fill:#C76668;}
	.st57{fill:#00DFBF;}
	.st58{fill:#004256;}
	.st59{opacity:0.6;}
	.st60{fill:#B0494C;}
</style>
<title>investing</title>
<g>
	<path id="Floor_4_" class="st0" d="M257.5,661c140.5,82.9,368.3,82.9,508.8,0c140.5-82.9,140.5-217.3,0-300.3
		c-140.5-82.9-368.3-82.9-508.8,0C117,443.6,117,578.1,257.5,661z"/>
	<path id="Shadows_1_" class="st1" d="M777.6,575.7c26.9,15.5,26.9,40.7,0,56.2c-26.9,15.5-70.5,15.5-97.3,0
		c-26.9-15.5-26.9-40.7,0-56.2C707.2,560.2,750.7,560.2,777.6,575.7z"/>
	<path id="XMLID_1526_" class="st2" d="M234.8,421.8c-0.9,0.5-17.2,5.1-23.2-2.9c-6-8,4-20.4-1.7-25c-5.7-4.6-21.5,0-25.3-9.6
		c-3.8-9.6,7.5-13.8,1.1-23.5c-4-6.1-13.8-9.5-14.7-15.2c-1.4-9.4,14.2-13.8,27.6-4.9c13.4,8.9,21.5,4.8,25.7,4.2
		s13.4,0.7,13.1,15.6C237.2,375.5,234.8,421.8,234.8,421.8z"/>
	<g id="XMLID_1524_">
		<path id="XMLID_1525_" class="st3" d="M235.9,400.6c-0.4,0-0.8-0.3-0.9-0.7c-4.7-28.3-37.5-51.3-54.6-56.3
			c-0.5-0.1-0.7-0.6-0.6-1.1c0.1-0.5,0.6-0.7,1.1-0.6c17.5,5.1,51.1,28.6,55.9,57.7c0.1,0.5-0.2,0.9-0.7,1
			C236,400.5,236,400.6,235.9,400.6z"/>
	</g>
	<g id="XMLID_1517_">
		<path id="XMLID_1518_" class="st3" d="M197.1,376.9c-0.3,0-0.6-0.2-0.8-0.4c-0.2-0.4-0.1-1,0.3-1.2c0.5-0.3,13.2-7.7,25.7-4.3
			c0.5,0.1,0.7,0.6,0.6,1.1c-0.1,0.5-0.6,0.8-1.1,0.6c-11.7-3.3-24.1,4-24.3,4.1C197.4,376.8,197.3,376.9,197.1,376.9z"/>
	</g>
	<path id="XMLID_30734_" class="st4" d="M241.1,432.6c0,4,3,9,6.7,11.2l189,109.1c3.7,2.2,9.8,2.2,13.5,0l258.5-149.3
		c3.7-2.2,6.7-7.2,6.7-11.2c0-4-3-9-6.7-11.2l-189-109.1c-3.7-2.2-9.8-2.2-13.5,0L247.9,421.4C244.2,423.6,241.1,428.6,241.1,432.6z
		"/>
	<path id="XMLID_980_" class="st5" d="M443.6,539.9v14.6c-2.4,0-4.9-0.5-6.7-1.6l-189-109.1c-3.7-2.1-6.7-7.2-6.7-11.2
		c0-3.8,2.7-8.4,6.1-10.8c-3,2.2-2.8,5.3,0.7,7.4l189,109.1C438.7,539.4,441.2,539.9,443.6,539.9z"/>
	<path id="XMLID_30732_" class="st6" d="M234.8,421.7c-3.5-2-6.3-7.1-6.3-11.4l0-225.5c0-4.3,3-9.5,6.7-11.7L493.8,23.8
		c3.7-2.2,9.6-2.3,13.1-0.2c3.5,2,6.3,7.1,6.3,11.4v225.5c0,4.3-3,9.5-6.7,11.7L247.9,421.4C244.2,423.6,238.3,423.7,234.8,421.7z"
		/>
	<path id="XMLID_979_" class="st5" d="M247.1,421.8c-3.7,1.7-9,1.7-12.3-0.2c-3.5-2-6.3-7.1-6.3-11.4V184.7c0-2.1,0.7-4.5,2-6.6
		l12.6,7.3v0c-1.2,2.1-2,4.5-2,6.6v225.5C241.1,421.5,243.7,423.3,247.1,421.8z"/>
	<path id="XMLID_30730_" class="st4" d="M241.1,192v225.5c0,4.3,3,6,6.7,3.9l258.5-149.3c3.7-2.2,6.7-7.4,6.7-11.7V35
		c0-4.3-3-6-6.7-3.9L247.9,180.4C244.2,182.5,241.1,187.7,241.1,192z"/>
	<path id="XMLID_30712_" class="st6" d="M247.9,429.2l189,109.1c3.7,2.2,9.8,2.2,13.5,0L708.9,389c3.7-2.2,3.7-5.6,0-7.8l-189-109.1
		c-3.7-2.2-9.8-2.2-13.5,0L247.9,421.4C244.2,423.6,244.2,427.1,247.9,429.2z"/>
	<path id="XMLID_30711_" class="st3" d="M251.5,192.9L500.8,49c2.2-1.3,4-0.2,4,2.3v195.2c0,2.6-1.8,5.7-4,7L251.5,397.4
		c-2.2,1.3-4,0.2-4-2.3V199.9C247.5,197.3,249.3,194.2,251.5,192.9z"/>
	<path id="XMLID_1_" class="st7" d="M251.5,192.9L500.8,49c2.2-1.3,4-0.2,4,2.3v195.2c0,2.6-1.8,5.7-4,7L251.5,397.4
		c-2.2,1.3-4,0.2-4-2.3V199.9C247.5,197.3,249.3,194.2,251.5,192.9z"/>
	<g id="XMLID_1364_">
		<path id="XMLID_1366_" class="st8" d="M375.6,180.5c6.6-3.8,12-0.7,12,6.9c0,7.7-5.4,17-12,20.8c-6.6,3.8-12,0.7-12-6.9
			C363.6,193.7,369,184.4,375.6,180.5z"/>
		<path id="XMLID_1365_" class="st8" d="M399.3,221.5c0-12.6-8.8-18.2-19.7-11.9l-6.8,3.9c-10.9,6.3-19.7,21.6-19.7,34.2v3.4
			l46.3-26.7V221.5z"/>
	</g>
	<path id="XMLID_1396_" class="st8" d="M422.7,227.7c-0.4-1-1.6-1.3-2.8-0.5L339,273.8c-0.8,0.5-1.6,1.3-2.1,2.2
		c-0.5,0.9-0.9,2-0.9,2.9v9.5c0,1.6,1,2.4,2.3,2c0.1,0,0.2-0.1,0.2-0.1c0.2-0.1,0.3-0.2,0.5-0.2l80.9-46.7c1.7-0.9,3-3.3,3-5.2v-9.5
		C422.9,228.5,422.8,228.1,422.7,227.7z"/>
	<g id="XMLID_1381_">
		<path id="XMLID_1393_" class="st2" d="M346.3,275c1.6-0.9,2.8-0.2,2.8,1.6s-1.3,4-2.8,4.9c-1.6,0.9-2.8,0.2-2.8-1.6
			C343.5,278.1,344.8,275.9,346.3,275z"/>
		<path id="XMLID_1392_" class="st2" d="M355.7,269.6c1.6-0.9,2.8-0.2,2.8,1.6c0,1.8-1.3,4-2.8,4.9c-1.6,0.9-2.8,0.2-2.8-1.6
			C352.9,272.7,354.2,270.5,355.7,269.6z"/>
		<path id="XMLID_1391_" class="st2" d="M365.1,264.2c1.6-0.9,2.8-0.2,2.8,1.6s-1.3,4-2.8,4.9c-1.6,0.9-2.8,0.2-2.8-1.6
			C362.3,267.3,363.6,265.1,365.1,264.2z"/>
		<path id="XMLID_1389_" class="st2" d="M374.5,258.7c1.6-0.9,2.8-0.2,2.8,1.6c0,1.8-1.3,4-2.8,4.9c-1.6,0.9-2.8,0.2-2.8-1.6
			C371.7,261.8,373,259.6,374.5,258.7z"/>
		<path id="XMLID_1385_" class="st2" d="M383.9,253.3c1.6-0.9,2.8-0.2,2.8,1.6s-1.3,4-2.8,4.9c-1.6,0.9-2.8,0.2-2.8-1.6
			S382.4,254.2,383.9,253.3z"/>
		<path id="XMLID_1384_" class="st2" d="M393.3,247.9c1.6-0.9,2.8-0.2,2.8,1.6c0,1.8-1.3,4-2.8,4.9c-1.6,0.9-2.8,0.2-2.8-1.6
			C390.5,251,391.8,248.8,393.3,247.9z"/>
		<path id="XMLID_1383_" class="st2" d="M402.7,242.5c1.6-0.9,2.8-0.2,2.8,1.6c0,1.8-1.3,4-2.8,4.9c-1.6,0.9-2.8,0.2-2.8-1.6
			C399.9,245.6,401.2,243.4,402.7,242.5z"/>
		<path id="XMLID_1382_" class="st2" d="M412.1,237c1.6-0.9,2.8-0.2,2.8,1.6c0,1.8-1.3,4-2.8,4.9c-1.6,0.9-2.8,0.2-2.8-1.6
			C409.3,240.2,410.5,237.9,412.1,237z"/>
	</g>
	<path id="XMLID_30710_" class="st4" d="M269.8,423.4l240-138.6c1.9-1.1,4.9-1.1,6.7,0l12.3,7.1c1.9,1.1,1.9,2.8,0,3.9l-240,138.5
		c-1.9,1.1-4.9,1.1-6.7,0l-12.2-7.1C268,426.2,268,424.4,269.8,423.4z"/>
	<path id="XMLID_30704_" class="st5" d="M301.5,441.6l240-138.6c1.9-1.1,4.9-1.1,6.7,0l75.5,43.6c1.9,1.1,1.9,2.8,0,3.9L384,488.9
		c-1.9,1.1-4.9,1.1-6.8,0l-75.8-43.4C299.6,444.4,299.6,442.7,301.5,441.6z"/>
	<path id="XMLID_172_" class="st6" d="M516.6,365.4l7.5-4.3c0.3-0.2,0.3-0.5,0-0.7l-8.7-5c-0.3-0.2-0.9-0.2-1.2,0l-7.5,4.3
		c-0.3,0.2-0.3,0.5,0,0.7l8.7,5C515.7,365.6,516.3,365.6,516.6,365.4z M501.8,348.2l-7.5,4.3c-0.3,0.2-0.3,0.5,0,0.7l8.7,5
		c0.3,0.2,0.9,0.2,1.2,0l7.5-4.3c0.3-0.2,0.3-0.5,0-0.7l-8.7-5C502.6,348,502.1,348,501.8,348.2z M477.5,362.2l-12.7,7.3
		c-0.3,0.2-0.3,0.5,0,0.7l8.7,5c0.3,0.2,0.9,0.2,1.2,0l12.7-7.3c0.3-0.2,0.3-0.5,0-0.7l-8.7-5C478.3,362,477.8,362,477.5,362.2z
		 M490.8,354.5l-7.5,4.3c-0.3,0.2-0.3,0.5,0,0.7l8.7,5c0.3,0.2,0.9,0.2,1.2,0l7.5-4.3c0.3-0.2,0.3-0.5,0-0.7l-8.7-5
		C491.6,354.3,491.1,354.3,490.8,354.5z M461.3,371.5l-7.5,4.3c-0.3,0.2-0.3,0.5,0,0.7l8.7,5c0.3,0.2,0.9,0.2,1.2,0l7.5-4.3
		c0.3-0.2,0.3-0.5,0-0.7l-8.7-5C462.2,371.4,461.6,371.3,461.3,371.5z M450.3,377.9l-7.5,4.3c-0.3,0.2-0.3,0.5,0,0.7l8.7,5
		c0.3,0.2,0.9,0.2,1.2,0l7.5-4.3c0.3-0.2,0.3-0.5,0-0.7l-8.7-5C451.2,377.7,450.6,377.7,450.3,377.9z M484.5,398.3l7.5-4.3
		c0.3-0.2,0.3-0.5,0-0.7l-8.7-5c-0.3-0.2-0.9-0.2-1.2,0l-7.5,4.3c-0.3,0.2-0.3,0.5,0,0.7l8.7,5C483.6,398.4,484.2,398.5,484.5,398.3
		z M473.5,404.6l7.5-4.3c0.3-0.2,0.3-0.5,0-0.7l-8.7-5c-0.3-0.2-0.9-0.2-1.2,0l-7.5,4.3c-0.3,0.2-0.3,0.5,0,0.7l8.7,5
		C472.7,404.8,473.2,404.8,473.5,404.6z M462.5,411l7.5-4.3c0.3-0.2,0.3-0.5,0-0.7l-8.7-5c-0.3-0.2-0.9-0.2-1.2,0l-7.5,4.3
		c-0.3,0.2-0.3,0.5,0,0.7l8.7,5C461.7,411.1,462.2,411.1,462.5,411z M451.5,417.3l7.5-4.3c0.3-0.2,0.3-0.5,0-0.7l-8.7-5
		c-0.3-0.2-0.9-0.2-1.2,0l-7.5,4.3c-0.3,0.2-0.3,0.5,0,0.7l8.7,5C450.7,417.5,451.2,417.5,451.5,417.3z M505.6,371.8l7.5-4.3
		c0.3-0.2,0.3-0.5,0-0.7l-8.7-5c-0.3-0.2-0.9-0.2-1.2,0l-7.5,4.3c-0.3,0.2-0.3,0.5,0,0.7l8.7,5C504.7,371.9,505.3,371.9,505.6,371.8
		z M495.5,391.9l16.8-9.7c0.3-0.2,0.3-0.5,0-0.7l-21.1-12.2c-0.3-0.2-0.9-0.2-1.2,0l-8.7,5c-0.3,0.2-0.3,0.5,0,0.7l11.2,6.4
		c0.3,0.2,0.4,0.5,0,0.7l-6.9,4c-0.3,0.2-0.3,0.5,0,0.7l8.7,5C494.6,392.1,495.2,392.1,495.5,391.9z M439.3,384.2l-7.5,4.3
		c-0.3,0.2-0.3,0.5,0,0.7l8.7,5c0.3,0.2,0.9,0.2,1.2,0l7.5-4.3c0.3-0.2,0.3-0.5,0-0.7l-8.7-5C440.2,384,439.7,384,439.3,384.2z
		 M428.4,390.6l-7.5,4.3c-0.3,0.2-0.3,0.5,0,0.7l8.7,5c0.3,0.2,0.9,0.2,1.2,0l7.5-4.3c0.3-0.2,0.3-0.5,0-0.7l-8.7-5
		C429.2,390.4,428.7,390.4,428.4,390.6z M373.5,461.7c0.3,0.2,0.9,0.2,1.2,0l7.5-4.3c0.3-0.2,0.3-0.5,0-0.7l-8.7-5
		c-0.3-0.2-0.9-0.2-1.2,0l-7.5,4.3c-0.3,0.2-0.3,0.5,0,0.7L373.5,461.7z M340.5,441.3l-7.5,4.3c-0.3,0.2-0.3,0.5,0,0.7l8.7,5
		c0.3,0.2,0.9,0.2,1.2,0l7.5-4.3c0.3-0.2,0.3-0.5,0-0.7l-8.7-5C341.4,441.1,340.8,441.1,340.5,441.3z M358.2,456.2
		c0.3,0.2,0.9,0.2,1.2,0l7.5-4.3c0.3-0.2,0.3-0.5,0-0.7l-8.7-5c-0.3-0.2-0.9-0.2-1.2,0l-7.5,4.3c-0.3,0.2-0.3,0.5,0,0.7L358.2,456.2
		z M392.9,465.5l7.5-4.3c0.3-0.2,0.3-0.5,0-0.7l-8.7-5c-0.3-0.2-0.9-0.2-1.2,0l-7.5,4.3c-0.3,0.2-0.3,0.5,0,0.7l8.7,5
		C392,465.7,392.5,465.7,392.9,465.5z M380.7,471.8c0.3,0.2,0.9,0.2,1.2,0l7.5-4.3c0.3-0.2,0.3-0.5,0-0.7l-8.7-5
		c-0.3-0.2-0.9-0.2-1.2,0l-7.5,4.3c-0.3,0.2-0.3,0.5,0,0.7L380.7,471.8z M351.5,434.9l-7.5,4.3c-0.3,0.2-0.3,0.5,0,0.7l8.7,5
		c0.3,0.2,0.9,0.2,1.2,0l7.5-4.3c0.3-0.2,0.3-0.5,0-0.7l-8.7-5C352.3,434.8,351.8,434.8,351.5,434.9z M406.4,403.2l-7.5,4.3
		c-0.3,0.2-0.3,0.5,0,0.7l8.7,5c0.3,0.2,0.9,0.2,1.2,0l7.5-4.3c0.3-0.2,0.3-0.5,0-0.7l-8.7-5C407.2,403.1,406.7,403.1,406.4,403.2z
		 M362.5,428.6l-7.5,4.3c-0.3,0.2-0.3,0.5,0,0.7l8.7,5c0.3,0.2,0.9,0.2,1.2,0l7.5-4.3c0.3-0.2,0.3-0.5,0-0.7l-8.7-5
		C363.3,428.4,362.8,428.4,362.5,428.6z M417.4,396.9l-7.5,4.3c-0.3,0.2-0.3,0.5,0,0.7l8.7,5c0.3,0.2,0.9,0.2,1.2,0l7.5-4.3
		c0.3-0.2,0.3-0.5,0-0.7l-8.7-5C418.2,396.7,417.7,396.7,417.4,396.9z M395.4,409.6l-7.5,4.3c-0.3,0.2-0.3,0.5,0,0.7l8.7,5
		c0.3,0.2,0.9,0.2,1.2,0l7.5-4.3c0.3-0.2,0.3-0.5,0-0.7l-8.7-5C396.3,409.4,395.7,409.4,395.4,409.6z M384.4,415.9l-7.5,4.3
		c-0.3,0.2-0.3,0.5,0,0.7l8.7,5c0.3,0.2,0.9,0.2,1.2,0l7.5-4.3c0.3-0.2,0.3-0.5,0-0.7l-8.7-5C385.3,415.7,384.7,415.7,384.4,415.9z
		 M373.4,422.3l-7.5,4.3c-0.3,0.2-0.3,0.5,0,0.7l8.7,5c0.3,0.2,0.9,0.2,1.2,0l7.5-4.3c0.3-0.2,0.3-0.5,0-0.7l-8.7-5
		C374.3,422.1,373.8,422.1,373.4,422.3z M429.6,430l7.5-4.3c0.3-0.2,0.3-0.5,0-0.7l-8.7-5c-0.3-0.2-0.9-0.2-1.2,0l-7.5,4.3
		c-0.3,0.2-0.3,0.5,0,0.7l8.7,5C428.7,430.1,429.3,430.2,429.6,430z M526,334.2l-7.5,4.3c-0.3,0.2-0.3,0.5,0,0.7l8.7,5
		c0.3,0.2,0.9,0.2,1.2,0l7.5-4.3c0.3-0.2,0.3-0.5,0-0.7l-8.7-5C526.9,334,526.4,334,526,334.2z M512.7,341.8l-7.5,4.3
		c-0.3,0.2-0.3,0.5,0,0.7l8.7,5c0.3,0.2,0.9,0.2,1.2,0l7.5-4.3c0.3-0.2,0.3-0.5,0-0.7l-8.7-5C513.6,341.7,513.1,341.6,512.7,341.8z
		 M537,327.8l-7.5,4.3c-0.3,0.2-0.3,0.5,0,0.7l8.7,5c0.3,0.2,0.9,0.2,1.2,0l7.5-4.3c0.3-0.2,0.3-0.5,0-0.7l-8.7-5
		C537.9,327.6,537.3,327.6,537,327.8z M480.2,386.4l7.5-4.3c0.3-0.2,0.3-0.5,0-0.7l-8.7-5c-0.3-0.2-0.9-0.2-1.2,0l-7.5,4.3
		c-0.3,0.2-0.3,0.5,0,0.7l8.7,5C479.3,386.6,479.9,386.6,480.2,386.4z M549.2,321.5c-0.3-0.2-0.9-0.2-1.2,0l-7.5,4.3
		c-0.3,0.2-0.3,0.5,0,0.7l8.7,5c0.3,0.2,0.9,0.2,1.2,0l7.5-4.3c0.3-0.2,0.3-0.5,0-0.7L549.2,321.5z M440.6,423.6l7.5-4.3
		c0.3-0.2,0.3-0.5,0-0.7l-8.7-5c-0.3-0.2-0.9-0.2-1.2,0l-7.5,4.3c-0.3,0.2-0.3,0.5,0,0.7l8.7,5C439.7,423.8,440.2,423.8,440.6,423.6
		z M575.2,345.9l7.5-4.3c0.3-0.2,0.3-0.5,0-0.7l-8.7-5c-0.3-0.2-0.9-0.2-1.2,0l-7.5,4.3c-0.3,0.2-0.3,0.5,0,0.7l8.7,5
		C574.4,346.1,574.9,346.1,575.2,345.9z M551.8,345.1l7.5-4.3c0.3-0.2,0.3-0.5,0-0.7l-8.7-5c-0.3-0.2-0.9-0.2-1.2,0l-7.5,4.3
		c-0.3,0.2-0.3,0.5,0,0.7l8.7,5C551,345.2,551.5,345.2,551.8,345.1z M561.6,328.7c-0.3-0.2-0.9-0.2-1.2,0l-7.5,4.3
		c-0.3,0.2-0.3,0.5,0,0.7l8.7,5c0.3,0.2,0.9,0.2,1.2,0l7.5-4.3c0.3-0.2,0.3-0.5,0-0.7L561.6,328.7z M563.9,327.3l21.1,12.2
		c0.3,0.2,0.9,0.2,1.2,0l7.5-4.3c0.3-0.2,0.3-0.5,0-0.7l-21.1-12.2c-0.3-0.2-0.9-0.2-1.2,0l-7.5,4.3
		C563.6,326.8,563.6,327.1,563.9,327.3z M538.4,341.3l-7.5,4.3c-0.3,0.2-0.3,0.5,0,0.7l8.7,5c0.3,0.2,0.9,0.2,1.2,0l7.5-4.3
		c0.3-0.2,0.3-0.5,0-0.7l-8.7-5C539.3,341.2,538.8,341.1,538.4,341.3z M455.8,389l-7.5,4.3c-0.3,0.2-0.3,0.5,0,0.7l8.7,5
		c0.3,0.2,0.9,0.2,1.2,0l7.5-4.3c0.3-0.2,0.3-0.5,0-0.7l-8.7-5C456.6,388.9,456.1,388.9,455.8,389z M563.1,352.2
		c0.3,0.2,0.9,0.2,1.2,0l7.5-4.3c0.3-0.2,0.3-0.5,0-0.7l-8.7-5c-0.3-0.2-0.9-0.2-1.2,0l-7.5,4.3c-0.3,0.2-0.3,0.5,0,0.7L563.1,352.2
		z M466.8,382.7l-7.5,4.3c-0.3,0.2-0.3,0.5,0,0.7l8.7,5c0.3,0.2,0.9,0.2,1.2,0l7.5-4.3c0.3-0.2,0.3-0.5,0-0.7l-8.7-5
		C467.6,382.5,467.1,382.5,466.8,382.7z M384.5,455.3c0.3,0.2,0.9,0.2,1.2,0l7.5-4.3c0.3-0.2,0.3-0.5,0-0.7l-8.7-5
		c-0.3-0.2-0.9-0.2-1.2,0l-7.5,4.3c-0.3,0.2-0.3,0.5,0,0.7L384.5,455.3z M367.9,439.8l-7.5,4.3c-0.3,0.2-0.3,0.5,0,0.7l8.7,5
		c0.3,0.2,0.9,0.2,1.2,0l7.5-4.3c0.3-0.2,0.3-0.5,0-0.7l-8.7-5C368.8,439.6,368.3,439.6,367.9,439.8z M396.6,449l7.5-4.3
		c0.3-0.2,0.3-0.5,0-0.7l-8.7-5c-0.3-0.2-0.9-0.2-1.2,0l-7.5,4.3c-0.3,0.2-0.3,0.5,0,0.7l8.7,5C395.8,449.2,396.3,449.2,396.6,449z
		 M407.6,442.7l7.5-4.3c0.3-0.2,0.3-0.5,0-0.7l-8.7-5c-0.3-0.2-0.9-0.2-1.2,0l-7.5,4.3c-0.3,0.2-0.3,0.5,0,0.7l8.7,5
		C406.8,442.8,407.3,442.8,407.6,442.7z M418.6,436.3l7.5-4.3c0.3-0.2,0.3-0.5,0-0.7l-8.7-5c-0.3-0.2-0.9-0.2-1.2,0l-7.5,4.3
		c-0.3,0.2-0.3,0.5,0,0.7l8.7,5C417.7,436.5,418.3,436.5,418.6,436.3z M378.9,433.4l-7.5,4.3c-0.3,0.2-0.3,0.5,0,0.7l8.7,5
		c0.3,0.2,0.9,0.2,1.2,0l7.5-4.3c0.3-0.2,0.3-0.5,0-0.7l-8.7-5C379.8,433.3,379.2,433.2,378.9,433.4z M389.9,427.1l-7.5,4.3
		c-0.3,0.2-0.3,0.5,0,0.7l8.7,5c0.3,0.2,0.9,0.2,1.2,0l7.5-4.3c0.3-0.2,0.3-0.5,0-0.7l-8.7-5C390.8,426.9,390.2,426.9,389.9,427.1z
		 M433.8,401.7l-7.5,4.3c-0.3,0.2-0.3,0.5,0,0.7l8.7,5c0.3,0.2,0.9,0.2,1.2,0l7.5-4.3c0.3-0.2,0.3-0.5,0-0.7l-8.7-5
		C434.7,401.6,434.1,401.5,433.8,401.7z M422.8,408.1l-7.5,4.3c-0.3,0.2-0.3,0.5,0,0.7l8.7,5c0.3,0.2,0.9,0.2,1.2,0l7.5-4.3
		c0.3-0.2,0.3-0.5,0-0.7l-8.7-5C423.7,407.9,423.2,407.9,422.8,408.1z M444.8,395.4l-7.5,4.3c-0.3,0.2-0.3,0.5,0,0.7l8.7,5
		c0.3,0.2,0.9,0.2,1.2,0l7.5-4.3c0.3-0.2,0.3-0.5,0-0.7l-8.7-5C445.7,395.2,445.1,395.2,444.8,395.4z M400.9,420.7l-7.5,4.3
		c-0.3,0.2-0.3,0.5,0,0.7l8.7,5c0.3,0.2,0.9,0.2,1.2,0l7.5-4.3c0.3-0.2,0.3-0.5,0-0.7l-8.7-5C401.7,420.6,401.2,420.6,400.9,420.7z
		 M411.9,414.4l-7.5,4.3c-0.3,0.2-0.3,0.5,0,0.7l8.7,5c0.3,0.2,0.9,0.2,1.2,0l7.5-4.3c0.3-0.2,0.3-0.5,0-0.7l-8.7-5
		C412.7,414.2,412.2,414.2,411.9,414.4z M403.8,459.2l7.5-4.3c0.3-0.2,0.3-0.5,0-0.7l-8.7-5c-0.3-0.2-0.9-0.2-1.2,0l-7.5,4.3
		c-0.3,0.2-0.3,0.5,0,0.7l8.7,5C403,459.3,403.5,459.4,403.8,459.2z M339.4,452.7l-8.7-5c-0.3-0.2-0.9-0.2-1.2,0L322,452
		c-0.3,0.2-0.3,0.5,0,0.7l8.7,5c0.3,0.2,0.9,0.2,1.2,0l7.5-4.3C339.8,453.2,339.7,452.9,339.4,452.7z M355.9,457.5l-8.7-5
		c-0.3-0.2-0.9-0.2-1.2,0l-11.6,6.7c-0.3,0.2-0.3,0.5,0,0.7l8.7,5c0.3,0.2,0.9,0.2,1.2,0l11.6-6.7
		C356.2,458,356.2,457.7,355.9,457.5z M326.1,443l-8.7-5c-0.3-0.2-0.9-0.2-1.2,0l-9.2,5.3c-0.3,0.2-0.3,0.5,0,0.7l8.7,5
		c0.3,0.2,0.9,0.2,1.2,0l9.2-5.3C326.4,443.5,326.4,443.2,326.1,443z M333.2,438.9c0.3,0.2,0.9,0.2,1.2,0l7.5-4.3
		c0.3-0.2,0.3-0.5,0-0.7l-8.7-5c-0.3-0.2-0.9-0.2-1.2,0l-7.5,4.3c-0.3,0.2-0.3,0.5,0,0.7L333.2,438.9z M371.2,463l-8.7-5
		c-0.3-0.2-0.9-0.2-1.2,0l-14.5,8.3c-0.3,0.2-0.3,0.5,0,0.7l8.7,5c0.3,0.2,0.9,0.2,1.2,0l14.5-8.3
		C371.5,463.5,371.5,463.2,371.2,463z M378.4,473.2l-8.7-5c-0.3-0.2-0.9-0.2-1.2,0l-9.2,5.3c-0.3,0.2-0.3,0.5,0,0.7l8.7,5
		c0.3,0.2,0.9,0.2,1.2,0l9.2-5.3C378.7,473.7,378.7,473.4,378.4,473.2z M414.8,391.7c0.3,0.2,0.9,0.2,1.2,0l7.5-4.3
		c0.3-0.2,0.3-0.5,0-0.7l-8.7-5c-0.3-0.2-0.9-0.2-1.2,0l-7.5,4.3c-0.3,0.2-0.3,0.5,0,0.7L414.8,391.7z M392.9,404.4
		c0.3,0.2,0.9,0.2,1.2,0l7.5-4.3c0.3-0.2,0.3-0.5,0-0.7l-8.7-5c-0.3-0.2-0.9-0.2-1.2,0l-7.5,4.3c-0.3,0.2-0.3,0.5,0,0.7L392.9,404.4
		z M344.1,432.5c0.3,0.2,0.9,0.2,1.2,0l7.5-4.3c0.3-0.2,0.3-0.5,0-0.7l-8.7-5c-0.3-0.2-0.9-0.2-1.2,0l-7.5,4.3
		c-0.3,0.2-0.3,0.5,0,0.7L344.1,432.5z M403.8,398.1c0.3,0.2,0.9,0.2,1.2,0l7.5-4.3c0.3-0.2,0.3-0.5,0-0.7l-8.7-5
		c-0.3-0.2-0.9-0.2-1.2,0l-7.5,4.3c-0.3,0.2-0.3,0.5,0,0.7L403.8,398.1z M381.9,410.7c0.3,0.2,0.9,0.2,1.2,0l7.5-4.3
		c0.3-0.2,0.3-0.5,0-0.7l-8.7-5c-0.3-0.2-0.9-0.2-1.2,0l-7.5,4.3c-0.3,0.2-0.3,0.5,0,0.7L381.9,410.7z M384.4,474
		c-0.3-0.2-0.9-0.2-1.2,0l-11.6,6.7c-0.3,0.2-0.3,0.5,0,0.7l8.7,5c0.3,0.2,0.9,0.2,1.2,0l11.6-6.7c0.3-0.2,0.3-0.5,0-0.7L384.4,474z
		 M366.1,419.8c0.3,0.2,0.9,0.2,1.2,0l7.5-4.3c0.3-0.2,0.3-0.5,0-0.7l-8.7-5c-0.3-0.2-0.9-0.2-1.2,0l-7.5,4.3
		c-0.3,0.2-0.3,0.5,0,0.7L366.1,419.8z M355.1,426.2c0.3,0.2,0.9,0.2,1.2,0l7.5-4.3c0.3-0.2,0.3-0.5,0-0.7l-8.7-5
		c-0.3-0.2-0.9-0.2-1.2,0l-7.5,4.3c-0.3,0.2-0.3,0.5,0,0.7L355.1,426.2z M587.9,356.5c-0.3-0.2-0.9-0.2-1.2,0l-18.5,10.7
		c-0.3,0.2-0.3,0.5,0,0.7l8.7,5c0.3,0.2,0.9,0.2,1.2,0l18.5-10.7c0.3-0.2,0.3-0.5,0-0.7L587.9,356.5z M563.6,370.5
		c-0.3-0.2-0.9-0.2-1.2,0l-7.5,4.3c-0.3,0.2-0.3,0.5,0,0.7l8.7,5c0.3,0.2,0.9,0.2,1.2,0l7.5-4.3c0.3-0.2,0.3-0.5,0-0.7L563.6,370.5z
		 M414.8,452.8l7.5-4.3c0.3-0.2,0.3-0.5,0-0.7l-8.7-5c-0.3-0.2-0.9-0.2-1.2,0l-7.5,4.3c-0.3,0.2-0.3,0.5,0,0.7l8.7,5
		C414,453,414.5,453,414.8,452.8z M541.6,383.2c-0.3-0.2-0.9-0.2-1.2,0l-7.5,4.3c-0.3,0.2-0.3,0.5,0,0.7l8.7,5
		c0.3,0.2,0.9,0.2,1.2,0l7.5-4.3c0.3-0.2,0.3-0.5,0-0.7L541.6,383.2z M598.8,350.2c-0.3-0.2-0.9-0.2-1.2,0l-7.5,4.3
		c-0.3,0.2-0.3,0.5,0,0.7l8.7,5c0.3,0.2,0.9,0.2,1.2,0l7.5-4.3c0.3-0.2,0.3-0.5,0-0.7L598.8,350.2z M618.5,348.8l-21.1-12.2
		c-0.3-0.2-0.9-0.2-1.2,0l-7.5,4.3c-0.3,0.2-0.3,0.5,0,0.7l21.1,12.2c0.3,0.2,0.9,0.2,1.2,0l7.5-4.3
		C618.9,349.4,618.9,349,618.5,348.8z M500.6,406.9c-0.3-0.2-0.9-0.2-1.2,0l-9.2,5.3c-0.3,0.2-0.3,0.5,0,0.7l8.7,5
		c0.3,0.2,0.9,0.2,1.2,0l9.2-5.3c0.3-0.2,0.3-0.5,0-0.7L500.6,406.9z M528.3,390.9c-0.3-0.2-0.9-0.2-1.2,0l-11.6,6.7
		c-0.3,0.2-0.3,0.5,0,0.7l8.7,5c0.3,0.2,0.9,0.2,1.2,0l11.6-6.7c0.3-0.2,0.3-0.5,0-0.7L528.3,390.9z M475.2,421.6
		c-0.3-0.2-0.9-0.2-1.2,0l-61.8,35.7c-0.3,0.2-0.3,0.5,0,0.7l8.7,5c0.3,0.2,0.9,0.2,1.2,0l61.8-35.7c0.3-0.2,0.3-0.5,0-0.7
		L475.2,421.6z M409.8,459.3c-0.3-0.2-0.9-0.2-1.2,0l-9.2,5.3c-0.3,0.2-0.3,0.5,0,0.7l8.7,5c0.3,0.2,0.9,0.2,1.2,0l9.2-5.3
		c0.3-0.2,0.3-0.5,0-0.7L409.8,459.3z M487.9,414.2c-0.3-0.2-0.9-0.2-1.2,0l-9.2,5.3c-0.3,0.2-0.3,0.5,0,0.7l8.7,5
		c0.3,0.2,0.9,0.2,1.2,0l9.2-5.3c0.3-0.2,0.3-0.5,0-0.7L487.9,414.2z M397.1,466.6c-0.3-0.2-0.9-0.2-1.2,0l-9.2,5.3
		c-0.3,0.2-0.3,0.5,0,0.7l8.7,5c0.3,0.2,0.9,0.2,1.2,0l9.2-5.3c0.3-0.2,0.3-0.5,0-0.7L397.1,466.6z M513.3,399.6
		c-0.3-0.2-0.9-0.2-1.2,0l-9.2,5.3c-0.3,0.2-0.3,0.5,0,0.7l8.7,5c0.3,0.2,0.9,0.2,1.2,0l9.2-5.3c0.3-0.2,0.3-0.5,0-0.7L513.3,399.6z
		 M552.6,376.9c-0.3-0.2-0.9-0.2-1.2,0l-7.5,4.3c-0.3,0.2-0.3,0.5,0,0.7l8.7,5c0.3,0.2,0.9,0.2,1.2,0l7.5-4.3c0.3-0.2,0.3-0.5,0-0.7
		L552.6,376.9z M576.7,359.4l7.5-4.3c0.3-0.2,0.3-0.5,0-0.7l-8.7-5c-0.3-0.2-0.9-0.2-1.2,0l-7.5,4.3c-0.3,0.2-0.3,0.5,0,0.7l8.7,5
		C575.8,359.6,576.4,359.6,576.7,359.4z M527.6,359.1l7.5-4.3c0.3-0.2,0.3-0.5,0-0.7l-8.7-5c-0.3-0.2-0.9-0.2-1.2,0l-7.5,4.3
		c-0.3,0.2-0.3,0.5,0,0.7l8.7,5C526.7,359.2,527.3,359.3,527.6,359.1z M502.7,402.1l22-12.7c0.3-0.2,0.3-0.5,0-0.7l-8.7-5
		c-0.3-0.2-0.9-0.2-1.2,0l-22,12.7c-0.3,0.2-0.3,0.5,0,0.7l8.7,5C501.8,402.3,502.4,402.3,502.7,402.1z M564.5,365.7
		c0.3,0.2,0.9,0.2,1.2,0l7.5-4.3c0.3-0.2,0.3-0.5,0-0.7l-8.7-5c-0.3-0.2-0.9-0.2-1.2,0l-7.5,4.3c-0.3,0.2-0.3,0.5,0,0.7L564.5,365.7
		z M553.3,358.6l7.5-4.3c0.3-0.2,0.3-0.5,0-0.7l-8.7-5c-0.3-0.2-0.9-0.2-1.2,0l-7.5,4.3c-0.3,0.2-0.3,0.5,0,0.7l8.7,5
		C552.4,358.7,553,358.7,553.3,358.6z M491.7,408.4l7.5-4.3c0.3-0.2,0.3-0.5,0-0.7l-8.7-5c-0.3-0.2-0.9-0.2-1.2,0l-7.5,4.3
		c-0.3,0.2-0.3,0.5,0,0.7l8.7,5C490.8,408.6,491.4,408.6,491.7,408.4z M540.2,379.7c0.3,0.2,0.9,0.2,1.2,0l7.5-4.3
		c0.3-0.2,0.3-0.5,0-0.7l-8.7-5c-0.3-0.2-0.9-0.2-1.2,0l-7.5,4.3c-0.3,0.2-0.3,0.5,0,0.7L540.2,379.7z M436.8,440.1l7.5-4.3
		c0.3-0.2,0.3-0.5,0-0.7l-8.7-5c-0.3-0.2-0.9-0.2-1.2,0l-7.5,4.3c-0.3,0.2-0.3,0.5,0,0.7l8.7,5C435.9,440.3,436.5,440.3,436.8,440.1
		z M447.8,433.8l7.5-4.3c0.3-0.2,0.3-0.5,0-0.7l-8.7-5c-0.3-0.2-0.9-0.2-1.2,0l-7.5,4.3c-0.3,0.2-0.3,0.5,0,0.7l8.7,5
		C446.9,434,447.5,434,447.8,433.8z M425.8,446.5l7.5-4.3c0.3-0.2,0.3-0.5,0-0.7l-8.7-5c-0.3-0.2-0.9-0.2-1.2,0l-7.5,4.3
		c-0.3,0.2-0.3,0.5,0,0.7l8.7,5C425,446.7,425.5,446.7,425.8,446.5z M469.7,421.1l7.5-4.3c0.3-0.2,0.3-0.5,0-0.7l-8.7-5
		c-0.3-0.2-0.9-0.2-1.2,0l-7.5,4.3c-0.3,0.2-0.3,0.5,0,0.7l8.7,5C468.9,421.3,469.4,421.3,469.7,421.1z M458.8,427.5l7.5-4.3
		c0.3-0.2,0.3-0.5,0-0.7l-8.7-5c-0.3-0.2-0.9-0.2-1.2,0l-7.5,4.3c-0.3,0.2-0.3,0.5,0,0.7l8.7,5C457.9,427.6,458.4,427.6,458.8,427.5
		z M480.7,414.8l7.5-4.3c0.3-0.2,0.3-0.5,0-0.7l-8.7-5c-0.3-0.2-0.9-0.2-1.2,0l-7.5,4.3c-0.3,0.2-0.3,0.5,0,0.7l8.7,5
		C479.9,415,480.4,415,480.7,414.8z M531,321c0.3,0.2,0.9,0.2,1.2,0l7.5-4.3c0.3-0.2,0.3-0.5,0-0.7l-2.3-1.3c-0.3-0.2-0.9-0.2-1.2,0
		l-7.5,4.3c-0.3,0.2-0.3,0.5,0,0.7L531,321z M476.9,355.9c0.3,0.2,0.9,0.2,1.2,0l7.5-4.3c0.3-0.2,0.3-0.5,0-0.7l-8.7-5
		c-0.3-0.2-0.9-0.2-1.2,0l-7.5,4.3c-0.3,0.2-0.3,0.5,0,0.7L476.9,355.9z M498.9,343.2c0.3,0.2,0.9,0.2,1.2,0l7.5-4.3
		c0.3-0.2,0.3-0.5,0-0.7l-8.7-5c-0.3-0.2-0.9-0.2-1.2,0l-7.5,4.3c-0.3,0.2-0.3,0.5,0,0.7L498.9,343.2z M463.5,363.6
		c0.3,0.2,0.9,0.2,1.2,0l7.5-4.3c0.3-0.2,0.3-0.5,0-0.7l-8.7-5c-0.3-0.2-0.9-0.2-1.2,0l-7.5,4.3c-0.3,0.2-0.3,0.5,0,0.7L463.5,363.6
		z M487.9,349.5c0.3,0.2,0.9,0.2,1.2,0l7.5-4.3c0.3-0.2,0.3-0.5,0-0.7l-8.7-5c-0.3-0.2-0.9-0.2-1.2,0l-7.5,4.3
		c-0.3,0.2-0.3,0.5,0,0.7L487.9,349.5z M441.6,376.3c0.3,0.2,0.9,0.2,1.2,0l7.5-4.3c0.3-0.2,0.3-0.5,0-0.7l-8.7-5
		c-0.3-0.2-0.9-0.2-1.2,0l-7.5,4.3c-0.3,0.2-0.3,0.5,0,0.7L441.6,376.3z M452.5,369.9c0.3,0.2,0.9,0.2,1.2,0l7.5-4.3
		c0.3-0.2,0.3-0.5,0-0.7l-8.7-5c-0.3-0.2-0.9-0.2-1.2,0l-7.5,4.3c-0.3,0.2-0.3,0.5,0,0.7L452.5,369.9z M509,333.7
		c0.3,0.2,0.9,0.2,1.2,0l7.5-4.3c0.3-0.2,0.3-0.5,0-0.7l-2.3-1.3c-0.3-0.2-0.9-0.2-1.2,0l-7.5,4.3c-0.3,0.2-0.3,0.5,0,0.7L509,333.7
		z M541.9,314.6c0.3,0.2,0.9,0.2,1.2,0l7.5-4.3c0.3-0.2,0.3-0.5,0-0.7l-2.3-1.3c-0.3-0.2-0.9-0.2-1.2,0l-7.5,4.3
		c-0.3,0.2-0.3,0.5,0,0.7L541.9,314.6z M560.2,325.2c0.3,0.2,0.9,0.2,1.2,0l7.5-4.3c0.3-0.2,0.3-0.5,0-0.7l-8.7-5
		c-0.3-0.2-0.9-0.2-1.2,0l-7.5,4.3c-0.3,0.2-0.3,0.5,0,0.7L560.2,325.2z M587.7,353l7.5-4.3c0.3-0.2,0.3-0.5,0-0.7l-8.7-5
		c-0.3-0.2-0.9-0.2-1.2,0l-7.5,4.3c-0.3,0.2-0.3,0.5,0,0.7l8.7,5C586.8,353.2,587.3,353.2,587.7,353z M520,327.3
		c0.3,0.2,0.9,0.2,1.2,0l7.5-4.3c0.3-0.2,0.3-0.5,0-0.7l-2.3-1.3c-0.3-0.2-0.9-0.2-1.2,0l-7.5,4.3c-0.3,0.2-0.3,0.5,0,0.7L520,327.3
		z M430.6,382.6c0.3,0.2,0.9,0.2,1.2,0l7.5-4.3c0.3-0.2,0.3-0.5,0-0.7l-8.7-5c-0.3-0.2-0.9-0.2-1.2,0l-7.5,4.3
		c-0.3,0.2-0.3,0.5,0,0.7L430.6,382.6z"/>
	<path id="XMLID_168_" class="st5" d="M479.3,448.5l74.2-42.8c2.2-1.3,5.9-1.3,8.1,0l42.5,24.5c2.2,1.3,2.2,3.4,0,4.7l-74.2,42.8
		c-2.2,1.3-5.9,1.3-8.1,0l-42.5-24.5C477,451.9,477,449.8,479.3,448.5z"/>
	<g>
		<path id="XMLID_1436_" class="st9" d="M582.3,190.6C582.3,190.6,582.3,190.6,582.3,190.6L582.3,190.6l-12.5-7.2
			c-0.7-0.3-1.8,0-3,0.9c-11.6,8.9-27.2,11.6-39.9,7.6c-0.8-0.8-1.6-1.6-2.3-2.4c-0.1-0.1-0.2-0.2-0.2-0.3h0
			c-0.4-0.5-0.9-0.8-1.3-1.1l-0.2-0.1l-12.5-7.2c-1.4-0.7-2.7,0-3.6,2.1c-12,29.9-37.7,60.2-54.8,67.8c-1.3,0.6-2.5,1.4-3.4,2.5
			c-1.2,1.4-2,3.1-1.9,4.9l2.5,67.2c0,19.4,8.2,39.9,24.9,49.9l12.9,7.4l0.2,0.1c6.4,3.7,14,5.8,22.9,5.8c1.8,0,3.6-0.1,5.5-0.3
			c3.2-0.3,7.5-2.6,9.7-4.9c37.4-38.6,55.6-90.9,55.6-119.8l2.5-70.3C583.3,191.9,582.9,191,582.3,190.6z"/>
		<g>
			<path id="XMLID_1457_" class="st2" d="M583.2,193.4l-2.5,70.3c0,28.9-18.2,81.2-55.6,119.8c-2.2,2.3-6.6,4.6-9.7,4.9
				c-1.9,0.2-3.7,0.3-5.5,0.3c-8.8,0-16.5-2.1-22.9-5.8l-0.2-0.1l-0.4-0.3c-16.7-10-24.9-30.5-24.9-49.9l-2.5-67.2
				c-0.1-1.8,0.7-3.5,1.9-4.9c0.9-1.1,2.1-1.9,3.4-2.5c17.1-7.6,42.8-37.9,54.8-67.8c0.9-2.1,2.2-2.8,3.6-2.1l0,0l0.2,0.1
				c0.4,0.2,0.9,0.6,1.3,1.1h0c0.1,0.1,0.2,0.2,0.2,0.3c12.8,14.9,37.9,14.9,54.7,2c1.3-1,2.3-1.3,3-0.9l0.1,0.1c0,0,0,0,0,0
				C582.9,191,583.3,191.9,583.2,193.4z"/>
			<g id="XMLID_1433_">
				<path id="XMLID_1454_" class="st10" d="M582.2,190.5c-0.7-0.3-1.8,0-3,0.9c-15.8,12.1-39,12.8-52.3,0.4
					c12.7,4.1,28.3,1.3,39.9-7.6c1.3-1,2.3-1.3,3-0.9L582.2,190.5z"/>
				<path id="XMLID_1458_" class="st10" d="M522.7,188c-1.4-0.7-2.7,0-3.6,2.1c-12,29.9-37.7,60.2-54.8,67.8
					c-1.3,0.6-2.5,1.4-3.4,2.5c-0.3,0.4-0.6,0.8-0.9,1.2l-12.4-7.2c0.2-0.4,0.5-0.8,0.8-1.2c0.2-0.2,0.4-0.4,0.6-0.6l0,0
					c0.1-0.1,0.1-0.1,0.2-0.2c0.1-0.1,0.1-0.1,0.2-0.2c0.7-0.6,1.5-1.1,2.4-1.5c17.1-7.6,42.8-37.9,54.8-67.8
					c0.9-2.1,2.1-2.8,3.6-2.1L522.7,188z"/>
				<path id="XMLID_1463_" class="st11" d="M449.1,252.7c0.1-0.1,0.1-0.1,0.2-0.2C449.2,252.6,449.1,252.7,449.1,252.7
					C449.1,252.7,449,252.7,449.1,252.7z"/>
				<path id="XMLID_1455_" class="st12" d="M449.3,252.5c-0.1,0.1-0.1,0.2-0.2,0.2c0,0,0,0,0,0C449.1,252.6,449.2,252.6,449.3,252.5
					z"/>
			</g>
			<path id="XMLID_1453_" class="st12" d="M487.1,382.8l-0.2-0.1l-12.9-7.5c-16.7-10-24.9-30.5-24.9-49.9l-2.5-67.2
				c0-1.3,0.4-2.6,1.1-3.7l12.4,7.2c-0.7,1.1-1.1,2.4-1,3.7l2.5,67.2c0,19.4,8.2,39.9,24.9,49.9l0.4,0.3L487.1,382.8z"/>
			<g id="XMLID_308_">
				<path id="XMLID_332_" class="st6" d="M531.1,321l-19.9,11.5l3.1-36c-2.4-1.3-3.9-4.4-3.9-8.8c0-7.9,4.8-17.1,10.8-20.6
					c5.9-3.4,10.8,0.2,10.8,8.1c0,4.4-1.5,9.3-3.9,13.3L531.1,321z"/>
				<polygon id="XMLID_327_" class="st4" points="531.1,321 513.1,310.6 511.2,332.5 				"/>
				<path id="XMLID_313_" class="st4" d="M521.1,267.1c-3.9,2.2-7.3,7-9.2,12.2l16.1,9.3l0,0c2.4-4,3.9-8.9,3.9-13.3
					C531.9,267.3,527.1,263.7,521.1,267.1z"/>
			</g>
		</g>
	</g>
	<g>
		<path id="XMLID_369_" class="st13" d="M343.9,577.1l0,6.1c0,7.2,4.7,14.3,14.1,19.8c14.2,8.2,35.1,10.2,52.7,6l16.3,9.4l12.5-2.8
			l8.5,4.9l0.5,10.3l4.6,2.7l11.5,1l8.3,4.6v5.8l10.4,6h26.5l9.5-5.5v-6.1l-84.6-42.7c3.9-4.1,5.9-8.7,5.9-13.3l0-6.2
			c-1.3-5.9-6.2-9-14.1-13.6c-18.9-10.9-49.4-10.9-68.3,0C349.6,568.4,344.8,570.7,343.9,577.1z M369.8,569.9c5.3-3.1,14-3.1,19.3,0
			c5.3,3.1,5.3,8.1,0,11.2c-5.3,3.1-14,3.1-19.3,0C364.5,578,364.5,573,369.8,569.9z"/>
		<path id="XMLID_306_" class="st14" d="M343.9,577.1l0,6.1c0,7.2,4.7,14.3,14.1,19.8c14.2,8.2,35.1,10.2,52.7,6l16.3,9.4l12.5-2.8
			l8.5,4.9l0.5,10.3l4.6,2.7l11.5,1l8.3,4.6v5.8l10.4,6h26.5l9.5-5.5v-6.1l-84.6-42.7c3.9-4.1,5.9-8.7,5.9-13.3l0-6.2
			c-1.3-5.9-6.2-9-14.1-13.6c-18.9-10.9-49.4-10.9-68.3,0C349.6,568.4,344.8,570.7,343.9,577.1z M369.8,569.9c5.3-3.1,14-3.1,19.3,0
			c5.3,3.1,5.3,8.1,0,11.2c-5.3,3.1-14,3.1-19.3,0C364.5,578,364.5,573,369.8,569.9z"/>
		<path id="XMLID_1237_" class="st14" d="M374.8,603.1v6.1c11.5,2.6,24.4,2.5,35.9-0.3v-6.1C399.3,605.5,386.4,605.6,374.8,603.1z"
			/>
		<polygon id="XMLID_383_" class="st14" points="427,612.2 427,618.3 439.5,615.5 439.5,609.4 		"/>
		<g>
			<path id="XMLID_377_" class="st2" d="M358.1,596.8c14.2,8.2,35.1,10.2,52.7,6l16.3,9.4l12.5-2.8l8.5,4.9l0.5,10.3l4.6,2.7l11.5,1
				l9,5l-0.7,5.4l10.4,6h26.5l9.5-5.5l-84.6-48.9c10-10.6,7.2-24.1-8.3-33c-18.9-10.9-49.4-10.9-68.3,0
				C339.2,568.2,339.2,585.9,358.1,596.8z M369.8,563.8c5.3-3.1,14-3.1,19.3,0c5.3,3.1,5.3,8.1,0,11.2c-5.3,3.1-14,3.1-19.3,0
				C364.5,571.9,364.5,566.9,369.8,563.8z"/>
			<path class="st15" d="M392.2,599.6c-12,0-23.1-2.6-31.5-7.4c-7.3-4.2-11.5-9.7-11.5-15.1c0-5.4,4.2-10.9,11.5-15.1
				c8.3-4.8,19.5-7.4,31.5-7.4c12,0,23.1,2.6,31.5,7.4c7.3,4.2,11.5,9.7,11.5,15.1c0,5.4-4.2,10.9-11.5,15.1
				C415.4,596.9,404.2,599.6,392.2,599.6z M392.2,556.7c-11.6,0-22.4,2.5-30.4,7.2c-6.6,3.8-10.4,8.6-10.4,13.2
				c0,4.6,3.8,9.4,10.4,13.2c8,4.6,18.8,7.2,30.4,7.2c11.6,0,22.4-2.5,30.4-7.2c6.6-3.8,10.4-8.6,10.4-13.2c0-4.6-3.8-9.4-10.4-13.2
				C414.6,559.2,403.8,556.7,392.2,556.7z"/>
			<polygon id="XMLID_367_" class="st16" points="516.2,640.9 516.2,643.6 429.4,593.5 431.7,592.2 			"/>
		</g>
		<polygon id="XMLID_350_" class="st16" points="431.7,592.2 431.7,594.8 429.4,593.5 		"/>
	</g>
	<g>
		<g>
			<g>
				<g>
					<g class="st17">
						<linearGradient id="SVGID_1_" gradientUnits="userSpaceOnUse" x1="221.0141" y1="548.3323" x2="356.2184" y2="548.3323">
							<stop  offset="0" style="stop-color:#5661D5"/>
							<stop  offset="6.462777e-02" style="stop-color:#5470D6"/>
							<stop  offset="0.2729" style="stop-color:#4D9AD9"/>
							<stop  offset="0.4757" style="stop-color:#47BBDB"/>
							<stop  offset="0.6687" style="stop-color:#43D3DD"/>
							<stop  offset="0.848" style="stop-color:#41E1DE"/>
							<stop  offset="1" style="stop-color:#40E6DE"/>
						</linearGradient>
						<path class="st18" d="M293.8,511.4c-3.2-1.9-7.2-1.9-10.4,0L221.7,547c-1,0.6-1,2,0,2.5l62.3,35.9c2.8,1.6,6.3,1.6,9.1,0
							l62.4-35.9c1-0.6,1-2,0-2.5L293.8,511.4z"/>
					</g>
					<g class="st17">
						<linearGradient id="SVGID_2_" gradientUnits="userSpaceOnUse" x1="221.0141" y1="537.9316" x2="356.2184" y2="537.9316">
							<stop  offset="0" style="stop-color:#5661D5"/>
							<stop  offset="6.462777e-02" style="stop-color:#5470D6"/>
							<stop  offset="0.2729" style="stop-color:#4D9AD9"/>
							<stop  offset="0.4757" style="stop-color:#47BBDB"/>
							<stop  offset="0.6687" style="stop-color:#43D3DD"/>
							<stop  offset="0.848" style="stop-color:#41E1DE"/>
							<stop  offset="1" style="stop-color:#40E6DE"/>
						</linearGradient>
						<path class="st19" d="M293.8,501c-3.2-1.9-7.2-1.9-10.4,0l-61.7,35.6c-1,0.6-1,2,0,2.5L284,575c2.8,1.6,6.3,1.6,9.1,0
							l62.4-35.9c1-0.6,1-2,0-2.5L293.8,501z"/>
					</g>
					<g class="st17">
						<linearGradient id="SVGID_3_" gradientUnits="userSpaceOnUse" x1="221.0141" y1="527.5308" x2="356.2184" y2="527.5308">
							<stop  offset="0" style="stop-color:#5661D5"/>
							<stop  offset="6.462777e-02" style="stop-color:#5470D6"/>
							<stop  offset="0.2729" style="stop-color:#4D9AD9"/>
							<stop  offset="0.4757" style="stop-color:#47BBDB"/>
							<stop  offset="0.6687" style="stop-color:#43D3DD"/>
							<stop  offset="0.848" style="stop-color:#41E1DE"/>
							<stop  offset="1" style="stop-color:#40E6DE"/>
						</linearGradient>
						<path class="st20" d="M293.8,490.6c-3.2-1.9-7.2-1.9-10.4,0l-61.7,35.6c-1,0.6-1,2,0,2.5l62.3,35.9c2.8,1.6,6.3,1.6,9.1,0
							l62.4-35.9c1-0.6,1-2,0-2.5L293.8,490.6z"/>
					</g>
					<g class="st17">
						<linearGradient id="SVGID_4_" gradientUnits="userSpaceOnUse" x1="221.0141" y1="517.13" x2="356.2184" y2="517.13">
							<stop  offset="0" style="stop-color:#5661D5"/>
							<stop  offset="6.462777e-02" style="stop-color:#5470D6"/>
							<stop  offset="0.2729" style="stop-color:#4D9AD9"/>
							<stop  offset="0.4757" style="stop-color:#47BBDB"/>
							<stop  offset="0.6687" style="stop-color:#43D3DD"/>
							<stop  offset="0.848" style="stop-color:#41E1DE"/>
							<stop  offset="1" style="stop-color:#40E6DE"/>
						</linearGradient>
						<path class="st21" d="M293.8,480.2c-3.2-1.9-7.2-1.9-10.4,0l-61.7,35.6c-1,0.6-1,2,0,2.5l62.3,35.9c2.8,1.6,6.3,1.6,9.1,0
							l62.4-35.9c1-0.6,1-2,0-2.5L293.8,480.2z"/>
					</g>
					<linearGradient id="SVGID_5_" gradientUnits="userSpaceOnUse" x1="221.0142" y1="532.7311" x2="356.2184" y2="532.7311">
						<stop  offset="0" style="stop-color:#5661D5"/>
						<stop  offset="6.462777e-02" style="stop-color:#5470D6"/>
						<stop  offset="0.2729" style="stop-color:#4D9AD9"/>
						<stop  offset="0.4757" style="stop-color:#47BBDB"/>
						<stop  offset="0.6687" style="stop-color:#43D3DD"/>
						<stop  offset="0.848" style="stop-color:#41E1DE"/>
						<stop  offset="1" style="stop-color:#40E6DE"/>
					</linearGradient>
					<path class="st22" d="M355.5,515.8l-61.6-35.6c-3.2-1.9-7.2-1.9-10.4,0l-61.7,35.6c-0.5,0.3-0.7,0.8-0.7,1.3v31.2
						c0,0.5,0.2,1,0.7,1.3l62.3,35.9c2.8,1.6,6.3,1.6,9.1,0l62.4-35.9c0.5-0.3,0.7-0.8,0.7-1.3v-31.2l0,0
						C356.2,516.6,356,516.1,355.5,515.8z"/>
					<g class="st17">
						<linearGradient id="SVGID_6_" gradientUnits="userSpaceOnUse" x1="221.0141" y1="517.13" x2="356.2184" y2="517.13">
							<stop  offset="0" style="stop-color:#5661D5"/>
							<stop  offset="6.462777e-02" style="stop-color:#5470D6"/>
							<stop  offset="0.2729" style="stop-color:#4D9AD9"/>
							<stop  offset="0.4757" style="stop-color:#47BBDB"/>
							<stop  offset="0.6687" style="stop-color:#43D3DD"/>
							<stop  offset="0.848" style="stop-color:#41E1DE"/>
							<stop  offset="1" style="stop-color:#40E6DE"/>
						</linearGradient>
						<path class="st23" d="M293.8,480.2c-3.2-1.9-7.2-1.9-10.4,0l-61.7,35.6c-1,0.6-1,2,0,2.5l62.3,35.9c2.8,1.6,6.3,1.6,9.1,0
							l62.4-35.9c1-0.6,1-2,0-2.5L293.8,480.2z"/>
					</g>
					<g class="st24">
						<path class="st25" d="M291.9,493.6c-2-1.2-4.6-1.2-6.6,0L246,516.3c-0.6,0.4-0.6,1.3,0,1.6l39.7,22.9c1.8,1,4,1,5.8,0
							l39.7-22.9c0.6-0.4,0.6-1.3,0-1.6L291.9,493.6z"/>
					</g>
					<g class="st26">
						<path class="st27" d="M290.8,500.6c-1.4-0.8-3-0.8-4.4,0l-27.7,15.9c-0.4,0.3-0.4,0.9,0,1.1l27.8,16c1.3,0.7,2.8,0.7,4.1,0
							l27.8-16c0.4-0.3,0.4-0.9,0-1.1L290.8,500.6z"/>
					</g>
					<path class="st27" d="M258.8,517.5l27.7-15.9c1.4-0.8,3-0.8,4.4,0l27.6,15.9c0,0,0,0,0.1,0.1c0.4-0.3,0.3-0.8-0.1-1.1
						l-27.6-15.9c-1.4-0.8-3-0.8-4.4,0l-27.7,15.9C258.4,516.8,258.4,517.3,258.8,517.5C258.7,517.6,258.8,517.5,258.8,517.5z"/>
					<linearGradient id="SVGID_7_" gradientUnits="userSpaceOnUse" x1="221.0149" y1="535.8758" x2="356.2175" y2="535.8758">
						<stop  offset="0" style="stop-color:#5661D5"/>
						<stop  offset="6.462777e-02" style="stop-color:#5470D6"/>
						<stop  offset="0.2729" style="stop-color:#4D9AD9"/>
						<stop  offset="0.4757" style="stop-color:#47BBDB"/>
						<stop  offset="0.6687" style="stop-color:#43D3DD"/>
						<stop  offset="0.848" style="stop-color:#41E1DE"/>
						<stop  offset="1" style="stop-color:#40E6DE"/>
					</linearGradient>
					<path class="st28" d="M355.5,516.9l-62.4,35.9c-2.8,1.6-6.3,1.6-9.1,0l-62.3-35.9c-0.2-0.1-0.4-0.3-0.5-0.5
						c-0.4,0.7-0.2,1.6,0.5,2l62.3,35.9c2.8,1.6,6.3,1.6,9.1,0l62.4-35.9c0.7-0.4,0.9-1.3,0.5-2
						C355.9,516.6,355.7,516.7,355.5,516.9z"/>
				</g>
			</g>
		</g>
		<g>
			<polygon class="st29" points="288.6,380.6 221,341.6 288.6,302.5 356.2,341.6 			"/>
			<polygon class="st30" points="288.6,375 230.7,341.6 288.6,308.1 346.6,341.6 			"/>
			<polygon class="st3" points="288.6,530.4 221,491.4 288.6,452.4 356.2,491.4 			"/>
			<linearGradient id="SVGID_8_" gradientUnits="userSpaceOnUse" x1="322.4178" y1="488.2471" x2="322.4178" y2="345.5858">
				<stop  offset="0" style="stop-color:#BDBDF4"/>
				<stop  offset="0.2938" style="stop-color:#C2C2F5"/>
				<stop  offset="0.6399" style="stop-color:#D0D0F7"/>
				<stop  offset="1" style="stop-color:#E7E7FB"/>
			</linearGradient>
			<polygon class="st31" points="356.2,341.6 356.2,491.4 288.6,530.4 288.6,380.6 			"/>
			<polygon class="st32" points="221,341.6 221,491.4 288.6,530.4 288.6,380.6 			"/>
			<g class="st33">
				<polygon class="st34" points="225.6,351.5 225.6,486.2 284,519.9 284,385.3 				"/>
			</g>
			<polygon class="st34" points="346.1,377.8 346.1,381.7 298.8,409.1 298.8,405.1 			"/>
			<polygon class="st34" points="346.1,394.5 346.1,398.5 298.8,425.8 298.8,421.8 			"/>
			<polygon class="st34" points="346.1,411.3 346.1,415.2 298.8,442.5 298.8,438.6 			"/>
			<polygon class="st34" points="346.1,428 346.1,432 298.8,459.3 298.8,455.3 			"/>
			<polygon class="st34" points="346.1,444.8 346.1,448.7 298.8,476 298.8,472.1 			"/>
			<polygon class="st34" points="346.1,461.5 346.1,465.5 298.8,492.8 298.8,488.8 			"/>
			<polygon class="st3" points="288.6,379.3 222.1,340.9 221,341.6 288.6,380.6 356.2,341.6 355.1,340.9 			"/>
			<g class="st33">
				<polygon class="st34" points="221,467.7 288.6,426.9 288.6,380.6 221,341.6 				"/>
			</g>
			<g>
				<linearGradient id="SVGID_9_" gradientUnits="userSpaceOnUse" x1="279.434" y1="386.2531" x2="285.9389" y2="386.2531">
					<stop  offset="0" style="stop-color:#BDBDF4"/>
					<stop  offset="0.2938" style="stop-color:#C2C2F5"/>
					<stop  offset="0.6399" style="stop-color:#D0D0F7"/>
					<stop  offset="1" style="stop-color:#E7E7FB"/>
				</linearGradient>
				<path class="st35" d="M285.9,387.3c0-1.7-1.2-3.8-2.7-4.7c-0.7-0.4-1.4-0.5-1.9-0.2l0,0l-1.9,1.1l1.2,0c0,0.2-0.1,0.4-0.1,0.6
					c0,1.7,1.2,3.8,2.7,4.7c0.2,0.1,0.4,0.2,0.6,0.3l-0.5,1l1.9-1.1l0,0C285.6,388.8,285.9,388.2,285.9,387.3z"/>
				<linearGradient id="SVGID_10_" gradientUnits="userSpaceOnUse" x1="278.6421" y1="386.9159" x2="284.0216" y2="386.9159">
					<stop  offset="0" style="stop-color:#5661D5"/>
					<stop  offset="0.1789" style="stop-color:#5B65D7"/>
					<stop  offset="0.3899" style="stop-color:#6973DD"/>
					<stop  offset="0.617" style="stop-color:#8188E6"/>
					<stop  offset="0.8539" style="stop-color:#A2A6F3"/>
					<stop  offset="1" style="stop-color:#BABCFD"/>
				</linearGradient>
				<path class="st36" d="M284,388.5c0,1.7-1.2,2.4-2.7,1.6c-1.5-0.9-2.7-2.9-2.7-4.7c0-1.7,1.2-2.4,2.7-1.6
					C282.8,384.7,284,386.8,284,388.5z"/>
				<path class="st37" d="M282.9,387.8c0,1-0.7,1.4-1.5,0.9s-1.5-1.7-1.5-2.7c0-1,0.7-1.4,1.5-0.9
					C282.2,385.6,282.9,386.8,282.9,387.8z"/>
			</g>
			<g>
				<linearGradient id="SVGID_11_" gradientUnits="userSpaceOnUse" x1="222.737" y1="351.4171" x2="229.2419" y2="351.4171">
					<stop  offset="0" style="stop-color:#BDBDF4"/>
					<stop  offset="0.2938" style="stop-color:#C2C2F5"/>
					<stop  offset="0.6399" style="stop-color:#D0D0F7"/>
					<stop  offset="1" style="stop-color:#E7E7FB"/>
				</linearGradient>
				<path class="st38" d="M229.2,352.5c0-1.7-1.2-3.8-2.7-4.7c-0.7-0.4-1.4-0.5-1.9-0.2l0,0l-1.9,1.1l1.2,0c0,0.2-0.1,0.4-0.1,0.6
					c0,1.7,1.2,3.8,2.7,4.7c0.2,0.1,0.4,0.2,0.6,0.3l-0.5,1l1.9-1.1l0,0C228.9,354,229.2,353.4,229.2,352.5z"/>
				<linearGradient id="SVGID_12_" gradientUnits="userSpaceOnUse" x1="221.9452" y1="352.0798" x2="227.3247" y2="352.0798">
					<stop  offset="0" style="stop-color:#5661D5"/>
					<stop  offset="0.1789" style="stop-color:#5B65D7"/>
					<stop  offset="0.3899" style="stop-color:#6973DD"/>
					<stop  offset="0.617" style="stop-color:#8188E6"/>
					<stop  offset="0.8539" style="stop-color:#A2A6F3"/>
					<stop  offset="1" style="stop-color:#BABCFD"/>
				</linearGradient>
				<path class="st39" d="M227.3,353.6c0,1.7-1.2,2.4-2.7,1.6c-1.5-0.9-2.7-2.9-2.7-4.7c0-1.7,1.2-2.4,2.7-1.6
					C226.1,349.8,227.3,351.9,227.3,353.6z"/>
				<path class="st37" d="M226.2,353c0,1-0.7,1.4-1.5,0.9c-0.9-0.5-1.5-1.7-1.5-2.7c0-1,0.7-1.4,1.5-0.9
					C225.5,350.8,226.2,352,226.2,353z"/>
			</g>
			<g>
				<linearGradient id="SVGID_13_" gradientUnits="userSpaceOnUse" x1="279.434" y1="520.4273" x2="285.9389" y2="520.4273">
					<stop  offset="0" style="stop-color:#BDBDF4"/>
					<stop  offset="0.2938" style="stop-color:#C2C2F5"/>
					<stop  offset="0.6399" style="stop-color:#D0D0F7"/>
					<stop  offset="1" style="stop-color:#E7E7FB"/>
				</linearGradient>
				<path class="st40" d="M285.9,521.5c0-1.7-1.2-3.8-2.7-4.7c-0.7-0.4-1.4-0.5-1.9-0.2l0,0l-1.9,1.1l1.2,0c0,0.2-0.1,0.4-0.1,0.6
					c0,1.7,1.2,3.8,2.7,4.7c0.2,0.1,0.4,0.2,0.6,0.3l-0.5,1l1.9-1.1l0,0C285.6,523,285.9,522.4,285.9,521.5z"/>
				<linearGradient id="SVGID_14_" gradientUnits="userSpaceOnUse" x1="278.6421" y1="521.0901" x2="284.0216" y2="521.0901">
					<stop  offset="0" style="stop-color:#5661D5"/>
					<stop  offset="0.1789" style="stop-color:#5B65D7"/>
					<stop  offset="0.3899" style="stop-color:#6973DD"/>
					<stop  offset="0.617" style="stop-color:#8188E6"/>
					<stop  offset="0.8539" style="stop-color:#A2A6F3"/>
					<stop  offset="1" style="stop-color:#BABCFD"/>
				</linearGradient>
				<path class="st41" d="M284,522.6c0,1.7-1.2,2.4-2.7,1.6s-2.7-2.9-2.7-4.7c0-1.7,1.2-2.4,2.7-1.6
					C282.8,518.8,284,520.9,284,522.6z"/>
				<path class="st37" d="M282.9,522c0,1-0.7,1.4-1.5,0.9s-1.5-1.7-1.5-2.7c0-1,0.7-1.4,1.5-0.9C282.2,519.8,282.9,521,282.9,522z"
					/>
			</g>
			<g>
				<linearGradient id="SVGID_15_" gradientUnits="userSpaceOnUse" x1="222.737" y1="485.5913" x2="229.2419" y2="485.5913">
					<stop  offset="0" style="stop-color:#BDBDF4"/>
					<stop  offset="0.2938" style="stop-color:#C2C2F5"/>
					<stop  offset="0.6399" style="stop-color:#D0D0F7"/>
					<stop  offset="1" style="stop-color:#E7E7FB"/>
				</linearGradient>
				<path class="st42" d="M229.2,486.7c0-1.7-1.2-3.8-2.7-4.7c-0.7-0.4-1.4-0.5-1.9-0.2l0,0l-1.9,1.1l1.2,0c0,0.2-0.1,0.4-0.1,0.6
					c0,1.7,1.2,3.8,2.7,4.7c0.2,0.1,0.4,0.2,0.6,0.3l-0.5,1l1.9-1.1l0,0C228.9,488.2,229.2,487.5,229.2,486.7z"/>
				<linearGradient id="SVGID_16_" gradientUnits="userSpaceOnUse" x1="221.9452" y1="486.254" x2="227.3247" y2="486.254">
					<stop  offset="0" style="stop-color:#5661D5"/>
					<stop  offset="0.1789" style="stop-color:#5B65D7"/>
					<stop  offset="0.3899" style="stop-color:#6973DD"/>
					<stop  offset="0.617" style="stop-color:#8188E6"/>
					<stop  offset="0.8539" style="stop-color:#A2A6F3"/>
					<stop  offset="1" style="stop-color:#BABCFD"/>
				</linearGradient>
				<path class="st43" d="M227.3,487.8c0,1.7-1.2,2.4-2.7,1.6c-1.5-0.9-2.7-2.9-2.7-4.7c0-1.7,1.2-2.4,2.7-1.6
					C226.1,484,227.3,486.1,227.3,487.8z"/>
				<path class="st37" d="M226.2,487.1c0,1-0.7,1.4-1.5,0.9c-0.9-0.5-1.5-1.7-1.5-2.7c0-1,0.7-1.4,1.5-0.9
					C225.5,485,226.2,486.2,226.2,487.1z"/>
			</g>
		</g>
		<g>
			<g>
				<linearGradient id="SVGID_17_" gradientUnits="userSpaceOnUse" x1="187.5887" y1="345.4145" x2="360.8435" y2="345.4145">
					<stop  offset="0" style="stop-color:#5661D5"/>
					<stop  offset="0.1656" style="stop-color:#5D67D8"/>
					<stop  offset="0.4078" style="stop-color:#7179E0"/>
					<stop  offset="0.697" style="stop-color:#9196EC"/>
					<stop  offset="1" style="stop-color:#BABCFD"/>
				</linearGradient>
				<polygon class="st44" points="356.2,322 356.2,329.8 288.6,368.8 221,329.8 221,322 				"/>
				<polygon class="st29" points="288.6,361 221,322 288.6,283 356.2,322 				"/>
				<polygon class="st3" points="288.6,360.1 221.8,321.5 221,322 288.6,361 356.2,322 355.4,321.5 				"/>
			</g>
			<g>
				<polygon class="st45" points="288.6,352 236.6,322 288.6,292 340.6,322 				"/>
				<g>
					<linearGradient id="SVGID_18_" gradientUnits="userSpaceOnUse" x1="236.6202" y1="322.0028" x2="340.6123" y2="322.0028">
						<stop  offset="0" style="stop-color:#40E6DE"/>
						<stop  offset="0.152" style="stop-color:#41E1DE"/>
						<stop  offset="0.3313" style="stop-color:#43D3DD"/>
						<stop  offset="0.5243" style="stop-color:#47BBDB"/>
						<stop  offset="0.7271" style="stop-color:#4D9AD9"/>
						<stop  offset="0.9354" style="stop-color:#5470D6"/>
						<stop  offset="1" style="stop-color:#5661D5"/>
					</linearGradient>
					<polygon class="st46" points="288.6,352 236.6,322 288.6,292 340.6,322 					"/>
					<g>
						<linearGradient id="SVGID_19_" gradientUnits="userSpaceOnUse" x1="288.6155" y1="303.2079" x2="340.6123" y2="303.2079">
							<stop  offset="0" style="stop-color:#40E6DE"/>
							<stop  offset="0.152" style="stop-color:#41E1DE"/>
							<stop  offset="0.3313" style="stop-color:#43D3DD"/>
							<stop  offset="0.5243" style="stop-color:#47BBDB"/>
							<stop  offset="0.7271" style="stop-color:#4D9AD9"/>
							<stop  offset="0.9354" style="stop-color:#5470D6"/>
							<stop  offset="1" style="stop-color:#5661D5"/>
						</linearGradient>
						<polygon class="st47" points="288.6,284.4 340.6,314.4 340.6,322 288.6,292 						"/>
						<linearGradient id="SVGID_20_" gradientUnits="userSpaceOnUse" x1="236.6202" y1="303.2074" x2="288.617" y2="303.2074">
							<stop  offset="0" style="stop-color:#40E6DE"/>
							<stop  offset="0.152" style="stop-color:#41E1DE"/>
							<stop  offset="0.3313" style="stop-color:#43D3DD"/>
							<stop  offset="0.5243" style="stop-color:#47BBDB"/>
							<stop  offset="0.7271" style="stop-color:#4D9AD9"/>
							<stop  offset="0.9354" style="stop-color:#5470D6"/>
							<stop  offset="1" style="stop-color:#5661D5"/>
						</linearGradient>
						<polygon class="st48" points="288.6,292 236.6,322 236.6,314.4 288.6,284.4 						"/>
						<linearGradient id="SVGID_21_" gradientUnits="userSpaceOnUse" x1="236.6202" y1="314.4327" x2="340.6123" y2="314.4327">
							<stop  offset="0" style="stop-color:#40E6DE"/>
							<stop  offset="0.152" style="stop-color:#41E1DE"/>
							<stop  offset="0.3313" style="stop-color:#43D3DD"/>
							<stop  offset="0.5243" style="stop-color:#47BBDB"/>
							<stop  offset="0.7271" style="stop-color:#4D9AD9"/>
							<stop  offset="0.9354" style="stop-color:#5470D6"/>
							<stop  offset="1" style="stop-color:#5661D5"/>
						</linearGradient>
						<polygon class="st49" points="288.6,344.5 236.6,314.4 288.6,284.4 340.6,314.4 						"/>
						<polygon class="st50" points="288.6,326.4 267.8,314.4 288.6,302.4 309.4,314.4 						"/>
						<polygon class="st50" points="288.6,303.5 308.4,315 309.4,314.4 288.6,302.4 267.8,314.4 268.8,315 						"/>
						<linearGradient id="SVGID_22_" gradientUnits="userSpaceOnUse" x1="288.617" y1="333.2278" x2="340.6123" y2="333.2278">
							<stop  offset="0" style="stop-color:#40E6DE"/>
							<stop  offset="0.152" style="stop-color:#41E1DE"/>
							<stop  offset="0.3313" style="stop-color:#43D3DD"/>
							<stop  offset="0.5243" style="stop-color:#47BBDB"/>
							<stop  offset="0.7271" style="stop-color:#4D9AD9"/>
							<stop  offset="0.9354" style="stop-color:#5470D6"/>
							<stop  offset="1" style="stop-color:#5661D5"/>
						</linearGradient>
						<polygon class="st51" points="288.6,344.5 288.6,352 340.6,322 340.6,314.4 						"/>
					</g>
					<linearGradient id="SVGID_23_" gradientUnits="userSpaceOnUse" x1="236.6202" y1="333.2273" x2="288.617" y2="333.2273">
						<stop  offset="0" style="stop-color:#40E6DE"/>
						<stop  offset="0.152" style="stop-color:#41E1DE"/>
						<stop  offset="0.3313" style="stop-color:#43D3DD"/>
						<stop  offset="0.5243" style="stop-color:#47BBDB"/>
						<stop  offset="0.7271" style="stop-color:#4D9AD9"/>
						<stop  offset="0.9354" style="stop-color:#5470D6"/>
						<stop  offset="1" style="stop-color:#5661D5"/>
					</linearGradient>
					<polygon class="st52" points="236.6,314.4 236.6,322 288.6,352 288.6,344.5 					"/>
				</g>
				<polygon class="st53" points="288.6,343.6 237.3,314 236.6,314.4 288.6,344.5 340.6,314.4 339.9,314 				"/>
			</g>
		</g>
		<g>
			<g>
				<polygon class="st27" points="266,468.1 266.1,466.3 267.6,467.2 267.6,469 				"/>
				<polygon class="st54" points="266,471.7 266,469.9 267.6,470.8 267.6,472.6 				"/>
				<polygon class="st55" points="266,475.3 266,473.5 267.6,474.4 267.6,476.2 				"/>
				<polygon class="st27" points="266,478.9 266,477.1 267.6,478 267.6,479.8 				"/>
				<polygon class="st55" points="266,482.5 266,480.7 267.6,481.6 267.6,483.4 				"/>
				<polygon class="st27" points="266,486.1 266,484.3 267.6,485.2 267.6,487 				"/>
				<polygon class="st27" points="266,489.7 266,487.9 267.6,488.8 267.6,490.6 				"/>
				<polygon class="st27" points="266,493.3 266,491.5 267.6,492.4 267.5,494.2 				"/>
				<polygon class="st54" points="266,496.9 266,495.1 267.5,496 267.5,497.8 				"/>
			</g>
			<g>
				<polygon class="st27" points="262.9,466.3 262.9,464.5 264.5,465.4 264.5,467.2 				"/>
				<polygon class="st27" points="262.9,469.9 262.9,468.1 264.5,469 264.5,470.8 				"/>
				<polygon class="st27" points="262.9,473.5 262.9,471.7 264.5,472.6 264.5,474.4 				"/>
				<polygon class="st27" points="262.9,477.1 262.9,475.3 264.5,476.2 264.5,478 				"/>
				<polygon class="st27" points="262.9,480.7 262.9,478.9 264.4,479.8 264.4,481.6 				"/>
				<polygon class="st27" points="262.9,484.3 262.9,482.5 264.4,483.4 264.4,485.2 				"/>
				<polygon class="st27" points="262.9,487.9 262.9,486.1 264.4,487 264.4,488.8 				"/>
				<polygon class="st27" points="262.9,491.5 262.9,489.7 264.4,490.6 264.4,492.4 				"/>
				<polygon class="st27" points="262.9,495.1 262.9,493.3 264.4,494.2 264.4,496 				"/>
			</g>
			<g>
				<polygon class="st27" points="259.8,464.4 259.8,462.6 261.4,463.5 261.4,465.3 				"/>
				<polygon class="st27" points="259.8,468 259.8,466.2 261.3,467.1 261.3,468.9 				"/>
				<polygon class="st27" points="259.8,471.6 259.8,469.8 261.3,470.7 261.3,472.5 				"/>
				<polygon class="st54" points="259.8,475.2 259.8,473.4 261.3,474.3 261.3,476.1 				"/>
				<polygon class="st55" points="259.8,478.8 259.8,477 261.3,477.9 261.3,479.7 				"/>
				<polygon class="st55" points="259.8,482.4 259.8,480.6 261.3,481.5 261.3,483.3 				"/>
				<polygon class="st27" points="259.7,486 259.7,484.2 261.3,485.1 261.3,486.9 				"/>
				<polygon class="st27" points="259.7,489.6 259.7,487.8 261.3,488.7 261.3,490.6 				"/>
				<polygon class="st27" points="259.7,493.2 259.7,491.4 261.3,492.4 261.3,494.2 				"/>
			</g>
			<g>
				<polygon class="st55" points="256.7,462.6 256.7,460.8 258.2,461.7 258.2,463.5 				"/>
				<polygon class="st55" points="256.7,466.2 256.7,464.4 258.2,465.3 258.2,467.1 				"/>
				<polygon class="st54" points="256.7,469.8 256.7,468 258.2,468.9 258.2,470.7 				"/>
				<polygon class="st27" points="256.6,473.4 256.6,471.6 258.2,472.5 258.2,474.3 				"/>
				<polygon class="st27" points="256.6,477 256.6,475.2 258.2,476.1 258.2,477.9 				"/>
				<polygon class="st27" points="256.6,480.6 256.6,478.8 258.2,479.7 258.2,481.5 				"/>
				<polygon class="st55" points="256.6,484.2 256.6,482.4 258.2,483.3 258.2,485.1 				"/>
				<polygon class="st27" points="256.6,487.8 256.6,486 258.2,486.9 258.2,488.7 				"/>
				<polygon class="st27" points="256.6,491.4 256.6,489.6 258.2,490.5 258.2,492.3 				"/>
			</g>
			<g>
				<polygon class="st27" points="253.5,460.8 253.5,459 255.1,459.9 255.1,461.7 				"/>
				<polygon class="st27" points="253.5,464.4 253.5,462.6 255.1,463.5 255.1,465.3 				"/>
				<polygon class="st27" points="253.5,468 253.5,466.2 255.1,467.1 255.1,468.9 				"/>
				<polygon class="st27" points="253.5,471.6 253.5,469.8 255.1,470.7 255.1,472.5 				"/>
				<polygon class="st27" points="253.5,475.2 253.5,473.4 255.1,474.3 255.1,476.1 				"/>
				<polygon class="st27" points="253.5,478.8 253.5,477 255.1,477.9 255.1,479.7 				"/>
				<polygon class="st27" points="253.5,482.4 253.5,480.6 255.1,481.5 255,483.3 				"/>
				<polygon class="st27" points="253.5,486 253.5,484.2 255,485.1 255,486.9 				"/>
				<polygon class="st27" points="253.5,489.6 253.5,487.8 255,488.7 255,490.5 				"/>
			</g>
			<g>
				<polygon class="st27" points="250.4,459 250.4,457.2 252,458.1 252,459.9 				"/>
				<polygon class="st27" points="250.4,462.6 250.4,460.8 252,461.7 252,463.5 				"/>
				<polygon class="st55" points="250.4,466.2 250.4,464.4 252,465.3 252,467.1 				"/>
				<polygon class="st27" points="250.4,469.8 250.4,468 252,468.9 251.9,470.7 				"/>
				<polygon class="st54" points="250.4,473.4 250.4,471.6 251.9,472.5 251.9,474.3 				"/>
				<polygon class="st27" points="250.4,477 250.4,475.2 251.9,476.1 251.9,477.9 				"/>
				<polygon class="st27" points="250.4,480.6 250.4,478.8 251.9,479.7 251.9,481.5 				"/>
				<polygon class="st27" points="250.4,484.2 250.4,482.4 251.9,483.3 251.9,485.1 				"/>
				<polygon class="st27" points="250.4,487.8 250.4,486 251.9,486.9 251.9,488.7 				"/>
			</g>
			<g>
				<polygon class="st27" points="247.3,457.2 247.3,455.4 248.8,456.3 248.8,458.1 				"/>
				<polygon class="st27" points="247.3,460.8 247.3,459 248.8,459.9 248.8,461.7 				"/>
				<polygon class="st55" points="247.3,464.4 247.3,462.6 248.8,463.5 248.8,465.3 				"/>
				<polygon class="st27" points="247.3,468 247.3,466.2 248.8,467.1 248.8,468.9 				"/>
				<polygon class="st27" points="247.3,471.6 247.3,469.8 248.8,470.7 248.8,472.5 				"/>
				<polygon class="st54" points="247.2,475.2 247.3,473.4 248.8,474.3 248.8,476.1 				"/>
				<polygon class="st55" points="247.2,478.8 247.2,477 248.8,477.9 248.8,479.7 				"/>
				<polygon class="st27" points="247.2,482.4 247.2,480.6 248.8,481.5 248.8,483.3 				"/>
				<polygon class="st54" points="247.2,486 247.2,484.2 248.8,485.1 248.8,486.9 				"/>
			</g>
			<g>
				<polygon class="st27" points="244.2,455.4 244.2,453.6 245.7,454.5 245.7,456.3 				"/>
				<polygon class="st55" points="244.2,459 244.2,457.2 245.7,458.1 245.7,459.9 				"/>
				<polygon class="st27" points="244.1,462.6 244.1,460.8 245.7,461.7 245.7,463.5 				"/>
				<polygon class="st27" points="244.1,466.2 244.1,464.4 245.7,465.3 245.7,467.1 				"/>
				<polygon class="st27" points="244.1,469.8 244.1,468 245.7,468.9 245.7,470.7 				"/>
				<polygon class="st27" points="244.1,473.4 244.1,471.6 245.7,472.5 245.7,474.3 				"/>
				<polygon class="st27" points="244.1,477 244.1,475.2 245.7,476.1 245.7,477.9 				"/>
				<polygon class="st55" points="244.1,480.6 244.1,478.8 245.7,479.7 245.7,481.5 				"/>
				<polygon class="st27" points="244.1,484.2 244.1,482.4 245.7,483.3 245.7,485.1 				"/>
			</g>
			<g>
				<polygon class="st27" points="241,453.6 241,451.8 242.6,452.7 242.6,454.5 				"/>
				<polygon class="st54" points="241,457.2 241,455.4 242.6,456.3 242.6,458.1 				"/>
				<polygon class="st27" points="241,460.8 241,459 242.6,459.9 242.6,461.7 				"/>
				<polygon class="st27" points="241,464.4 241,462.6 242.6,463.5 242.6,465.3 				"/>
				<polygon class="st27" points="241,468 241,466.2 242.6,467.1 242.6,468.9 				"/>
				<polygon class="st27" points="241,471.6 241,469.8 242.6,470.7 242.6,472.5 				"/>
				<polygon class="st55" points="241,475.2 241,473.4 242.5,474.3 242.5,476.1 				"/>
				<polygon class="st27" points="241,478.8 241,477 242.5,477.9 242.5,479.7 				"/>
				<polygon class="st27" points="241,482.4 241,480.6 242.5,481.5 242.5,483.3 				"/>
			</g>
		</g>
		<g>
			<g>
				<polygon class="st27" points="266,429.7 266.1,427.9 267.6,428.8 267.6,430.6 				"/>
				<polygon class="st54" points="266,433.3 266,431.5 267.6,432.4 267.6,434.2 				"/>
				<polygon class="st55" points="266,436.9 266,435.1 267.6,436 267.6,437.8 				"/>
				<polygon class="st27" points="266,440.5 266,438.7 267.6,439.6 267.6,441.4 				"/>
				<polygon class="st55" points="266,444.1 266,442.3 267.6,443.2 267.6,445 				"/>
				<polygon class="st27" points="266,447.7 266,445.9 267.6,446.8 267.6,448.6 				"/>
				<polygon class="st27" points="266,451.3 266,449.5 267.6,450.4 267.6,452.2 				"/>
				<polygon class="st27" points="266,454.9 266,453.1 267.6,454 267.5,455.8 				"/>
				<polygon class="st54" points="266,458.5 266,456.7 267.5,457.6 267.5,459.4 				"/>
			</g>
			<g>
				<polygon class="st27" points="262.9,427.9 262.9,426.1 264.5,427 264.5,428.8 				"/>
				<polygon class="st27" points="262.9,431.5 262.9,429.7 264.5,430.6 264.5,432.4 				"/>
				<polygon class="st27" points="262.9,435.1 262.9,433.3 264.5,434.2 264.5,436 				"/>
				<polygon class="st27" points="262.9,438.7 262.9,436.9 264.5,437.8 264.5,439.6 				"/>
				<polygon class="st27" points="262.9,442.3 262.9,440.5 264.4,441.4 264.4,443.2 				"/>
				<polygon class="st27" points="262.9,445.9 262.9,444.1 264.4,445 264.4,446.8 				"/>
				<polygon class="st27" points="262.9,449.5 262.9,447.7 264.4,448.6 264.4,450.4 				"/>
				<polygon class="st27" points="262.9,453.1 262.9,451.3 264.4,452.2 264.4,454 				"/>
				<polygon class="st27" points="262.9,456.7 262.9,454.9 264.4,455.8 264.4,457.6 				"/>
			</g>
			<g>
				<polygon class="st27" points="259.8,426.1 259.8,424.3 261.4,425.2 261.4,427 				"/>
				<polygon class="st27" points="259.8,429.7 259.8,427.9 261.3,428.8 261.3,430.6 				"/>
				<polygon class="st27" points="259.8,433.3 259.8,431.5 261.3,432.4 261.3,434.2 				"/>
				<polygon class="st54" points="259.8,436.9 259.8,435.1 261.3,436 261.3,437.8 				"/>
				<polygon class="st55" points="259.8,440.5 259.8,438.7 261.3,439.6 261.3,441.4 				"/>
				<polygon class="st55" points="259.8,444.1 259.8,442.3 261.3,443.2 261.3,445 				"/>
				<polygon class="st27" points="259.7,447.7 259.7,445.9 261.3,446.8 261.3,448.6 				"/>
				<polygon class="st27" points="259.7,451.3 259.7,449.5 261.3,450.4 261.3,452.2 				"/>
				<polygon class="st27" points="259.7,454.9 259.7,453.1 261.3,454 261.3,455.8 				"/>
			</g>
			<g>
				<polygon class="st55" points="256.7,424.2 256.7,422.4 258.2,423.4 258.2,425.2 				"/>
				<polygon class="st55" points="256.7,427.8 256.7,426 258.2,427 258.2,428.8 				"/>
				<polygon class="st54" points="256.7,431.4 256.7,429.6 258.2,430.6 258.2,432.4 				"/>
				<polygon class="st27" points="256.6,435 256.6,433.2 258.2,434.2 258.2,436 				"/>
				<polygon class="st27" points="256.6,438.6 256.6,436.8 258.2,437.8 258.2,439.6 				"/>
				<polygon class="st27" points="256.6,442.2 256.6,440.4 258.2,441.4 258.2,443.2 				"/>
				<polygon class="st55" points="256.6,445.9 256.6,444.1 258.2,445 258.2,446.8 				"/>
				<polygon class="st27" points="256.6,449.5 256.6,447.7 258.2,448.6 258.2,450.4 				"/>
				<polygon class="st27" points="256.6,453.1 256.6,451.3 258.2,452.2 258.2,454 				"/>
			</g>
			<g>
				<polygon class="st27" points="253.5,422.4 253.5,420.6 255.1,421.5 255.1,423.3 				"/>
				<polygon class="st27" points="253.5,426 253.5,424.2 255.1,425.1 255.1,426.9 				"/>
				<polygon class="st27" points="253.5,429.6 253.5,427.8 255.1,428.7 255.1,430.5 				"/>
				<polygon class="st27" points="253.5,433.2 253.5,431.4 255.1,432.3 255.1,434.1 				"/>
				<polygon class="st27" points="253.5,436.8 253.5,435 255.1,435.9 255.1,437.7 				"/>
				<polygon class="st27" points="253.5,440.4 253.5,438.6 255.1,439.5 255.1,441.3 				"/>
				<polygon class="st27" points="253.5,444 253.5,442.2 255.1,443.1 255,444.9 				"/>
				<polygon class="st27" points="253.5,447.6 253.5,445.8 255,446.7 255,448.5 				"/>
				<polygon class="st27" points="253.5,451.2 253.5,449.4 255,450.3 255,452.1 				"/>
			</g>
			<g>
				<polygon class="st27" points="250.4,420.6 250.4,418.8 252,419.7 252,421.5 				"/>
				<polygon class="st27" points="250.4,424.2 250.4,422.4 252,423.3 252,425.1 				"/>
				<polygon class="st55" points="250.4,427.8 250.4,426 252,426.9 252,428.7 				"/>
				<polygon class="st27" points="250.4,431.4 250.4,429.6 252,430.5 251.9,432.3 				"/>
				<polygon class="st54" points="250.4,435 250.4,433.2 251.9,434.1 251.9,435.9 				"/>
				<polygon class="st27" points="250.4,438.6 250.4,436.8 251.9,437.7 251.9,439.5 				"/>
				<polygon class="st27" points="250.4,442.2 250.4,440.4 251.9,441.3 251.9,443.1 				"/>
				<polygon class="st27" points="250.4,445.8 250.4,444 251.9,444.9 251.9,446.7 				"/>
				<polygon class="st27" points="250.4,449.4 250.4,447.6 251.9,448.5 251.9,450.3 				"/>
			</g>
			<g>
				<polygon class="st27" points="247.3,418.8 247.3,417 248.8,417.9 248.8,419.7 				"/>
				<polygon class="st27" points="247.3,422.4 247.3,420.6 248.8,421.5 248.8,423.3 				"/>
				<polygon class="st55" points="247.3,426 247.3,424.2 248.8,425.1 248.8,426.9 				"/>
				<polygon class="st27" points="247.3,429.6 247.3,427.8 248.8,428.7 248.8,430.5 				"/>
				<polygon class="st27" points="247.3,433.2 247.3,431.4 248.8,432.3 248.8,434.1 				"/>
				<polygon class="st54" points="247.2,436.8 247.3,435 248.8,435.9 248.8,437.7 				"/>
				<polygon class="st55" points="247.2,440.4 247.2,438.6 248.8,439.5 248.8,441.3 				"/>
				<polygon class="st27" points="247.2,444 247.2,442.2 248.8,443.1 248.8,444.9 				"/>
				<polygon class="st54" points="247.2,447.6 247.2,445.8 248.8,446.7 248.8,448.5 				"/>
			</g>
			<g>
				<polygon class="st27" points="244.2,417 244.2,415.2 245.7,416.1 245.7,417.9 				"/>
				<polygon class="st55" points="244.2,420.6 244.2,418.8 245.7,419.7 245.7,421.5 				"/>
				<polygon class="st27" points="244.1,424.2 244.1,422.4 245.7,423.3 245.7,425.1 				"/>
				<polygon class="st27" points="244.1,427.8 244.1,426 245.7,426.9 245.7,428.7 				"/>
				<polygon class="st27" points="244.1,431.4 244.1,429.6 245.7,430.5 245.7,432.3 				"/>
				<polygon class="st27" points="244.1,435 244.1,433.2 245.7,434.1 245.7,435.9 				"/>
				<polygon class="st27" points="244.1,438.6 244.1,436.8 245.7,437.7 245.7,439.5 				"/>
				<polygon class="st55" points="244.1,442.2 244.1,440.4 245.7,441.3 245.7,443.1 				"/>
				<polygon class="st27" points="244.1,445.8 244.1,444 245.7,444.9 245.7,446.7 				"/>
			</g>
			<g>
				<polygon class="st27" points="241,415.2 241,413.4 242.6,414.3 242.6,416.1 				"/>
				<polygon class="st54" points="241,418.8 241,417 242.6,417.9 242.6,419.7 				"/>
				<polygon class="st27" points="241,422.4 241,420.6 242.6,421.5 242.6,423.3 				"/>
				<polygon class="st27" points="241,426 241,424.2 242.6,425.1 242.6,426.9 				"/>
				<polygon class="st27" points="241,429.6 241,427.8 242.6,428.7 242.6,430.5 				"/>
				<polygon class="st27" points="241,433.2 241,431.4 242.6,432.3 242.6,434.1 				"/>
				<polygon class="st55" points="241,436.8 241,435 242.5,435.9 242.5,437.7 				"/>
				<polygon class="st27" points="241,440.4 241,438.6 242.5,439.5 242.5,441.3 				"/>
				<polygon class="st27" points="241,444 241,442.2 242.5,443.1 242.5,444.9 				"/>
			</g>
		</g>
		<g>
			<g>
				<polygon class="st27" points="266,391.3 266.1,389.5 267.6,390.4 267.6,392.2 				"/>
				<polygon class="st54" points="266,394.9 266,393.1 267.6,394 267.6,395.8 				"/>
				<polygon class="st55" points="266,398.5 266,396.7 267.6,397.6 267.6,399.4 				"/>
				<polygon class="st27" points="266,402.1 266,400.3 267.6,401.2 267.6,403 				"/>
				<polygon class="st55" points="266,405.7 266,403.9 267.6,404.8 267.6,406.6 				"/>
				<polygon class="st27" points="266,409.3 266,407.5 267.6,408.4 267.6,410.2 				"/>
				<polygon class="st27" points="266,412.9 266,411.1 267.6,412 267.6,413.8 				"/>
				<polygon class="st27" points="266,416.5 266,414.7 267.6,415.6 267.5,417.4 				"/>
				<polygon class="st54" points="266,420.1 266,418.3 267.5,419.2 267.5,421 				"/>
			</g>
			<g>
				<polygon class="st27" points="262.9,389.5 262.9,387.7 264.5,388.6 264.5,390.4 				"/>
				<polygon class="st27" points="262.9,393.1 262.9,391.3 264.5,392.2 264.5,394 				"/>
				<polygon class="st27" points="262.9,396.7 262.9,394.9 264.5,395.8 264.5,397.6 				"/>
				<polygon class="st27" points="262.9,400.3 262.9,398.5 264.5,399.4 264.5,401.2 				"/>
				<polygon class="st27" points="262.9,403.9 262.9,402.1 264.4,403 264.4,404.8 				"/>
				<polygon class="st27" points="262.9,407.5 262.9,405.7 264.4,406.6 264.4,408.4 				"/>
				<polygon class="st27" points="262.9,411.1 262.9,409.3 264.4,410.2 264.4,412 				"/>
				<polygon class="st27" points="262.9,414.7 262.9,412.9 264.4,413.8 264.4,415.6 				"/>
				<polygon class="st27" points="262.9,418.3 262.9,416.5 264.4,417.4 264.4,419.2 				"/>
			</g>
			<g>
				<polygon class="st27" points="259.8,387.7 259.8,385.9 261.4,386.8 261.4,388.6 				"/>
				<polygon class="st27" points="259.8,391.3 259.8,389.5 261.3,390.4 261.3,392.2 				"/>
				<polygon class="st27" points="259.8,394.9 259.8,393.1 261.3,394 261.3,395.8 				"/>
				<polygon class="st54" points="259.8,398.5 259.8,396.7 261.3,397.6 261.3,399.4 				"/>
				<polygon class="st55" points="259.8,402.1 259.8,400.3 261.3,401.2 261.3,403 				"/>
				<polygon class="st55" points="259.8,405.7 259.8,403.9 261.3,404.8 261.3,406.6 				"/>
				<polygon class="st27" points="259.7,409.3 259.7,407.5 261.3,408.4 261.3,410.2 				"/>
				<polygon class="st27" points="259.7,412.9 259.7,411.1 261.3,412 261.3,413.8 				"/>
				<polygon class="st27" points="259.7,416.5 259.7,414.7 261.3,415.6 261.3,417.4 				"/>
			</g>
			<g>
				<polygon class="st55" points="256.7,385.9 256.7,384.1 258.2,385 258.2,386.8 				"/>
				<polygon class="st55" points="256.7,389.5 256.7,387.7 258.2,388.6 258.2,390.4 				"/>
				<polygon class="st54" points="256.7,393.1 256.7,391.3 258.2,392.2 258.2,394 				"/>
				<polygon class="st27" points="256.6,396.7 256.6,394.9 258.2,395.8 258.2,397.6 				"/>
				<polygon class="st27" points="256.6,400.3 256.6,398.5 258.2,399.4 258.2,401.2 				"/>
				<polygon class="st27" points="256.6,403.9 256.6,402.1 258.2,403 258.2,404.8 				"/>
				<polygon class="st55" points="256.6,407.5 256.6,405.7 258.2,406.6 258.2,408.4 				"/>
				<polygon class="st27" points="256.6,411.1 256.6,409.3 258.2,410.2 258.2,412 				"/>
				<polygon class="st27" points="256.6,414.7 256.6,412.9 258.2,413.8 258.2,415.6 				"/>
			</g>
			<g>
				<polygon class="st27" points="253.5,384.1 253.5,382.3 255.1,383.2 255.1,385 				"/>
				<polygon class="st27" points="253.5,387.7 253.5,385.9 255.1,386.8 255.1,388.6 				"/>
				<polygon class="st27" points="253.5,391.3 253.5,389.5 255.1,390.4 255.1,392.2 				"/>
				<polygon class="st27" points="253.5,394.9 253.5,393.1 255.1,394 255.1,395.8 				"/>
				<polygon class="st27" points="253.5,398.5 253.5,396.7 255.1,397.6 255.1,399.4 				"/>
				<polygon class="st27" points="253.5,402.1 253.5,400.3 255.1,401.2 255.1,403 				"/>
				<polygon class="st27" points="253.5,405.7 253.5,403.9 255.1,404.8 255,406.6 				"/>
				<polygon class="st27" points="253.5,409.3 253.5,407.5 255,408.4 255,410.2 				"/>
				<polygon class="st27" points="253.5,412.9 253.5,411.1 255,412 255,413.8 				"/>
			</g>
			<g>
				<polygon class="st27" points="250.4,382.2 250.4,380.4 252,381.3 252,383.1 				"/>
				<polygon class="st27" points="250.4,385.8 250.4,384 252,384.9 252,386.7 				"/>
				<polygon class="st55" points="250.4,389.4 250.4,387.6 252,388.5 252,390.3 				"/>
				<polygon class="st27" points="250.4,393 250.4,391.2 252,392.1 251.9,393.9 				"/>
				<polygon class="st54" points="250.4,396.6 250.4,394.8 251.9,395.7 251.9,397.5 				"/>
				<polygon class="st27" points="250.4,400.2 250.4,398.4 251.9,399.3 251.9,401.1 				"/>
				<polygon class="st27" points="250.4,403.8 250.4,402 251.9,402.9 251.9,404.7 				"/>
				<polygon class="st27" points="250.4,407.4 250.4,405.6 251.9,406.5 251.9,408.3 				"/>
				<polygon class="st27" points="250.4,411 250.4,409.2 251.9,410.1 251.9,411.9 				"/>
			</g>
			<g>
				<polygon class="st27" points="247.3,380.4 247.3,378.6 248.8,379.5 248.8,381.3 				"/>
				<polygon class="st27" points="247.3,384 247.3,382.2 248.8,383.1 248.8,384.9 				"/>
				<polygon class="st55" points="247.3,387.6 247.3,385.8 248.8,386.7 248.8,388.5 				"/>
				<polygon class="st27" points="247.3,391.2 247.3,389.4 248.8,390.3 248.8,392.1 				"/>
				<polygon class="st27" points="247.3,394.8 247.3,393 248.8,393.9 248.8,395.7 				"/>
				<polygon class="st54" points="247.2,398.4 247.3,396.6 248.8,397.5 248.8,399.3 				"/>
				<polygon class="st55" points="247.2,402 247.2,400.2 248.8,401.1 248.8,402.9 				"/>
				<polygon class="st27" points="247.2,405.6 247.2,403.8 248.8,404.7 248.8,406.5 				"/>
				<polygon class="st54" points="247.2,409.2 247.2,407.4 248.8,408.3 248.8,410.1 				"/>
			</g>
			<g>
				<polygon class="st27" points="244.2,378.6 244.2,376.8 245.7,377.7 245.7,379.5 				"/>
				<polygon class="st55" points="244.2,382.2 244.2,380.4 245.7,381.3 245.7,383.1 				"/>
				<polygon class="st27" points="244.1,385.8 244.1,384 245.7,384.9 245.7,386.7 				"/>
				<polygon class="st27" points="244.1,389.4 244.1,387.6 245.7,388.5 245.7,390.3 				"/>
				<polygon class="st27" points="244.1,393 244.1,391.2 245.7,392.1 245.7,393.9 				"/>
				<polygon class="st27" points="244.1,396.6 244.1,394.8 245.7,395.7 245.7,397.5 				"/>
				<polygon class="st27" points="244.1,400.2 244.1,398.4 245.7,399.3 245.7,401.1 				"/>
				<polygon class="st55" points="244.1,403.8 244.1,402 245.7,402.9 245.7,404.7 				"/>
				<polygon class="st27" points="244.1,407.4 244.1,405.6 245.7,406.5 245.7,408.3 				"/>
			</g>
			<g>
				<polygon class="st27" points="241,376.8 241,375 242.6,375.9 242.6,377.7 				"/>
				<polygon class="st54" points="241,380.4 241,378.6 242.6,379.5 242.6,381.3 				"/>
				<polygon class="st27" points="241,384 241,382.2 242.6,383.1 242.6,384.9 				"/>
				<polygon class="st27" points="241,387.6 241,385.8 242.6,386.7 242.6,388.5 				"/>
				<polygon class="st27" points="241,391.2 241,389.4 242.6,390.3 242.6,392.1 				"/>
				<polygon class="st27" points="241,394.8 241,393 242.6,393.9 242.6,395.7 				"/>
				<polygon class="st55" points="241,398.4 241,396.6 242.5,397.5 242.5,399.3 				"/>
				<polygon class="st27" points="241,402 241,400.2 242.5,401.1 242.5,402.9 				"/>
				<polygon class="st27" points="241,405.6 241,403.8 242.5,404.7 242.5,406.5 				"/>
			</g>
		</g>
	</g>
	<g>
		<g id="XMLID_1498_">
			<path id="XMLID_1499_" class="st56" d="M765.4,421.7c1.1-40.6-2.2-50.3-13-57.7l-4.2,23.5c0,0,4.9,27.7,4.4,36.9
				c-0.5,8.1-1.3,18.2-3.2,24.8c-0.3,1.2-1.1,2.1-2.1,2.8c-2.8,1.7-3.9,3.5-5.9,5.7c-1.6,1.7-3,2.1-2.8,2.7c0.3,0.7,1.4,1.8,3.4,1.2
				c1-0.3,2.3-1.1,3.9-2.1c0,0-1.2,3.4-4,6.9c-3.9,4.7-4,7.6,3.8,7.7c4.9,0,8.8-3,12.4-13.7c1.1-3.1,2.7-8,3.4-12.1
				C763.4,437.5,765.2,428.2,765.4,421.7z"/>
		</g>
		<path id="XMLID_1497_" class="st57" d="M743.3,360.9c5.2-0.7,12.2,0.3,16.7,8.4c4.5,8.1,5.6,22,6.2,35.9c0,0-9,7.5-19.8,3.8
			L743.3,360.9z"/>
		<path id="XMLID_8_" class="st58" d="M743.3,360.9c5.2-0.7,12.2,0.3,16.7,8.4c4.5,8.1,5.6,22,6.2,35.9c0,0-9,7.5-19.8,3.8
			L743.3,360.9z"/>
		<g id="XMLID_1482_">
			<g id="XMLID_1493_">
				<path id="XMLID_1494_" class="st5" d="M758.5,584c0.8,0.3,1,1.9,1.1,5c0.1,2.3,0.6,6.4-2.2,7.3c-2.7,0.8-6.8,0.4-8.5-1.8
					c-2.2-2.8-3.7-5.2-6.8-8.6c-2.7-2.9-5.7-5.6-6.8-9.7c-1-3.7-0.2-5.3,2.4-6.4c3.5-1.5,8.9,3.4,11.7,4.1
					C751.8,574.5,757.7,583.7,758.5,584z"/>
			</g>
			<g id="XMLID_1491_">
				<path id="XMLID_1492_" class="st56" d="M758.5,581.1v3.8c0,0-4,3-9.6,0.3c-0.2-0.4-1-5.4-1-5.4L758.5,581.1z"/>
			</g>
			<g id="XMLID_1489_">
				<path id="XMLID_1490_" class="st5" d="M727.7,605.9c0,0,1.1,3.3,1.7,6.2c0.5,2.3,1.1,6.1,0.3,7.9c-0.8,1.7-3.9,2.8-8.8,2.8
					c-3.2,0-8.1,2.1-11.4,4c-3.5,1.9-10.7,2.7-14.4,2.3c-4.3-0.5-8.8-3-9.5-4.8c-0.7-1.8,0.2-3.7,10.4-8c0.1,0,14.2-4.6,19.1-10.1
					L727.7,605.9z"/>
			</g>
			<g id="XMLID_1487_">
				<path id="XMLID_1488_" class="st56" d="M727.7,601.8c0,0,0,2.8,0,4.4c0,1.6-1.9,4-6.8,3.8c-3.5-0.1-5.9-1.1-5.7-3.9V602
					L727.7,601.8z"/>
			</g>
			<g id="XMLID_1485_">
				<path id="XMLID_1486_" class="st4" d="M761,530.6c-1.7-12.4-4.5-19.8-4.5-19.8s1.4-17.1,2-33.3c0.7-17.5,0-39.5,0.3-43.9
					c0,0-56.5-11.4-57.5,8.8c-1,20.2,2.2,71.8,2.9,80.7c0.7,8.9,2.2,16.8,4,31.2c1.8,14.2,6.9,47.8,6.9,47.8
					c6.5,3.5,12.6-0.3,12.6-0.3s4-40.5,3.6-50.7c-0.5-12.5-3.9-22.4-3.9-22.4s1.1-16.7,2-31.2c0.9-14.5,1.9-21.5,2.2-27.8l1.2-0.6
					c0,0,1.2,25.1,1.9,33.9c0.7,8.9,2.1,17.4,4.7,33.9c2.2,14.3,8.9,44.7,8.9,44.7c6.5,3.5,10.3-0.5,10.3-0.5S762.7,543,761,530.6z"
					/>
			</g>
			<g id="XMLID_1483_">
				<path id="XMLID_1484_" class="st5" d="M731.5,469.6c0,0,13.7-6.8,20.6-12.9c0,0-6.4,9-14.7,13c0,0-3,31.1-3,30.5l-1.7-30.7
					L731.5,469.6z"/>
			</g>
		</g>
		<g id="XMLID_1479_">
			<g id="XMLID_1480_">
				<polygon id="XMLID_1481_" class="st56" points="719.3,354.4 722.7,372.9 739.3,371.6 735.8,350.8 				"/>
			</g>
		</g>
		<g id="XMLID_1476_">
			<g id="XMLID_1477_">
				<path id="XMLID_1478_" class="st57" d="M756.9,370.3c-1.6-5-8-10.5-14.4-9.3c-11.7,2.2-20.9,4.5-27.8,6.9
					c-5.8,2.1-11.1,7.1-11.6,26.2c0,0-1.9,44.6-2,53.2c14.6,5.8,29.8,5.6,38.2,3.8c17.5-3.8,19.6-11.1,19.6-11.1s0.2-32.1-0.3-45.9
					C758.2,382.4,758,373.7,756.9,370.3z"/>
			</g>
		</g>
		<g id="XMLID_4_" class="st59">
			<g id="XMLID_5_">
				<path id="XMLID_6_" class="st11" d="M756.9,370.3c-1.6-5-8-10.5-14.4-9.3c-11.7,2.2-20.9,4.5-27.8,6.9
					c-5.8,2.1-11.1,7.1-11.6,26.2c0,0-1.9,44.6-2,53.2c14.6,5.8,29.8,5.6,38.2,3.8c17.5-3.8,19.6-11.1,19.6-11.1s0.2-32.1-0.3-45.9
					C758.2,382.4,758,373.7,756.9,370.3z"/>
			</g>
		</g>
		<g id="XMLID_1471_">
			<g id="XMLID_1474_">
				<path id="XMLID_1475_" class="st60" d="M706.5,332.1c0,0-4.2,6.7-3.7,7.4c0.5,0.6,3.7,1.2,3.7,1.2L706.5,332.1z"/>
			</g>
			<g id="XMLID_1472_">
				<path id="XMLID_1473_" class="st56" d="M718.2,313.5c-8.8,2.1-11.3,6-11.8,20.1c-0.5,14.7,1.1,19.3,3,21.2
					c1.3,1.3,8.6,1.4,12.2,0.3c4.5-1.4,14.8-5.2,19.4-12.7c5.5-8.8,6.7-20.6,0.5-25.3C732.9,310.4,721.8,312.6,718.2,313.5z"/>
			</g>
		</g>
		<g id="XMLID_1263_">
			<g id="XMLID_1468_">
				<g id="XMLID_1469_">
					<path id="XMLID_1470_" class="st5" d="M706.5,317.1c2.6,4.4,8.2,6.5,8.2,6.5c1.7,1.9,0.8,9.4,3.7,10.6c0,0,1.3-5.5,5.9-4.9
						c4.6,0.6,5.4,6.4,2.5,10.1c-2.8,3.6-5.6,2.3-5.6,2.3s0.3,7.7,3.8,12.1c0,0,3.9,1.2,11.1-0.5c4.4-1,10.5-6.7,13-12.6
						c5.3-12.5,5.4-23.6-2.6-26.8c-1-5.7-5.5-8.1-10.7-9.2c-11.1-2.3-18.2,4.6-26.7,4C704.4,308.4,703.5,311.9,706.5,317.1z"/>
				</g>
			</g>
			<g id="XMLID_1264_">
				<g id="XMLID_1265_">
					<path id="XMLID_1467_" class="st5" d="M746.9,315.8l5.2-3.2c-0.9-1.4-2.8-1.9-4.2-1C746.4,312.5,746,314.4,746.9,315.8z"/>
				</g>
			</g>
		</g>
		<path id="XMLID_1259_" class="st56" d="M644.4,401.1c2.7,1.2,34.9,25,40,22.3c5-2.8,30.8-32.9,30.8-32.9c7.5-12.4,0-22.6,0-22.6
			s-8.3,1.5-12.6,8.1c-4.3,6.5-23,30-23,30c-4.6-2.3-9.2-4.6-13.8-7c-3.8-2-7.6-3.9-11.3-6c-0.9-0.5-2.1-1-2.9-1.8
			c-1.8-1.8-1.5-6.2-1.5-8.5c0-1.1,0-2.2,0.2-3.3c0.2-1.4,0.4-4.7-2-3.6c-0.5,0.2-0.9,0.6-1.2,1c-0.4,0.5-0.7,1.1-0.9,1.7
			c-0.5,1.4-0.3,3-0.7,4.4c-0.1,0.2-0.1,0.4-0.3,0.6c-0.2,0.2-0.5,0.2-0.8,0.2c-3.6-0.1-6.9-5.1-8.5-7.7c-0.7-1.2-1.4-2.5-2.7-3.1
			c-1.9-0.9-4.3,0.4-5.5,2.1c-1.6,2.2-2.1,5.1-1.8,7.8c0.4,3.8,1.9,7.2,4.6,9.8C634.7,396.4,639.2,398.8,644.4,401.1z"/>
		<path id="XMLID_1240_" class="st57" d="M717.8,366.9c-3.6,0.4-9.5,0.7-15.2,7.2c-6.8,7.7-15.7,20.2-15.7,20.2s2.4,12.1,15.6,14.7
			c0,0,12.2-12.5,15.6-19.4C721.4,382.7,722,371.6,717.8,366.9z"/>
		<path id="XMLID_7_" class="st58" d="M717.8,366.9c-3.6,0.4-9.5,0.7-15.2,7.2c-6.8,7.7-15.7,20.2-15.7,20.2s2.4,12.1,15.6,14.7
			c0,0,12.2-12.5,15.6-19.4C721.4,382.7,722,371.6,717.8,366.9z"/>
	</g>
</g>
</svg>
