<svg xmlns="http://www.w3.org/2000/svg" viewBox="0 0 1857.65 1896.57"><defs><style>.cls-1{isolation:isolate;}.cls-2{fill:#098eb7;}.cls-3{fill:#2957a5;}.cls-4{fill:#00a3e4;}.cls-5{fill:#fff;}.cls-6{fill:#ffdc94;}.cls-7{fill:#eddfd9;}.cls-8{fill:#ded4ce;}.cls-9{fill:#3f444f;opacity:0.24;mix-blend-mode:hard-light;}.cls-10{fill:#ff7e55;}.cls-11{fill:#e66947;}.cls-12{fill:#494f5c;}.cls-13{fill:#c2c2c2;opacity:0.3;}.cls-14{fill:#eea886;}.cls-15{fill:#2c5396;}.cls-16{fill:#202338;}.cls-17{fill:#81807e;}.cls-18{fill:#292c47;}.cls-19{fill:#d8d5e0;}.cls-20{fill:#5d676c;}.cls-21{fill:#7f827f;}.cls-22{fill:#b4b1ba;}.cls-23{fill:#eae6f2;}.cls-24{fill:#1f3b6b;}.cls-25{fill:#323657;}.cls-26{fill:#a77860;}</style></defs><title>CA</title><g class="cls-1"><g id="Слой_1" data-name="Слой 1"><path class="cls-2" d="M1850.05,443.28H1157.5c-177.63,11.82-176.85,207.5-176.85,207.5h0v935.06h693.41V650.78S1677.35,454.45,1850.05,443.28Z" transform="translate(-356.71 -82.51)"/><rect class="cls-3" x="575.63" y="580.09" width="8" height="719.68"/><path class="cls-3" d="M1731.81,333.57h-423V99.25h423Zm-415-8h407V107.25h-407Z" transform="translate(-356.71 -82.51)"/><path class="cls-3" d="M940.33,578h-423V283.22h423Zm-415-8h407V291.22h-407Z" transform="translate(-356.71 -82.51)"/><path class="cls-3" d="M2138.92,1047.89h-423V812.69h423Zm-415-8h407V820.69h-407Z" transform="translate(-356.71 -82.51)"/><path class="cls-4" d="M1822.36,430.59c-172.7,11.16-176,207.5-176,207.5v935.06H953V638.09s-.79-195.68,176.85-207.5Z" transform="translate(-356.71 -82.51)"/><rect class="cls-5" x="687.32" y="592.35" width="476.28" height="42.02"/><rect class="cls-5" x="687.32" y="689.53" width="406.68" height="29.77"/><rect class="cls-5" x="687.32" y="768.11" width="204.44" height="44.21"/><rect class="cls-5" x="952.16" y="768.11" width="211.44" height="44.21"/><rect class="cls-5" x="687.32" y="853.26" width="325.69" height="31.52"/><rect class="cls-5" x="687.32" y="932.05" width="366.95" height="17.51"/><rect class="cls-5" x="687.32" y="1010.85" width="441.26" height="17.51"/><path class="cls-6" d="M1250,1270H1042.52v-99.31H1250Zm-204.44-3H1247v-93.31H1045.52Z" transform="translate(-356.71 -82.51)"/><rect class="cls-5" x="942.97" y="1089.65" width="185.61" height="22.76"/><rect class="cls-5" x="942.97" y="1137.8" width="131.56" height="22.76"/><rect class="cls-5" x="687.32" y="1247.24" width="396.83" height="17.51"/><rect class="cls-5" x="687.32" y="1326.04" width="209.03" height="17.51"/><path class="cls-4" d="M1838.71,1014.53a83.77,83.77,0,1,1,83.77-83.77A83.86,83.86,0,0,1,1838.71,1014.53Zm0-155.57a71.8,71.8,0,1,0,71.8,71.8A71.88,71.88,0,0,0,1838.71,859Z" transform="translate(-356.71 -82.51)"/><polygon class="cls-3" points="1129.46 109.38 1130.9 140.29 1143.16 139.72 1140.75 87.87 1087.8 90.33 1088.37 102.6 1120.38 101.11 1063.95 163.04 1005.24 109.56 996.97 118.64 1064.76 180.4 1129.46 109.38"/><rect class="cls-7" x="376.95" y="284.62" width="166.13" height="23.64"/><rect class="cls-7" x="376.95" y="336.26" width="130.58" height="23.64"/><rect class="cls-7" x="376.95" y="387.9" width="146.51" height="23.64"/><rect class="cls-8" x="1586.04" y="810.14" width="118.7" height="23.64"/><rect class="cls-8" x="1586.04" y="861.79" width="133.19" height="23.64"/><rect class="cls-8" x="1178.92" y="70.43" width="151.03" height="23.64"/><rect class="cls-8" x="1178.92" y="122.08" width="118.7" height="23.64"/><rect class="cls-8" x="1178.92" y="173.72" width="133.19" height="23.64"/><polygon class="cls-8" points="1469.66 1121.66 1341.33 1121.66 1341.33 1113.66 1461.66 1113.66 1461.66 970.58 1469.66 970.58 1469.66 1121.66"/><polygon class="cls-8" points="854.16 334.06 846.16 334.06 846.16 292.44 1124.58 292.44 1124.58 263.15 1132.58 263.15 1132.58 300.44 854.16 300.44 854.16 334.06"/><polygon class="cls-8" points="543.08 825.09 397.02 825.09 397.02 510.05 405.02 510.05 405.02 817.09 543.08 817.09 543.08 825.09"/><path class="cls-3" d="M1698.12,779.7h-8V684.49c-.11-1.58-10.26-184.21,143.84-210.79l1.36,7.88C1688.23,507,1698,682.46,1698.12,684.23Z" transform="translate(-356.71 -82.51)"/><polygon class="cls-3" points="1802.57 880.17 1794.57 880.17 1794.57 718.7 1621.28 718.7 1621.28 710.7 1802.57 710.7 1802.57 880.17"/><polygon class="cls-3" points="302.63 519.48 138.09 519.48 138.09 364.45 146.09 364.45 146.09 511.48 302.63 511.48 302.63 519.48"/><polygon class="cls-3" points="940.99 122.08 932.99 122.08 932.99 0 1137.19 0 1137.19 8 940.99 8 940.99 122.08"/><polygon class="cls-3" points="1345.33 1530.86 1195.56 1530.86 1195.56 1522.86 1337.33 1522.86 1337.33 1295.72 1345.33 1295.72 1345.33 1530.86"/><path class="cls-5" d="M1587.38,1454.7H1457V1324.28h130.42Zm-118.42-12h106.42V1336.28H1469Z" transform="translate(-356.71 -82.51)"/><polygon class="cls-5" points="1167.53 1334.05 1121.72 1290.88 1135.44 1276.32 1168.43 1307.42 1240.43 1248.27 1253.12 1263.72 1167.53 1334.05"/><path class="cls-9" d="M1449.54,1109.72c-97.84-168.49-313.77-225.78-482.29-127.91a353.72,353.72,0,0,0-47.3,32.86v80.92a294.38,294.38,0,0,1,76.41-63.7c140.84-81.79,321.31-33.91,403.1,106.93a293.54,293.54,0,0,1,39.71,136.9c.13,3.65.21,7.28.21,10.93,0,101.65-52.61,200.56-146.85,255.28-125.29,72.73-282,42.89-372.58-63.75v81a348.91,348.91,0,0,0,68.89,44.39h311.22q10.91-5.36,21.56-11.56C1490.12,1494.17,1547.4,1278.24,1449.54,1109.72Z" transform="translate(-356.71 -82.51)"/><rect class="cls-10" x="363.62" y="1669.47" width="570.2" height="96.94" transform="translate(1890.21 2539.83) rotate(140.19)"/><rect class="cls-11" x="864.2" y="1488.87" width="30.46" height="73.58" transform="translate(2175.05 2052.14) rotate(140.19)"/><path class="cls-12" d="M840.07,1457.88c97.85,168.51,313.78,225.78,482.29,127.93s225.78-313.78,127.93-482.29S1136.5,877.73,968,975.59,742.21,1289.37,840.07,1457.88Zm50.1-29.1a294.88,294.88,0,0,1,106.92-403.09c140.84-81.79,321.31-33.91,403.09,106.92a293.6,293.6,0,0,1,39.73,136.89h0c3.92,105.43-49,209.51-146.64,266.2C1152.42,1617.49,972,1569.62,890.17,1428.78Z" transform="translate(-356.71 -82.51)"/><path class="cls-13" d="M864,1191.73s307.11-233.19,575.88,77.77h0a293.6,293.6,0,0,0-39.73-136.89c-81.79-140.83-262.25-188.7-403.09-106.92A293.8,293.8,0,0,0,864,1191.73Z" transform="translate(-356.71 -82.51)"/><path class="cls-14" d="M703.57,1264.15a241.39,241.39,0,0,1-7.91,28.18c-2.46,6.94-3.67,52.46-3.42,58.36.21,4.94,3.26,2,4.82-1.24.89-1.87,3.67-17.61,6.39-26,2.28-7,4.25-9.65,5.4-7.38s3.25,31.53.75,44,.11,41.3,6.24,37.14,20.49-56.26,19.28-75.87-7.75-44.21-7.75-44.21Z" transform="translate(-356.71 -82.51)"/><path class="cls-15" d="M709.32,1290.53s-20-142.76-25.32-169.9c-2.41-12.29-9-42.86-13.21-68-1.38-8.27-2.55-16.79-3.54-25.13a.05.05,0,0,1,0,0c-3.93-33.3-4.94-63.67-4.94-63.67S645,878.52,695.13,873.26c0,0,13.45,4.5,14.24,10.43,3,22.8,10,72.1,10.25,83.78.24,9.49,13.22,105.21,13.41,108.6.37,6.57,3.38,50.92,4.6,70.38,2.86,45.46,3.94,147.12,3.94,147.12Z" transform="translate(-356.71 -82.51)"/><path class="cls-16" d="M725.32,1899s19.37,23.2,39,28.06,33.42,11.06,33.57,24.38-56.59,22.09-79.1,8.66c-33.59-20-37-14-40.72-24s4.47-36.79,4.23-40C682,1892.23,725.32,1899,725.32,1899Z" transform="translate(-356.71 -82.51)"/><path class="cls-16" d="M527.7,1905.09s14.25,22.6,33.31,27.81c18.79,5.14,31,14.92,31.89,27.86s-44.31,29.88-76.09,7.15c-20.88-14.94-28.67-14.09-32.88-23.57s2.2-36.09,1.78-39.17C485.2,1901.37,527.7,1905.09,527.7,1905.09Z" transform="translate(-356.71 -82.51)"/><path class="cls-17" d="M723.14,1887.94s2.56,10.87,2.18,11.1-44.31,5.85-43-2.88c1.08-7.07,2.61-14.76,2.61-14.76Z" transform="translate(-356.71 -82.51)"/><path class="cls-17" d="M527.11,1893.91s.94,10.93.58,11.17-42.23,8.7-42,.09c.2-6.84,2.65-15.35,2.65-15.35Z" transform="translate(-356.71 -82.51)"/><path class="cls-18" d="M683.19,1237.26s16,166.47,24.29,223.46c9.72,66.63,13,121.68,15.72,156.17,3.41,43.38,4.07,256.75,6.45,269.44s-52.92,3.5-52.92,3.5-27.21-278.8-37.36-325c-9.45-43-44.53-228.21-53.15-216.46s-19.32,216.12-25.7,250-25.81,299.52-25.81,299.52-44,9.4-55.73-1.23c0,0-5.33-228.89-1.26-292.49,1.55-24.24-26.47-290.64,9.46-397.88C506.16,1149.65,683.19,1237.26,683.19,1237.26Z" transform="translate(-356.71 -82.51)"/><path class="cls-19" d="M409.35,1260.89s26.94,8.78,38.22,6.55,5.58-150.74,6-181.65c.34-25.07,13.13-91.25,13.13-91.25a.52.52,0,0,0,0,.11.11.11,0,0,1,0,.07s0,.07,0,.11c1.27,5,18.52,73.64,19.12,106.63.63,34.25-4.16,165.25-4.16,165.25l42.88,21.67L672.87,1293l21.6.35s-3.41-77.66-4.67-104.26c-.79-16.91-3.85-47.19-3.06-76.68,0,0-.5-31.09,2.38-44.48.31-59.09,3.65-117.62,3.65-117.62q2.77-40.19,3.87-75.21c-6-3.42-13.27-7.42-19.07-10.38-17.94-9.16-42.93-21.5-59-29.4-9.4-4.63-18.59-8-18.59-8s-64.1-6.59-69.3-6.24c-1.64.11-9.65,3.1-20.16,7.4C487.81,837.7,444,856.54,437,861.92c-10.24,7.86-31.87,194.65-32.85,207.72C402.4,1093.2,409.35,1260.89,409.35,1260.89Z" transform="translate(-356.71 -82.51)"/><path class="cls-14" d="M531,820.89c4.71,46.35,52.68,46.35,52.68,46.35s19.85-18.63,19.22-32.43c0-.3,0-.61-.07-.9-.29-2.54-3-5.69-3.25-10.78,0-.69-.05-1.4-.07-2.11s0-1.38,0-2.06c0-3.52.2-7,.39-9.42.07-.85.13-1.57.19-2.14.08-.85.13-1.34.13-1.34s-7.74-8.74-17.56-19.16c-17.17-18.21-40.79-41.55-40.83-32.28a9.37,9.37,0,0,0,.21,1.76C546.21,777.28,531,820.89,531,820.89Z" transform="translate(-356.71 -82.51)"/><path class="cls-20" d="M535.51,1203.68s-3.88,26.27-4.22,33.12l-8.23-1.76s2.27-27.8,3.6-32.46Z" transform="translate(-356.71 -82.51)"/><path class="cls-21" d="M400.83,1356.69s2.52-36.84,11.7-42.41,3.76,5.74,3.76,5.74-5.49,26.68-6.77,37.49C409.45,1358,400.83,1356.69,400.83,1356.69Z" transform="translate(-356.71 -82.51)"/><polygon class="cls-21" points="134.84 1300.18 13.84 1261.23 11.95 1421.8 131.79 1501.51 134.84 1300.18"/><polygon class="cls-21" points="131.79 1501.51 116.52 1504.28 0 1423.9 3.73 1261.81 13.84 1261.23 131.79 1501.51"/><path class="cls-22" d="M563.74,848.18l20,19.07s-23.05-1.64-27.36-5.77Z" transform="translate(-356.71 -82.51)"/><path class="cls-18" d="M690.35,1268.36s-93.81,8.57-176,0v28.92s123.38,19.11,180.08-5.52Z" transform="translate(-356.71 -82.51)"/><path class="cls-15" d="M618.59,835.29c5.19,2.56,11.31,5.57,17.82,8.8,13.64,6.76,29,14.41,41.15,20.6,6.43,3.29,14.4,7.15,20.56,9.94-.72,23.76-1.79,49.25-3.68,76.54,0,0-1.78,66.64-5.35,129.86a134.86,134.86,0,0,0-1.15,27.78c.89,12.36,2.14,25.85,3.65,39.94,0,.18,0,.37.05.53.36,3.34.74,6.7,1.11,10.1,0,.05,0,.09,0,.15,8,70.42,21.48,151.22,28.53,175.66,1.49,5.1-3.65,9.82-7.31,13.46L688.34,1366s-10.58-104.47-14.09-139.92c-3.39-34.23-14.05-80.12-18.73-124.83v0c-5.92-56.72-14.07-112.3-18.47-145.32-11.45-86-26.71-124.42-26.71-124.42Z" transform="translate(-356.71 -82.51)"/><path class="cls-15" d="M455.55,1087.21c-2,28.68,9.32,187.38-2,189.61s-52.76-7.56-52.76-7.56-5.2-171.14-3.54-189.08c1.21-13.06,20.59-208.92,30.82-216.79,5.91-4.55,49.69-21.2,71.17-30.28,3.93-1.67,7.73-3.25,11.25-4.68,4.56,5.44,52.89,101.37,56.66,179.32,1.15,23.73-4,73.83-8,114.77-4.21,43.67-8.87,77.75-12.28,114.27-6.73,72-11.43,129.2-11.43,129.2l-66.75-31.88c-10.8-5.8-25.76-29.58-21.7-41.79C462.5,1246,481.93,1166.75,482,1126.06c0,0-7.44-99.63-13.35-121.53C468.61,1004.54,458.08,1050.74,455.55,1087.21Z" transform="translate(-356.71 -82.51)"/><path class="cls-14" d="M443.11,1274.94s3.3,16,7.75,32,8.67,21.16,6.67,30.26c-1.51,6.87-8.85,11.92-10.65,9.68s-2.32-29.05-12.67-29.09,2.63,33.23-3.5,30.71-29.64-16.85-28-30.33,11.31-23.09,11-43.27c-.3-18.31,5.13-25.87,5.13-25.87Z" transform="translate(-356.71 -82.51)"/><path class="cls-21" d="M435.25,1316.69s13.73,4,12.21,54l-15.56-3s.67-27.64-3.77-42.77C428.12,1324.87,429,1315.1,435.25,1316.69Z" transform="translate(-356.71 -82.51)"/><path class="cls-15" d="M457.31,1167.43l-.68,126.12s-23.46-1.12-55.8-13.93l-2.24-177.85Z" transform="translate(-356.71 -82.51)"/><path class="cls-19" d="M605.53,851.54s1.71,26.32-19,26.93-37.23-20.77-37.23-20.77l34.45,9.53,21-19.07Z" transform="translate(-356.71 -82.51)"/><path class="cls-23" d="M533.8,812.23s19.67,27.08,29.94,36l-16.83,30.3-29-53Z" transform="translate(-356.71 -82.51)"/><path class="cls-22" d="M601.47,853.15l-17.76,14.09s15.6-30.52,15.91-44.11Z" transform="translate(-356.71 -82.51)"/><polygon class="cls-23" points="242.91 740.62 254.31 749.26 267.01 789.92 244.76 770.64 242.91 740.62"/><path class="cls-24" d="M691.47,1033.34s-5,46.92-2.38,89.75,13.57,111.29,13.57,111.29S702.76,1084.13,691.47,1033.34Z" transform="translate(-356.71 -82.51)"/><path class="cls-14" d="M656.1,687.46s12.52,32.7,4.34,36.64c-6.76,3.26,4.1,35.18,5.42,40.35s-12.38,7.26-15.53,10.14-15.41,41.21-26.52,41.16S565,791.61,553,775s-16.42-85.79-4.61-113.44S633.95,630.31,656.1,687.46Z" transform="translate(-356.71 -82.51)"/><path class="cls-25" d="M658.55,694.51s19.15-31.62-7.26-59.67-83.86,9.47-90,10.45S519,654.55,531,713.45c10.69,52.45,11.71,53.83,11.71,53.83s14.33-27.73,21-31.89c10.48-6.49,31.66-2.26,31.66-2.26s-7.33-30.13,9-32.44S643.09,686.29,658.55,694.51Z" transform="translate(-356.71 -82.51)"/><path class="cls-14" d="M580.13,714.63c-1-4.13-3.87-21.73-18.52-13.24s4.38,43.2,6.72,43.88S588.65,749.41,580.13,714.63Z" transform="translate(-356.71 -82.51)"/><path class="cls-26" d="M554.86,777.4c.33.89,11.23,29.3,44.68,43.63,0-.69,0-1.38,0-2.06,0-3.52.2-7,.39-9.42.07-.85.13-1.57.19-2.14C600.11,807.4,564.18,789.29,554.86,777.4Z" transform="translate(-356.71 -82.51)"/><g id="g4499"><path id="path4501" class="cls-3" d="M1792.63,912.7l7,2.41-.29.62,4.13,1.9a28.2,28.2,0,0,0-1.93,3.1l-10.46-3.58Zm-2.37-17.12,12.09,7.9c-.72.9-1.47,1.91-2.4,3.18l8.14,5.92q-.53.45-1,.93l-20-13.07Zm22.4,3-10.3-15.27,4.13-2.78,9,16.17c-1,.58-1.82,1.17-2.82,1.89Zm17.07,78.09L1831,962a30.85,30.85,0,0,0,9.2-2.3l-.11,0,.35,1.66.92,15.4-1.47.09,0,10.79-5.81,0,0-10.64Zm10.54-16.95.12,0h0ZM1855,985l-6.45-17c1.22-.4,2.3-.83,3.87-1.41l-3.46-9.23,8.4,14.82,4.09-2.32-8.64-15.24h0l.93-.77,6.41,7.37c.54-.47,1-.89,1.43-1.28l11,15.87a88.1,88.1,0,0,1-11,6.66l-4.79-9.12,3.65,9.63Zm40-59.9-25.79,3.38,14,.29-.1,4.7-15.43-.32,15.21,2.6-.24,1.42,11.66,2.67c-.48,2.08-1,4.18-1.45,6.22l-10-2.4,9.65,3.6c-3.87,10.4-6.28,14.49-13.74,23l-14.65-12.89,1.81-1.91-7.16-6.89a32.77,32.77,0,0,0,2-3.13l8.59,4.43,1.49-2.95,7.92,3.25,1.79-4.35-8-3.28.85-2.57-9.41-3.1c.93-5.38.58-6.83-.07-12.13h0l-1.69.48,19.78-5.63-1.29-4.52-14.84,4.23,9.21-4.18a52.06,52.06,0,0,0-4.82-9.15l4.28-3.23-1.75-2.42-21.12,15.94a29.2,29.2,0,0,0-2.36-2.57l-.17-.16,11-18.1-4-2.45-4,6.5a32.4,32.4,0,0,0-5-2.13l2-7.72-.69-.18,5.45-15.19,5.47,2-3.48,9.7,4.63-9.2,5.19,2.61-4.63,9.2,5.71-8.57c10.93,6.89,16.48,13.45,22.63,24.82l-9.06,4.9,9.59-3.76,2.12,5.41-9.59,3.77,10-2.57a86.78,86.78,0,0,1,2.45,12.62Zm-72.86-39.72-2.93-10.82a87.78,87.78,0,0,1,12.59-2.59l1.46,10.2-.21-10.3,5.81-.12.24,11.53c-2.32-.1-4.36,0-7.48.11l.67,15-2.95-14.75a73.4,73.4,0,0,0-7.2,1.71" transform="translate(-356.71 -82.51)"/><path id="path4503" class="cls-4" d="M1818.79,966.73l2.2-5.39a31.2,31.2,0,0,0,4.78.73l-2.63,6.44Zm4.75,5.78,2.53-10.42c.69,0,1.38.07,2.08.07q1.4,0,2.78-.12l-2.82,11.58ZM1849,957.31l3.46,9.23a53.71,53.71,0,0,1-5.63,1.93l1.5,7.09-4.6,1-3.55-16.76a30,30,0,0,0,7.61-4.6Zm15-32.61h0c.65,5.3,1,6.76.07,12.13l9.41,3.1-.85,2.57,8,3.28-1.79,4.35-7.92-3.25-1.49,2.95-8.59-4.43a32.77,32.77,0,0,1-2,3.13l7.16,6.89a73.06,73.06,0,0,1-5.79,5.74l-6.41-7.37-.93.77-1.59-2.8a27.55,27.55,0,0,0,5.85-25.11Zm11.16-9.63-9.21,4.18-10.44,3a28.2,28.2,0,0,0-3.76-6l21.12-15.94,1.75,2.42-4.28,3.23a52.06,52.06,0,0,1,4.82,9.15Zm-14.88-19.69-11,18.1a30.38,30.38,0,0,0-19.22-8.21l-.49-3.79c1.12-.16,1.76-.32,3-.43l-.79-17.67a66.37,66.37,0,0,1,12.06.23l-.5,4.58a58.48,58.48,0,0,1,6.06,1.39l-2,7.72a32.4,32.4,0,0,1,5,2.13l4-6.5Zm-53.07,2.8,9.39,9.26a30,30,0,0,0-8.47,5.16l-8.14-5.92a60.13,60.13,0,0,1,7.22-8.5Zm-5.84,13.29,5.32,2.45a28.83,28.83,0,0,0-3.17,3.72l-4.12-1.9Zm22.38-22.58,6,16.37q-.76,0-1.54,0a31,31,0,0,0-11.83,2.32L1810.7,900a51.61,51.61,0,0,1,7.92-5.13l-1.43-3.35c2.35-1,3.91-1.74,6.52-2.68" transform="translate(-356.71 -82.51)"/><path id="path4505" class="cls-3" d="M1828.16,917.28c9.4,0,17,7.34,17,16.4s-7.62,16.4-17,16.4-17-7.34-17-16.4,7.62-16.4,17-16.4" transform="translate(-356.71 -82.51)"/></g><path class="cls-5" d="M1861.1,627.41h-31.5q0-192.37,0-384.75h384.75q0,192.37,0,384.75H2182.1c6.47-3,8.58-8.08,8.29-15.11-.95-22.55-5.69-44.16-16.59-63.95-27.7-50.28-70-77.7-127.84-79.84-15.22-.56-30.49-.35-45.73,0a184.57,184.57,0,0,0-25.71,2.16c-67.85,11.11-120.39,72.36-121.72,141.26C1852.67,619,1854.44,624.34,1861.1,627.41Zm160.34-384a101.25,101.25,0,1,0,101.4,101.27A101.42,101.42,0,0,0,2021.45,243.42Z" transform="translate(-356.71 -82.51)"/><path class="cls-4" d="M558,518.29c-3.13-1.45-4-3.93-3.9-7.27.62-32.38,25.31-61.16,57.2-66.38a86.72,86.72,0,0,1,12.08-1c7.16-.16,14.33-.26,21.49,0,27.16,1,47.05,13.89,60.07,37.51,5.12,9.3,7.35,19.45,7.8,30,.14,3.3-.86,5.69-3.89,7.1Z" transform="translate(-356.71 -82.51)"/><path class="cls-4" d="M633.3,337.86a47.57,47.57,0,1,1-47.5,47.56A47.65,47.65,0,0,1,633.3,337.86Z" transform="translate(-356.71 -82.51)"/></g></g></svg>