<svg id="svg1680" xmlns="http://www.w3.org/2000/svg" viewBox="0 0 388.2 388.2"><defs><style>.cls-1{fill:none;stroke:#000;stroke-linejoin:round;stroke-width:6.23px;}.cls-2{fill:#fff;}.cls-3{fill:#34bf49;}.cls-4{fill:#ff4c4c;}.cls-5{fill:#0099e5;}</style></defs><title>DigitalBusiness</title><circle id="circle2602" class="cls-1" cx="250" cy="250" r="136.2" transform="translate(-157.7 229.6) rotate(-50.8)"/><circle id="circle2604" class="cls-1" cx="250" cy="250" r="160.8" transform="translate(-61.3 438.6) rotate(-88.8)"/><circle id="circle2606" cx="194.1" cy="194.1" r="194.1"/><circle id="circle2608" class="cls-2" cx="194.1" cy="194.1" r="181.1"/><circle id="circle2610" cx="194.1" cy="194.1" r="174.7"/><circle id="circle2612" class="cls-2" cx="194.1" cy="194.2" r="170.8"/><circle id="circle2614" cx="194.1" cy="194.2" r="125.5"/><circle id="circle2616" class="cls-2" cx="194.1" cy="194.2" r="121.6"/><path id="path1160" d="M168.8,139.5l5.7-3.6-3.7-5.8,2.8-1.8c5.1-3.2,7.2-8.1,4.1-12.9h0c-2.9-4.5-7.9-5.1-13-1.8l-8.7,5.5Zm-.8-13.8-3.4-5.4,2.7-1.7c2-1.3,3.9-1.1,5,.6h0c1,1.6.5,3.4-1.6,4.7Z" transform="translate(-55.9 -55.9)"/><path id="path1162" d="M197.4,123.4l18.6-6.2-1.8-5.4-12.3,4.1-1.2-3.6,11-3.7-1.7-5-11,3.7-1.2-3.5,12.1-4.1-1.8-5.4-18.4,6.2Z" transform="translate(-55.9 -55.9)"/><path id="path1164" d="M228.8,114.6l6.7-.5-.6-7.3,2.9-.2h.1l5.4,6.9,7.7-.6-6.4-7.9a7.6,7.6,0,0,0,4.4-7.8h0a7.5,7.5,0,0,0-2.6-5.4c-1.7-1.5-4.4-2.3-8-2l-11.4.9Zm5.7-13-.5-5.8,4.4-.3c2.2-.2,3.7.7,3.8,2.6h0c.1,1.8-1.1,3-3.4,3.1Z" transform="translate(-55.9 -55.9)"/><path id="path1166" d="M273.8,115.9c6.8,1.2,11.7-1.4,13.1-9l2.4-13.2-6.7-1.2-2.4,13.4c-.6,3.3-2.6,4.6-5.3,4.1s-4.1-2.4-3.5-5.8l2.4-13.2-6.7-1.2-2.4,13.3C263.4,110.5,267,114.7,273.8,115.9Z" transform="translate(-55.9 -55.9)"/><path id="path1168" d="M297.9,121.7l6.1,2.8,3.1-6.6,2.6,1.2h.1l1.3,8.7,7,3.3-1.7-10.1a7.6,7.6,0,0,0,7.6-4.6h0a7.5,7.5,0,0,0,.4-6c-.8-2.2-2.7-4.1-6-5.7l-10.3-4.8Zm11.4-8.5,2.5-5.3,4,1.9c2,.9,2.9,2.4,2.1,4.1h0c-.7,1.6-2.4,2-4.5,1.1Z" transform="translate(-55.9 -55.9)"/><path id="path1170" d="M328.2,138.2l5.4,4L348,122.9l-5.4-4Z" transform="translate(-55.9 -55.9)"/><path id="path1173" d="M99.3,306.4l3.9,8.3c3.7,7.9,10.5,10.3,16.8,7.4h.1c6.3-2.9,8.7-9.6,5.1-17.4l-3.9-8.5Zm8.2,3.6,11.1-5.2,1.1,2.5c1.7,3.6.8,7-2.7,8.6h-.1c-3.5,1.6-6.7.2-8.3-3.5Z" transform="translate(-55.9 -55.9)"/><path id="path1175" d="M113.2,333.7l3.7,5.6,20.2-13.2-3.7-5.6Z" transform="translate(-55.9 -55.9)"/><path id="path1177" d="M129.3,356.1a16.3,16.3,0,0,0,9.7,5.4l8.2-7.2-7.3-8.4-3.7,3.2,3.1,3.6-2.2,1.9a6.8,6.8,0,0,1-3.3-2.2,6.4,6.4,0,0,1,.7-9.3h.1a6.3,6.3,0,0,1,9.1.3,8.5,8.5,0,0,1,2.1,5.9l6.1-.2a14.1,14.1,0,0,0-3.8-9.7c-4.9-5.6-12.7-6.1-18-1.5h-.1c-5.5,4.8-5.7,12.5-.7,18.1Z" transform="translate(-55.9 -55.9)"/><path id="path1179" d="M142.8,368.9l5.1,4.4,15.7-18.4-5.1-4.4Z" transform="translate(-55.9 -55.9)"/><path id="path1181" d="M159.4,381.8l5.6,3.7,10.1-15.2,6,4,3.2-4.9-17.7-11.7-3.2,4.9,6,4Z" transform="translate(-55.9 -55.9)"/><path id="path1183" d="M172.8,390.7l6.4,2.8,3.3-3.3,8.5,3.7v4.7l6.6,2.9.4-26.4-5.9-2.6Zm13.7-4.4,5.3-5.2-.3,7.4Z" transform="translate(-55.9 -55.9)"/><path id="path1185" d="M203.9,403.2l17.9,4.3,1.4-5.7L211.8,399l4.3-17.8-6.5-1.6Z" transform="translate(-55.9 -55.9)"/><path id="path1187" d="M242.4,409.8l12.5-.2c5.8-.1,9.1-2.7,9-6.8h0c-.1-3.3-1.9-4.9-4.9-5.8a5.6,5.6,0,0,0,3.6-5.4h0a5.3,5.3,0,0,0-1.6-3.9c-1.4-1.4-3.6-2.1-6.6-2.1l-12.4.2Zm6.3-14.6v-4.2h4.3c2,0,3,.7,3.1,2h0c0,1.4-1.1,2.1-3.1,2.2Zm.2,9.1v-4.5h5.1c2.2,0,3.3.8,3.3,2.1h0c0,1.4-1.1,2.2-3.2,2.3Z" transform="translate(-55.9 -55.9)"/><path id="path1189" d="M282,406.8c6.7-1.4,10.4-5.6,8.8-13.2l-2.7-13.1-6.7,1.4,2.7,13.3c.7,3.3-.7,5.2-3.4,5.8s-4.7-.7-5.4-4.1l-2.7-13.2-6.7,1.4,2.7,13.3c1.5,7.4,6.4,10,13.2,8.6Z" transform="translate(-55.9 -55.9)"/><path id="path1191" d="M309.7,398.5c5.5-2.2,8-6.3,6.2-10.9h0c-1.7-4.2-5.5-4.6-11.1-3.7-3.4.5-4.3.4-4.7-.6h0c-.3-.8.2-1.7,1.7-2.3a12.1,12.1,0,0,1,7.2-.3l1.4-5.6a15.2,15.2,0,0,0-10.4.7c-5.4,2.1-7.5,6.5-5.8,10.6h0c1.8,4.6,6.1,4.5,11.3,3.7,3.3-.5,4.3-.3,4.6.6h0c.4,1-.3,1.9-2,2.6a12.4,12.4,0,0,1-8.3.2l-1.8,5.5A16.9,16.9,0,0,0,309.7,398.5Z" transform="translate(-55.9 -55.9)"/><path id="path1193" d="M325.2,390.9l5.9-3.3-11.8-21.1-5.9,3.3Z" transform="translate(-55.9 -55.9)"/><path id="path1195" d="M338.5,383.4l5.3-4-8.1-10.5,16.2,4.2,4.7-3.6L342,350.3l-5.3,4,7.8,10.1-15.7-4.1-5,3.8Z" transform="translate(-55.9 -55.9)"/><path id="path1197" d="M362.8,363.6l13.1-14.5-4.2-3.8-8.7,9.6-2.8-2.6,7.8-8.6-3.9-3.5-7.8,8.6-2.7-2.5,8.6-9.5-4.2-3.8-13,14.4Z" transform="translate(-55.9 -55.9)"/><path id="path1199" d="M385.9,335.2c3.2-4.9,2.8-9.8-1.4-12.5h-.1c-3.8-2.4-7.2-.5-11.2,3.5-2.4,2.4-3.3,2.8-4.2,2.3H369c-.7-.5-.9-1.5,0-2.9a12.1,12.1,0,0,1,5.6-4.4l-2.2-5.4a15.2,15.2,0,0,0-8.1,6.6c-3.1,4.9-2.3,9.6,1.5,12h.1c4.2,2.7,7.5.1,11.3-3.6s3.3-2.7,4.1-2.2h.1c.9.6.9,1.7-.1,3.2a12.4,12.4,0,0,1-6.7,5l1.7,5.5a16.9,16.9,0,0,0,9.5-7.4Z" transform="translate(-55.9 -55.9)"/><path id="path1201" d="M398.1,311.9c2.3-5.4,1.1-10.1-3.4-12.1h-.1c-4.2-1.8-7.2.7-10.5,5.3-2,2.8-2.8,3.4-3.8,2.9h-.1c-.8-.3-1.1-1.3-.5-2.8a12.1,12.1,0,0,1,4.8-5.3l-3-4.9a15.2,15.2,0,0,0-6.9,7.9c-2.3,5.3-.7,9.9,3.4,11.6h.1c4.6,2,7.5-1.1,10.6-5.4,2-2.7,2.8-3.2,3.7-2.8h.1c1,.4,1.1,1.5.4,3.2a12.4,12.4,0,0,1-5.7,6.1l2.6,5.2a16.9,16.9,0,0,0,8.1-8.8Z" transform="translate(-55.9 -55.9)"/><path id="path2628" d="M120.4,209.5l-8.3-7.4-9.9,5.2,4.5-10.2-8-7.8,11.1,1.1,5-10,2.4,10.9,11,1.6-9.6,5.6Z" transform="translate(-55.9 -55.9)"/><path id="path2630" d="M379.3,209.5l8.3-7.4,9.9,5.2L393,197l8-7.8-11.1,1.1-5-10-2.4,10.9-11,1.6,9.6,5.6Z" transform="translate(-55.9 -55.9)"/><path id="path877" class="cls-3" d="M170.1,203.9,250,250l79.9-46.1L250,157.7Z" transform="translate(-55.9 -55.9)"/><path id="path879" class="cls-4" d="M170.1,203.9v92.3L250,342.3V250Z" transform="translate(-55.9 -55.9)"/><path id="path881" class="cls-5" d="M329.9,203.9v92.3L250,342.3V250Z" transform="translate(-55.9 -55.9)"/><path id="path894" d="M250,156.1l-81.3,47V297l81.3,47,81.4-47V203Zm0,3.3,77.1,44.5L250,248.4l-77.1-44.5Zm-78.5,47,77.1,44.5v89l-77.1-44.5Zm157,0v89l-77.1,44.5v-89ZM250,250h0Z" transform="translate(-55.9 -55.9)"/><path id="path1087" d="M214.6,256.8c-.6-.3-1.1-.1-1.1.6a2.1,2.1,0,0,0,1.1,1.7c.6.3,1.1.1,1.1-.6A2.1,2.1,0,0,0,214.6,256.8Z" transform="translate(-55.9 -55.9)"/><path id="path1093" d="M203.2,251.2c-.6-.3-1.1-.1-1.1.6a2.1,2.1,0,0,0,1.1,1.7c.6.3,1.1.1,1.1-.6A2.1,2.1,0,0,0,203.2,251.2Z" transform="translate(-55.9 -55.9)"/><path id="path1099" d="M233.6,290.8a6,6,0,0,0,1.5-4.2,13.1,13.1,0,0,0-2.9-7.6,5.7,5.7,0,0,0,.6-2.7c0-3.2-1.9-7-4.6-9.8.4-3.3-1.8-7.6-5.2-10a16.2,16.2,0,0,0-7.3-8.7c-2.9-1.4-5.4-1-6.8.7a15.8,15.8,0,0,0-6.8-7.5c-3.1-1.5-6-.9-7.3,1.5-3.4-.9-5.6,1.2-5.2,4.9-2.8,0-4.6,2.1-4.6,5.2a10.1,10.1,0,0,0,.6,3.3c-1.8.6-2.9,2.3-2.9,4.7a13.2,13.2,0,0,0,1.5,5.6,5.1,5.1,0,0,0-1.5,3.8A12.7,12.7,0,0,0,185,277c-.8,4.3,3,11,7.9,13.4h.1a18,18,0,0,0,7.9,8.5c3.4,1.7,6.4,1.1,8-1a18.1,18.1,0,0,0,8,8.9c3.2,1.6,6.3,1.3,7.9-.7h.1c4.3,2.1,8,.1,8-4.4a8.2,8.2,0,0,0-.1-1.2,4.6,4.6,0,0,0,2.4-4.5,11.7,11.7,0,0,0-1.5-5.3Zm-25.9-29.6a8.1,8.1,0,0,0-2.3-1.7c-.6-.3-1.1-.1-1.1.6a2.1,2.1,0,0,0,1.1,1.7,4.3,4.3,0,0,1,2.3,3.4v21.7a17.5,17.5,0,0,0-6.8-6.5c-.6-.3-1.1-.1-1.1.6a2.1,2.1,0,0,0,1.1,1.7c3.8,1.9,6.8,6.5,6.8,10.2s-3.1,5.6-6.8,3.8a13.5,13.5,0,0,1-6.2-7,2.2,2.2,0,0,0-1.2-1.2h-.2c-3.2-1.2-6.9-6.6-5.9-10.3a1.7,1.7,0,0,0-.4-1.3,9.4,9.4,0,0,1-2.1-5.4,3.7,3.7,0,0,1,.8-2.5,14.4,14.4,0,0,0,4.9,4.2c.6.3,1.1.1,1.1-.6a2.1,2.1,0,0,0-1.1-1.7c-3.1-1.5-5.7-5.6-5.7-8.9s1-3.3,2.7-3.5.7-.7.4-1.3a7.9,7.9,0,0,1-.8-3.2c0-3.1,2.5-4.8,5.7-3.2s5.7,5.6,5.7,8.9a2.1,2.1,0,0,0,1.1,1.7c.6.3,1.1.1,1.1-.6,0-4.5-3.7-10.1-8-12.3l-1.1-.5h0c0-2.5,2.1-3.5,4.6-2.3a8.6,8.6,0,0,1,3.2,2.9c.4.7,1.2,1,1.6.8s.4-.9,0-1.6a13.5,13.5,0,0,0-3.8-3.8c1-1,2.7-1.4,4.6-.4s5.7,5.6,5.7,8.9ZM227.1,291a6.5,6.5,0,0,0,4.9.6,8,8,0,0,1,.8,3.3,3.2,3.2,0,0,1-2.1,3.3c-.3.1-.5.5-.4,1a6.7,6.7,0,0,1,.2,1.4c0,3.5-3.2,4.8-6.1,3l-.2-.2c-.5-.3-1-.3-1.2.1-1.1,1.9-3.5,2.2-6.2.9S210,297.9,210,294s3.1-5.3,6.8-3.4c.6.3,1.1.1,1.1-.6a2.1,2.1,0,0,0-1.1-1.7c-2.7-1.3-5.2-1.4-6.8-.3V266.3c0-1.3,1-1.8,2.3-1.1s1.1.1,1.1-.6a2.1,2.1,0,0,0-1.1-1.7,4.4,4.4,0,0,0-2.3-.5v-8.9c0-3.2,2.7-4.7,5.7-3.2a11.4,11.4,0,0,1,4.6,5,4.9,4.9,0,0,0-3.8,0c-.4.2-.4.9,0,1.6s1.2,1,1.6.8a3.6,3.6,0,0,1,3.2.3c2.5,1.2,4.6,4.3,4.6,6.8h0l-1.1-.7c-4.3-2.1-8-.1-8,4.4a2.1,2.1,0,0,0,1.1,1.7c.6.3,1.1.1,1.1-.6,0-3.2,2.7-4.7,5.7-3.2s5.7,5.8,5.7,8.9a3.8,3.8,0,0,1-.8,2.4c-.3.4-.1,1.1.4,1.7a9.8,9.8,0,0,1,2.7,6.1c0,3.2-2.6,4.7-5.7,3.2-.6-.3-1.1-.1-1.1.6a2.1,2.1,0,0,0,1.1,1.7Z" transform="translate(-55.9 -55.9)"/><path id="path1105" d="M205.2,267.1c-.4-.7-1.1-1.1-1.6-.9-3.7,1.5-9.5-4-9.5-9a2.1,2.1,0,0,0-1.1-1.7c-.6-.3-1.1-.1-1.1.6,0,4,2.9,8.7,6.7,11.2-.4,1.2-1.7,1.5-3.3.8s-1.1-.1-1.1.6a2.1,2.1,0,0,0,1.1,1.7c2.8,1.4,5.1.5,5.6-1.9a6,6,0,0,0,4.3.2c.5-.2.5-.9.1-1.6Z" transform="translate(-55.9 -55.9)"/><path id="path1111" d="M192.9,280.9c-.6-.3-1.1-.1-1.1.6a2.1,2.1,0,0,0,1.1,1.7c3,1.5,5.7,5.6,5.7,8.9a2.1,2.1,0,0,0,1.1,1.7c.6.3,1.1.1,1.1-.6C200.9,288.7,197.2,283.1,192.9,280.9Z" transform="translate(-55.9 -55.9)"/><path id="path1117" d="M202,276.3c-3.9-1.9-7.2-1.4-8.9.8-.3.4-.1,1.2.4,1.8s1.2.7,1.6.3,3.9-2.1,6.9-.6c.6.3,1.1.1,1.1-.6a2.1,2.1,0,0,0-1.1-1.7Z" transform="translate(-55.9 -55.9)"/><path id="path1123" d="M222.5,281.6a6.7,6.7,0,0,1-3.3-4c3.8,1.3,6.7-.6,6.7-4.6a2.1,2.1,0,0,0-1.1-1.7c-.6-.3-1.1-.1-1.1.6,0,3.1-2.6,4.4-5.7,2.9a10.7,10.7,0,0,1-3.8-3.3c-.5-.7-1.2-1-1.6-.7s-.4,1,.1,1.7a15.6,15.6,0,0,0,4.3,4.1,11.1,11.1,0,0,0,5.6,7.4c.6.3,1.1.1,1.1-.6a2.1,2.1,0,0,0-1.1-1.7Z" transform="translate(-55.9 -55.9)"/><path id="path1129" d="M224.8,296.8c-4.3-2.1-8-.1-8,4.4a2.1,2.1,0,0,0,1.1,1.7c.6.3,1.1.1,1.1-.6,0-3.2,2.7-4.7,5.7-3.2.6.3,1.1.1,1.1-.6A2.1,2.1,0,0,0,224.8,296.8Z" transform="translate(-55.9 -55.9)"/><path id="path1135" d="M224.6,292.7a20.1,20.1,0,0,0-8.9-9.6c-.6-.3-1.1-.1-1.1.6a2.1,2.1,0,0,0,1.1,1.7,15.6,15.6,0,0,1,6.9,7.5,1.9,1.9,0,0,0,1.6,1.2C224.7,294,224.9,293.4,224.6,292.7Z" transform="translate(-55.9 -55.9)"/><path id="path913" d="M300.6,265.6l-1.7.7v-2.2c0-4.3-3.5-6.2-7.7-4.4s-7.7,6.7-7.7,11v2.2l-1.7.7a.9.9,0,0,0-.6.8v13.8c0,1.2,1,1.8,2.2,1.3l15.4-6.6a3.8,3.8,0,0,0,2.2-3.1V265.9c0-.3-.2-.4-.6-.3Zm-7.7,14.8a.8.8,0,0,1-.1.5l-.4.4-2.2.9h-.4a.4.4,0,0,1-.1-.4l.3-3.3a1.3,1.3,0,0,1-.9-1.4,3.8,3.8,0,0,1,2.2-3.1c1.2-.5,2.2.1,2.2,1.3a3.4,3.4,0,0,1-.9,2.2Zm2.8-12.7-8.8,3.7v-2.2a7.6,7.6,0,0,1,4.4-6.3c2.4-1,4.4.1,4.4,2.5Z" transform="translate(-55.9 -55.9)"/><path id="path1222" d="M315.2,245.4a75.9,75.9,0,0,1-23.4,0,1.5,1.5,0,0,0-1.2.5,165.9,165.9,0,0,1-23.4,19.8,2.1,2.1,0,0,0-.9,1.6v12.5c0,12.9,6,18.9,11,21.7s11.7,3.2,13.9,2.3,8.5-6.5,13.9-14.1,11-18.1,11-31V246.2a.7.7,0,0,0-.9-.8Zm-1.6,14.4c0,12.1-5.6,22.4-10.2,29s-11,12.1-12.2,12.7-6.9.6-12.2-2.3-10.2-8.2-10.2-20.3V267.2a170,170,0,0,0,22.4-19.1,77.8,77.8,0,0,0,22.4,0Z" transform="translate(-55.9 -55.9)"/><path id="path1454" d="M273.1,187.3l-7.1,4.4a1.9,1.9,0,0,0-.7,2.8l-3.4.7-4.9-1.7h-.3c-4.7-.7-7.2,0-8.5.8H234.8a1.9,1.9,0,0,0-.8-2.5l-7.1-4.4-1.4,1.8,2.4,1.5-12.1,15-2.5-1.2-1.4,1.8,7.5,3.5,1.3.3a3,3,0,0,0,1.8-.6l1.5,1a2.7,2.7,0,0,0-.5,3.2,4,4,0,0,0,3.3,1.9h.9a3.4,3.4,0,0,0,1.1,2.1h0a5,5,0,0,0,3.1,1.3h.5a2.8,2.8,0,0,0,.9,1.9,4.4,4.4,0,0,0,3,1.1l1.4-.2a3.8,3.8,0,0,0,3.4,2.3h.3a4.4,4.4,0,0,0,2.5-.7l2.1-1.3,4.9,2.6a5.4,5.4,0,0,0,2.5.6h.9a4.1,4.1,0,0,0,3.7-3.3,5.4,5.4,0,0,0,3.9-.5,3.6,3.6,0,0,0,2-2.8,5.4,5.4,0,0,0,4.4-.7,3.4,3.4,0,0,0,1.5-3.4,4.8,4.8,0,0,0,3.3-1.6,3.2,3.2,0,0,0,.6-3l2.6-2.1,1.1,1.3a3,3,0,0,0,3.5.7l7.5-3.5-1.4-1.8-2.5,1.2-12.1-15,2.4-1.5Zm-43.2,4.6,2.5,1.5-11.8,14.4-2.6-1.2Zm40.2,0L282,206.6l-2.6,1.2-11.8-14.4Zm-16.7,3.4,2.8.2,5.2,1.8h.9l4.7-1,7.8,9.5-2.6,2.1-.4-.3-13-6.8h-.2l-3.9-2a1.6,1.6,0,0,0-1.4,0,12.6,12.6,0,0,1-6.2.9,1,1,0,0,1-1-.8.9.9,0,0,1,.6-1,15.8,15.8,0,0,0,2.8-1.5l.2-.2h.1a6.2,6.2,0,0,1,3.6-.7Zm-20.2,1.1h11.6a2.8,2.8,0,0,0-1.2,2.9,3.5,3.5,0,0,0,3.1,2.5,15.6,15.6,0,0,0,7.2-.8l3.4,1.7h.2l12.8,6.7.6.5h0a1.4,1.4,0,0,1-.1,1.7,2.3,2.3,0,0,1-2.7.5h0l-8.7-4.8a1.6,1.6,0,0,0-1.3-.1,1.1,1.1,0,0,0-.7.9,1,1,0,0,0,.6,1l8.4,4.7h0a1.5,1.5,0,0,1,.8,1.6,1.8,1.8,0,0,1-1.5,1.3,2.3,2.3,0,0,1-1.5-.2l-8.7-4.8a1.5,1.5,0,0,0-1.8.3.9.9,0,0,0,.3,1.5l6.3,3.5h0a1.5,1.5,0,0,1,.6,2.3,2.3,2.3,0,0,1-2.7.5l-2.3-1.3-2.4-1.4a1.6,1.6,0,0,0-1.3-.1,1.1,1.1,0,0,0-.8.9,1,1,0,0,0,.6,1l2.4,1.4.3.2a1.4,1.4,0,0,1,.2,2.2,2.3,2.3,0,0,1-2.6.3l-4.3-2.4a2.7,2.7,0,0,0,.2-3.1,4,4,0,0,0-3.1-1.8c0-1.7-1.5-3.1-3.6-3.2h-.5a3.7,3.7,0,0,0-2.4-3.1,5.5,5.5,0,0,0-4.5,0,3.6,3.6,0,0,0-2.6-2.1,4.7,4.7,0,0,0-3.6.6l-1.8,1.1-2.1-1.3Zm-2.9,12.8h.1a1.3,1.3,0,0,1,1.1.7.9.9,0,0,1-.3,1.1l-3.3,2.1a1.4,1.4,0,0,1-.9.2,1.3,1.3,0,0,1-1.1-.7.9.9,0,0,1,.3-1.1l3.3-2.1.8-.2Zm5.8,1.7,1.1.2a1.6,1.6,0,0,1,1.1,1.6,1.5,1.5,0,0,1-.6,1l-1.1.7-3.1,1.9a2.3,2.3,0,0,1-1.4.4,1.9,1.9,0,0,1-1.7-1.1,1.4,1.4,0,0,1,.6-1.7l4.2-2.6a2.2,2.2,0,0,1,1.1-.4Zm5,3.6h.1a1.3,1.3,0,0,1,1.1.7.9.9,0,0,1-.3,1.1l-3.1,1.9h-.1l-1.8,1.1a1.5,1.5,0,0,1-.9.2,1.4,1.4,0,0,1-.9-.4.9.9,0,0,1-.3-.8,1,1,0,0,1,.4-.7l3.1-1.9.9-.6h0l.9-.6.8-.3Zm3.6,3.2a1.4,1.4,0,0,1,.9.3.9.9,0,0,1-.1,1.5l-3.3,2.1a1.4,1.4,0,0,1-.9.2,1.3,1.3,0,0,1-1.1-.7.9.9,0,0,1,.3-1.1h.1l3.2-2a1.5,1.5,0,0,1,.9-.2Z" transform="translate(-55.9 -55.9)"/></svg>