<?xml version="1.0" encoding="utf-8"?>
<!-- Generator: Adobe Illustrator 21.0.2, SVG Export Plug-In . SVG Version: 6.00 Build 0)  -->
<svg version="1.1" id="e9a400c3-14c4-48e9-ac4d-1e6d0c39fdb5"
	 xmlns="http://www.w3.org/2000/svg" xmlns:xlink="http://www.w3.org/1999/xlink" x="0px" y="0px" viewBox="0 0 893.6 736.8"
	 style="enable-background:new 0 0 893.6 736.8;" xml:space="preserve">
<style type="text/css">
	.st0{fill:#F5F5F5;}
	.st1{fill:#E1E1E1;}
	.st2{fill:#00A4E5;}
	.st3{fill:#FFFFFF;}
	.st4{fill:#2B454E;}
	.st5{fill:#1A2E35;}
	.st6{fill:#375A64;}
	.st7{opacity:0.6;fill:#0055AB;enable-background:new    ;}
	.st8{fill:#F0F0F0;}
	.st9{fill:#008BE8;}
	.st10{opacity:0.4;fill:#0055AB;enable-background:new    ;}
	.st11{fill:#0055AB;}
	.st12{opacity:0.15;fill:#0055AB;enable-background:new    ;}
	.st13{fill:#00A5F1;}
	.st14{opacity:0.1;enable-background:new    ;}
	.st15{opacity:0.3;enable-background:new    ;}
	.st16{opacity:0.15;enable-background:new    ;}
	.st17{opacity:0.11;}
	.st18{fill:url(#SVGID_1_);}
	.st19{fill:url(#SVGID_2_);}
	.st20{fill:url(#SVGID_3_);}
	.st21{fill:url(#SVGID_4_);}
	.st22{opacity:0.5;fill:url(#SVGID_5_);enable-background:new    ;}
	.st23{fill:url(#SVGID_6_);}
	.st24{opacity:0.2;}
	.st25{fill:#160A5B;}
	.st26{opacity:0.5;}
	.st27{fill:#40E6DE;}
	.st28{fill:url(#SVGID_7_);}
	.st29{fill:#BABCFD;}
	.st30{opacity:0.7;fill:#443C9C;enable-background:new    ;}
	.st31{fill:url(#SVGID_8_);}
	.st32{fill:#24126A;}
	.st33{opacity:0.51;}
	.st34{fill:#443C9C;}
	.st35{fill:url(#SVGID_9_);}
	.st36{fill:url(#SVGID_10_);}
	.st37{fill:#3F21D1;}
	.st38{fill:url(#SVGID_11_);}
	.st39{fill:url(#SVGID_12_);}
	.st40{fill:url(#SVGID_13_);}
	.st41{fill:url(#SVGID_14_);}
	.st42{fill:url(#SVGID_15_);}
	.st43{fill:url(#SVGID_16_);}
	.st44{fill:url(#SVGID_17_);}
	.st45{fill:#0F054C;}
	.st46{opacity:0.5;fill:url(#SVGID_18_);enable-background:new    ;}
	.st47{opacity:0.5;fill:url(#SVGID_19_);enable-background:new    ;}
	.st48{opacity:0.5;fill:url(#SVGID_20_);enable-background:new    ;}
	.st49{opacity:0.5;fill:url(#SVGID_21_);enable-background:new    ;}
	.st50{opacity:0.5;fill:#40E6DE;enable-background:new    ;}
	.st51{opacity:0.5;fill:url(#SVGID_22_);enable-background:new    ;}
	.st52{opacity:0.5;fill:url(#SVGID_23_);enable-background:new    ;}
	.st53{opacity:0.8;fill:#40E6DE;enable-background:new    ;}
	.st54{opacity:0.1;fill:#40E6DE;enable-background:new    ;}
	.st55{opacity:0.4;fill:#40E6DE;enable-background:new    ;}
	.st56{fill:#C76668;}
	.st57{fill:#00DFBF;}
	.st58{fill:#004256;}
	.st59{opacity:0.6;}
	.st60{fill:#B0494C;}
</style>
<g>
	<path id="Floor_4_" class="st0" d="M314.5,593.3c109.6,64.7,287.3,64.7,396.9,0s109.6-169.6,0-234.2
		c-109.6-64.7-287.3-64.7-396.9,0S204.9,528.7,314.5,593.3z"/>
	<path id="Shadows_1_" class="st1" d="M720.3,526.9c21,12.1,21,31.7,0,43.8s-55,12.1-75.9,0c-21-12.1-21-31.7,0-43.8
		C665.3,514.8,699.3,514.8,720.3,526.9z"/>
	<path id="XMLID_1526_" class="st2" d="M296.8,406.7c-0.7,0.4-13.4,4-18.1-2.2s3.1-15.9-1.3-19.5s-16.8,0-19.8-7.5
		s5.8-10.7,0.9-18.3c-3.1-4.8-10.8-7.4-11.5-11.8c-1.1-7.4,11.1-10.8,21.5-3.8s16.8,3.8,20.1,3.3s10.5,0.6,10.2,12.2
		C298.7,370.7,296.8,406.7,296.8,406.7z"/>
	<g id="XMLID_1524_">
		<path id="XMLID_1525_" class="st3" d="M297.7,390.2c-0.3,0-0.6-0.2-0.7-0.6c-3.6-22.1-29.3-40-42.6-43.9c-0.4-0.1-0.6-0.5-0.5-0.9
			s0.5-0.6,0.9-0.5c13.6,3.9,39.9,22.3,43.6,45c0.1,0.4-0.2,0.7-0.6,0.8C297.8,390.2,297.7,390.2,297.7,390.2z"/>
	</g>
	<g id="XMLID_1517_">
		<path id="XMLID_1518_" class="st3" d="M267.4,371.7c-0.2,0-0.5-0.1-0.6-0.3c-0.2-0.3-0.1-0.8,0.2-0.9c0.4-0.2,10.3-6,20-3.3
			c0.4,0.1,0.6,0.5,0.5,0.9s-0.5,0.6-0.9,0.5c-9.2-2.5-18.8,3.1-18.9,3.2C267.7,371.7,267.5,371.7,267.4,371.7z"/>
	</g>
	<path id="XMLID_30734_" class="st4" d="M301.8,415.2c0,3.1,2.4,7.1,5.3,8.7L454.4,509c2.9,1.7,7.6,1.7,10.5,0l201.7-116.5
		c2.9-1.7,5.3-5.6,5.3-8.7s-2.4-7.1-5.3-8.7L519.2,290c-2.9-1.7-7.6-1.7-10.5,0L307,406.5C304.1,408.1,301.8,412.1,301.8,415.2z"/>
	<path id="XMLID_980_" class="st5" d="M459.7,498.9v11.4c-1.9,0-3.8-0.4-5.3-1.3L307,423.9c-2.9-1.7-5.3-5.6-5.3-8.7
		c0-3,2.1-6.6,4.7-8.4c-2.4,1.7-2.2,4.2,0.5,5.7l147.4,85.1C455.9,498.5,457.8,498.9,459.7,498.9z"/>
	<path id="XMLID_30732_" class="st6" d="M296.8,406.7c-2.7-1.6-4.9-5.6-4.9-8.9V221.9c0-3.4,2.4-7.4,5.3-9.1L498.9,96.2
		c2.9-1.7,7.5-1.8,10.2-0.2c2.7,1.6,4.9,5.6,4.9,8.9v175.9c0,3.4-2.4,7.4-5.3,9.1L307,406.5C304.1,408.1,299.6,408.2,296.8,406.7z"
		/>
	<path id="XMLID_979_" class="st5" d="M306.4,406.8c-2.9,1.4-7,1.3-9.6-0.1c-2.7-1.6-4.9-5.6-4.9-8.9v-176c0-1.7,0.6-3.5,1.5-5.2
		l9.9,5.7l0,0c-0.9,1.7-1.5,3.5-1.5,5.2v175.9C301.8,406.5,303.8,407.9,306.4,406.8z"/>
	<path id="XMLID_30730_" class="st4" d="M301.8,227.5v175.9c0,3.4,2.4,4.7,5.3,3L508.7,290c2.9-1.7,5.3-5.8,5.3-9.1V105
		c0-3.4-2.4-4.7-5.3-3L307,218.4C304.1,220.1,301.8,224.2,301.8,227.5z"/>
	<path id="XMLID_30712_" class="st6" d="M307,412.5l147.4,85.1c2.9,1.7,7.6,1.7,10.5,0l201.7-116.5c2.9-1.7,2.9-4.4,0-6.1l-147.4-85
		c-2.9-1.7-7.6-1.7-10.5,0L307,406.5C304.1,408.1,304.1,410.9,307,412.5z"/>
	<path id="XMLID_30711_" class="st3" d="M309.9,228.2L504.4,116c1.7-1,3.2-0.2,3.2,1.8V270c0,2-1.4,4.5-3.2,5.5L309.9,387.7
		c-1.7,1-3.2,0.2-3.2-1.8V233.6C306.7,231.6,308.1,229.2,309.9,228.2z"/>
	<path id="XMLID_1_" class="st7" d="M309.9,228.2L504.4,116c1.7-1,3.2-0.2,3.2,1.8V270c0,2-1.4,4.5-3.2,5.5L309.9,387.7
		c-1.7,1-3.2,0.2-3.2-1.8V233.6C306.7,231.6,308.1,229.2,309.9,228.2z"/>
	<g id="XMLID_1364_">
		<path id="XMLID_1366_" class="st8" d="M406.7,218.5c5.2-3,9.4-0.6,9.4,5.4s-4.2,13.2-9.4,16.2c-5.2,3-9.4,0.6-9.4-5.4
			C397.3,228.8,401.5,221.5,406.7,218.5z"/>
		<path id="XMLID_1365_" class="st8" d="M425.1,250.5c0-9.8-6.9-14.2-15.4-9.3l-5.3,3.1c-8.5,4.9-15.4,16.9-15.4,26.7v2.6l36.1-20.8
			L425.1,250.5L425.1,250.5z"/>
	</g>
	<path id="XMLID_1396_" class="st8" d="M443.4,255.4c-0.3-0.8-1.2-1-2.2-0.4l-63.1,36.4c-0.6,0.4-1.2,1-1.6,1.7s-0.7,1.6-0.7,2.3
		v7.4c0,1.3,0.8,1.9,1.8,1.6c0.1,0,0.2-0.1,0.2-0.1c0.1-0.1,0.3-0.1,0.4-0.2l63.1-36.4c1.3-0.7,2.3-2.6,2.3-4v-7.4
		C443.5,256,443.5,255.6,443.4,255.4z"/>
	<g id="XMLID_1381_">
		<path id="XMLID_1393_" class="st2" d="M383.8,292.2c1.2-0.7,2.2-0.1,2.2,1.3s-1,3.1-2.2,3.8c-1.2,0.7-2.2,0.1-2.2-1.3
			C381.6,294.7,382.6,293,383.8,292.2z"/>
		<path id="XMLID_1392_" class="st2" d="M391.2,288c1.2-0.7,2.2-0.1,2.2,1.3s-1,3.1-2.2,3.8c-1.2,0.7-2.2,0.1-2.2-1.3
			S389.9,288.7,391.2,288z"/>
		<path id="XMLID_1391_" class="st2" d="M398.5,283.8c1.2-0.7,2.2-0.1,2.2,1.3s-1,3.1-2.2,3.8s-2.2,0.1-2.2-1.3
			C396.3,286.2,397.3,284.5,398.5,283.8z"/>
		<path id="XMLID_1389_" class="st2" d="M405.8,279.5c1.2-0.7,2.2-0.1,2.2,1.3s-1,3.1-2.2,3.8c-1.2,0.7-2.2,0.1-2.2-1.3
			S404.6,280.3,405.8,279.5z"/>
		<path id="XMLID_1385_" class="st2" d="M413.1,275.3c1.2-0.7,2.2-0.1,2.2,1.3s-1,3.1-2.2,3.8c-1.2,0.7-2.2,0.1-2.2-1.3
			S411.9,276,413.1,275.3z"/>
		<path id="XMLID_1384_" class="st2" d="M420.5,271.1c1.2-0.7,2.2-0.1,2.2,1.3s-1,3.1-2.2,3.8c-1.2,0.7-2.2,0.1-2.2-1.3
			S419.3,271.8,420.5,271.1z"/>
		<path id="XMLID_1383_" class="st2" d="M427.8,266.9c1.2-0.7,2.2-0.1,2.2,1.3s-1,3.1-2.2,3.8s-2.2,0.1-2.2-1.3
			S426.6,267.6,427.8,266.9z"/>
		<path id="XMLID_1382_" class="st2" d="M435.1,262.6c1.2-0.7,2.2-0.1,2.2,1.3s-1,3.1-2.2,3.8s-2.2,0.1-2.2-1.3
			S433.9,263.3,435.1,262.6z"/>
	</g>
	<path id="XMLID_30710_" class="st4" d="M324.1,408l187.2-108.1c1.5-0.8,3.8-0.8,5.3,0l9.6,5.5c1.5,0.8,1.5,2.2,0,3L338.9,416.5
		c-1.5,0.8-3.8,0.8-5.3,0l-9.5-5.5C322.7,410.2,322.7,408.8,324.1,408z"/>
	<path id="XMLID_30704_" class="st5" d="M348.8,422.2L536,314.1c1.5-0.8,3.8-0.8,5.3,0l58.9,34c1.5,0.8,1.5,2.2,0,3L413.2,459
		c-1.5,0.8-3.8,0.8-5.3,0l-59.1-33.9C347.4,424.4,347.4,423.1,348.8,422.2z"/>
	<path id="XMLID_172_" class="st6" d="M516.6,362.8l5.9-3.4c0.2-0.1,0.2-0.4,0-0.5l-6.8-3.9c-0.3-0.2-0.7-0.2-0.9,0l-5.9,3.4
		c-0.2,0.1-0.2,0.4,0,0.5l6.8,3.9C516,362.9,516.4,362.9,516.6,362.8z M505.1,349.3l-5.9,3.4c-0.2,0.1-0.2,0.4,0,0.5l6.8,3.9
		c0.3,0.2,0.7,0.2,0.9,0l5.9-3.4c0.2-0.1,0.2-0.4,0-0.5l-6.8-3.9C505.7,349.2,505.3,349.2,505.1,349.3z M486.1,360.3l-9.9,5.7
		c-0.2,0.1-0.2,0.4,0,0.5l6.8,3.9c0.3,0.2,0.7,0.2,0.9,0l9.9-5.7c0.2-0.1,0.2-0.4,0-0.5l-6.8-3.9
		C486.8,360.1,486.4,360.1,486.1,360.3z M496.5,354.3l-5.9,3.4c-0.2,0.1-0.2,0.4,0,0.5l6.8,3.9c0.3,0.2,0.7,0.2,0.9,0l5.9-3.4
		c0.2-0.1,0.2-0.4,0-0.5l-6.8-3.9C497.2,354.1,496.8,354.1,496.5,354.3z M473.5,367.5l-5.9,3.4c-0.2,0.1-0.2,0.4,0,0.5l6.8,3.9
		c0.3,0.2,0.7,0.2,0.9,0l5.9-3.4c0.2-0.1,0.2-0.4,0-0.5l-6.8-3.9C474.2,367.4,473.8,367.4,473.5,367.5z M464.9,372.5l-5.9,3.4
		c-0.2,0.1-0.2,0.4,0,0.5l6.8,3.9c0.3,0.2,0.7,0.2,0.9,0l5.9-3.4c0.2-0.1,0.2-0.4,0-0.5l-6.8-3.9
		C465.6,372.4,465.2,372.3,464.9,372.5z M491.6,388.4l5.9-3.4c0.2-0.1,0.2-0.4,0-0.5l-6.8-3.9c-0.3-0.2-0.7-0.2-0.9,0l-5.9,3.4
		c-0.2,0.1-0.2,0.4,0,0.5l6.8,3.9C490.9,388.5,491.4,388.5,491.6,388.4z M483,393.4l5.9-3.4c0.2-0.1,0.2-0.4,0-0.5l-6.8-3.9
		c-0.3-0.2-0.7-0.2-0.9,0l-5.9,3.4c-0.2,0.1-0.2,0.4,0,0.5l6.8,3.9C482.4,393.5,482.8,393.5,483,393.4z M474.5,398.3l5.9-3.4
		c0.2-0.1,0.2-0.4,0-0.5l-6.8-3.9c-0.3-0.2-0.7-0.2-0.9,0l-5.9,3.4c-0.2,0.1-0.2,0.4,0,0.5l6.8,3.9
		C473.8,398.4,474.2,398.4,474.5,398.3z M465.9,403.2l5.9-3.4c0.2-0.1,0.2-0.4,0-0.5l-6.8-3.9c-0.3-0.2-0.7-0.2-0.9,0l-5.9,3.4
		c-0.2,0.1-0.2,0.4,0,0.5l6.8,3.9C465.2,403.4,465.7,403.4,465.9,403.2z M508.1,367.7l5.9-3.4c0.2-0.1,0.2-0.4,0-0.5l-6.8-3.9
		c-0.3-0.2-0.7-0.2-0.9,0l-5.9,3.4c-0.2,0.1-0.2,0.4,0,0.5l6.8,3.9C507.4,367.8,507.8,367.9,508.1,367.7z M500.2,383.5l13.1-7.5
		c0.2-0.1,0.2-0.4,0-0.5l-16.5-9.5c-0.3-0.2-0.7-0.2-0.9,0l-6.8,3.9c-0.2,0.1-0.2,0.4,0,0.5l8.7,5c0.3,0.2,0.3,0.4,0,0.5l-5.4,3.1
		c-0.2,0.1-0.2,0.4,0,0.5l6.8,3.9C499.5,383.6,499.9,383.6,500.2,383.5z M456.4,377.4l-5.9,3.4c-0.2,0.1-0.2,0.4,0,0.5l6.8,3.9
		c0.3,0.2,0.7,0.2,0.9,0l5.9-3.4c0.2-0.1,0.2-0.4,0-0.5l-6.8-3.9C457,377.3,456.6,377.3,456.4,377.4z M447.8,382.4l-5.9,3.4
		c-0.2,0.1-0.2,0.4,0,0.5l6.8,3.9c0.3,0.2,0.7,0.2,0.9,0l5.9-3.4c0.2-0.1,0.2-0.4,0-0.5l-6.8-3.9
		C448.5,382.2,448.1,382.2,447.8,382.4z M405,437.9c0.3,0.2,0.7,0.2,0.9,0l5.9-3.4c0.2-0.1,0.2-0.4,0-0.5l-6.8-4
		c-0.3-0.2-0.7-0.2-0.9,0l-5.9,3.4c-0.2,0.1-0.2,0.4,0,0.5L405,437.9z M379.3,422l-5.9,3.4c-0.2,0.1-0.2,0.4,0,0.5l6.8,3.9
		c0.3,0.2,0.7,0.2,0.9,0l5.9-3.4c0.2-0.1,0.2-0.4,0-0.5l-6.8-3.9C379.9,421.8,379.5,421.8,379.3,422z M393.1,433.6
		c0.3,0.2,0.7,0.2,0.9,0l5.9-3.4c0.2-0.1,0.2-0.4,0-0.5l-6.8-3.9c-0.3-0.2-0.7-0.2-0.9,0l-5.9,3.4c-0.2,0.1-0.2,0.4,0,0.5
		L393.1,433.6z M420.1,440.9l5.9-3.4c0.2-0.1,0.2-0.4,0-0.5l-6.8-3.9c-0.3-0.2-0.7-0.2-0.9,0l-5.9,3.4c-0.2,0.1-0.2,0.4,0,0.5
		l6.8,3.9C419.5,441,419.9,441,420.1,440.9z M410.6,445.8c0.3,0.2,0.7,0.2,0.9,0l5.9-3.4c0.2-0.1,0.2-0.4,0-0.5l-6.8-3.9
		c-0.3-0.2-0.7-0.2-0.9,0l-5.9,3.4c-0.2,0.1-0.2,0.4,0,0.5L410.6,445.8z M387.8,417l-5.9,3.4c-0.2,0.1-0.2,0.4,0,0.5l6.8,3.9
		c0.3,0.2,0.7,0.2,0.9,0l5.9-3.4c0.2-0.1,0.2-0.4,0-0.5l-6.8-3.9C388.5,416.9,388.1,416.9,387.8,417z M430.7,392.3l-5.9,3.4
		c-0.2,0.1-0.2,0.4,0,0.5l6.8,3.9c0.3,0.2,0.7,0.2,0.9,0l5.9-3.4c0.2-0.1,0.2-0.4,0-0.5l-6.8-3.9
		C431.3,392.1,430.9,392.1,430.7,392.3z M396.4,412.1l-5.9,3.4c-0.2,0.1-0.2,0.4,0,0.5l6.8,3.9c0.3,0.2,0.7,0.2,0.9,0l5.9-3.4
		c0.2-0.1,0.2-0.4,0-0.5l-6.8-3.9C397.1,411.9,396.6,411.9,396.4,412.1z M439.2,387.3l-5.9,3.4c-0.2,0.1-0.2,0.4,0,0.5l6.8,3.9
		c0.3,0.2,0.7,0.2,0.9,0l5.9-3.4c0.2-0.1,0.2-0.4,0-0.5l-6.8-3.9C439.9,387.2,439.5,387.2,439.2,387.3z M422.1,397.2l-5.9,3.4
		c-0.2,0.1-0.2,0.4,0,0.5l6.8,3.9c0.3,0.2,0.7,0.2,0.9,0l5.9-3.4c0.2-0.1,0.2-0.4,0-0.5l-6.8-3.9
		C422.8,397.1,422.4,397.1,422.1,397.2z M413.5,402.2l-5.9,3.4c-0.2,0.1-0.2,0.4,0,0.5l6.8,3.9c0.3,0.2,0.7,0.2,0.9,0l5.9-3.4
		c0.2-0.1,0.2-0.4,0-0.5l-6.8-3.9C414.2,402,413.8,402,413.5,402.2z M405,407.1l-5.9,3.4c-0.2,0.1-0.2,0.4,0,0.5l6.8,3.9
		c0.3,0.2,0.7,0.2,0.9,0l5.9-3.4c0.2-0.1,0.2-0.4,0-0.5l-6.8-3.9C405.6,407,405.2,407,405,407.1z M448.8,413.1l5.9-3.4
		c0.2-0.1,0.2-0.4,0-0.5l-6.8-3.9c-0.3-0.2-0.7-0.2-0.9,0l-5.9,3.4c-0.2,0.1-0.2,0.4,0,0.5l6.8,3.9
		C448.1,413.3,448.5,413.3,448.8,413.1z M524,338.4l-5.9,3.4c-0.2,0.1-0.2,0.4,0,0.5l6.8,3.9c0.3,0.2,0.7,0.2,0.9,0l5.9-3.4
		c0.2-0.1,0.2-0.4,0-0.5l-6.8-3.9C524.7,338.3,524.3,338.2,524,338.4z M513.6,344.4l-5.9,3.4c-0.2,0.1-0.2,0.4,0,0.5l6.8,3.9
		c0.3,0.2,0.7,0.2,0.9,0l5.9-3.4c0.2-0.1,0.2-0.4,0-0.5l-6.8-3.9C514.3,344.2,513.9,344.2,513.6,344.4z M532.6,333.4l-5.9,3.4
		c-0.2,0.1-0.2,0.4,0,0.5l6.8,3.9c0.3,0.2,0.7,0.2,0.9,0l5.9-3.4c0.2-0.1,0.2-0.4,0-0.5l-6.8-3.9
		C533.2,333.3,532.8,333.3,532.6,333.4z M488.2,379.2l5.9-3.4c0.2-0.1,0.2-0.4,0-0.5l-6.8-3.9c-0.3-0.2-0.7-0.2-0.9,0l-5.9,3.4
		c-0.2,0.1-0.2,0.4,0,0.5l6.8,3.9C487.6,379.3,488,379.3,488.2,379.2z M542.1,328.5c-0.3-0.2-0.7-0.2-0.9,0l-5.9,3.4
		c-0.2,0.1-0.2,0.4,0,0.5l6.8,3.9c0.3,0.2,0.7,0.2,0.9,0l5.9-3.4c0.2-0.1,0.2-0.4,0-0.5L542.1,328.5z M457.3,408.2l5.9-3.4
		c0.2-0.1,0.2-0.4,0-0.5l-6.8-3.9c-0.3-0.2-0.7-0.2-0.9,0l-5.9,3.4c-0.2,0.1-0.2,0.4,0,0.5l6.8,3.9
		C456.7,408.3,457.1,408.3,457.3,408.2z M562.4,347.5l5.9-3.4c0.2-0.1,0.2-0.4,0-0.5l-6.8-3.9c-0.3-0.2-0.7-0.2-0.9,0l-5.9,3.4
		c-0.2,0.1-0.2,0.4,0,0.5l6.8,3.9C561.7,347.7,562.1,347.7,562.4,347.5z M544.1,346.9l5.9-3.4c0.2-0.1,0.2-0.4,0-0.5l-6.8-3.9
		c-0.3-0.2-0.7-0.2-0.9,0l-5.9,3.4c-0.2,0.1-0.2,0.4,0,0.5l6.8,3.9C543.5,347,543.9,347,544.1,346.9z M551.8,334.1
		c-0.3-0.2-0.7-0.2-0.9,0l-5.9,3.4c-0.2,0.1-0.2,0.4,0,0.5l6.8,3.9c0.3,0.2,0.7,0.2,0.9,0l5.9-3.4c0.2-0.1,0.2-0.4,0-0.5
		L551.8,334.1z M553.6,333.1l16.5,9.5c0.3,0.2,0.7,0.2,0.9,0l5.9-3.4c0.2-0.1,0.2-0.4,0-0.5l-16.5-9.5c-0.3-0.2-0.7-0.2-0.9,0
		l-5.9,3.4C553.3,332.7,553.3,332.9,553.6,333.1z M533.7,344l-5.9,3.4c-0.2,0.1-0.2,0.4,0,0.5l6.8,3.9c0.3,0.2,0.7,0.2,0.9,0
		l5.9-3.4c0.2-0.1,0.2-0.4,0-0.5l-6.8-3.9C534.4,343.8,533.9,343.8,533.7,344z M469.2,381.2l-5.9,3.4c-0.2,0.1-0.2,0.4,0,0.5
		l6.8,3.9c0.3,0.2,0.7,0.2,0.9,0l5.9-3.4c0.2-0.1,0.2-0.4,0-0.5l-6.8-3.9C469.9,381.1,469.5,381.1,469.2,381.2z M552.9,352.5
		c0.3,0.2,0.7,0.2,0.9,0l5.9-3.4c0.2-0.1,0.2-0.4,0-0.5l-6.8-3.9c-0.3-0.2-0.7-0.2-0.9,0l-5.9,3.4c-0.2,0.1-0.2,0.4,0,0.5
		L552.9,352.5z M477.8,376.3l-5.9,3.4c-0.2,0.1-0.2,0.4,0,0.5l6.8,3.9c0.3,0.2,0.7,0.2,0.9,0l5.9-3.4c0.2-0.1,0.2-0.4,0-0.5
		l-6.8-3.9C478.4,376.1,478,376.1,477.8,376.3z M413.6,432.9c0.3,0.2,0.7,0.2,0.9,0l5.9-3.4c0.2-0.1,0.2-0.4,0-0.5l-6.8-3.9
		c-0.3-0.2-0.7-0.2-0.9,0l-5.9,3.4c-0.2,0.1-0.2,0.4,0,0.5L413.6,432.9z M400.7,420.8l-5.9,3.4c-0.2,0.1-0.2,0.4,0,0.5l6.8,3.9
		c0.3,0.2,0.7,0.2,0.9,0l5.9-3.4c0.2-0.1,0.2-0.4,0-0.5l-6.8-3.9C401.3,420.6,400.9,420.6,400.7,420.8z M423.1,428l5.9-3.4
		c0.2-0.1,0.2-0.4,0-0.5l-6.8-3.9c-0.3-0.2-0.7-0.2-0.9,0l-5.9,3.4c-0.2,0.1-0.2,0.4,0,0.5l6.8,3.9
		C422.4,428.1,422.8,428.1,423.1,428z M431.6,423l5.9-3.4c0.2-0.1,0.2-0.4,0-0.5l-6.8-3.9c-0.3-0.2-0.7-0.2-0.9,0l-5.9,3.4
		c-0.2,0.1-0.2,0.4,0,0.5l6.8,3.9C431,423.2,431.4,423.2,431.6,423z M440.2,418.1l5.9-3.4c0.2-0.1,0.2-0.4,0-0.5l-6.8-3.9
		c-0.3-0.2-0.7-0.2-0.9,0l-5.9,3.4c-0.2,0.1-0.2,0.4,0,0.5l6.8,3.9C439.5,418.2,439.9,418.2,440.2,418.1z M409.2,415.8l-5.9,3.4
		c-0.2,0.1-0.2,0.4,0,0.5l6.8,3.9c0.3,0.2,0.7,0.2,0.9,0l5.9-3.4c0.2-0.1,0.2-0.4,0-0.5l-6.8-3.9
		C409.9,415.7,409.5,415.7,409.2,415.8z M417.8,410.9l-5.9,3.4c-0.2,0.1-0.2,0.4,0,0.5l6.8,3.9c0.3,0.2,0.7,0.2,0.9,0l5.9-3.4
		c0.2-0.1,0.2-0.4,0-0.5l-6.8-3.9C418.5,410.7,418.1,410.7,417.8,410.9z M452.1,391.1l-5.9,3.4c-0.2,0.1-0.2,0.4,0,0.5l6.8,3.9
		c0.3,0.2,0.7,0.2,0.9,0l5.9-3.4c0.2-0.1,0.2-0.4,0-0.5l-6.8-3.9C452.7,391,452.3,391,452.1,391.1z M443.5,396l-5.9,3.4
		c-0.2,0.1-0.2,0.4,0,0.5l6.8,3.9c0.3,0.2,0.7,0.2,0.9,0l5.9-3.4c0.2-0.1,0.2-0.4,0-0.5l-6.8-3.9C444.2,395.9,443.8,395.9,443.5,396
		z M460.6,386.2l-5.9,3.4c-0.2,0.1-0.2,0.4,0,0.5l6.8,3.9c0.3,0.2,0.7,0.2,0.9,0l5.9-3.4c0.2-0.1,0.2-0.4,0-0.5l-6.8-3.9
		C461.3,386,460.9,386,460.6,386.2z M426.4,405.9l-5.9,3.4c-0.2,0.1-0.2,0.4,0,0.5l6.8,3.9c0.3,0.2,0.7,0.2,0.9,0l5.9-3.4
		c0.2-0.1,0.2-0.4,0-0.5l-6.8-3.9C427,405.8,426.6,405.8,426.4,405.9z M434.9,401l-5.9,3.4c-0.2,0.1-0.2,0.4,0,0.5l6.8,3.9
		c0.3,0.2,0.7,0.2,0.9,0l5.9-3.4c0.2-0.1,0.2-0.4,0-0.5l-6.8-3.9C435.6,400.9,435.2,400.8,434.9,401z M428.7,435.9l5.9-3.4
		c0.2-0.1,0.2-0.4,0-0.5l-6.8-3.9c-0.3-0.2-0.7-0.2-0.9,0l-5.9,3.4c-0.2,0.1-0.2,0.4,0,0.5l6.8,3.9C428,436,428.4,436.1,428.7,435.9
		z M378.4,430.8l-6.8-3.9c-0.3-0.2-0.7-0.2-0.9,0l-5.9,3.4c-0.2,0.1-0.2,0.4,0,0.5l6.8,3.9c0.3,0.2,0.7,0.2,0.9,0l5.9-3.4
		C378.7,431.2,378.7,431,378.4,430.8z M391.3,434.6l-6.8-3.9c-0.3-0.2-0.7-0.2-0.9,0l-9,5.2c-0.2,0.1-0.2,0.4,0,0.5l6.8,3.9
		c0.3,0.2,0.7,0.2,0.9,0l9-5.2C391.5,435,391.5,434.8,391.3,434.6z M368,423.3l-6.8-3.9c-0.3-0.2-0.7-0.2-0.9,0l-7.2,4.2
		c-0.2,0.1-0.2,0.4,0,0.5l6.8,3.9c0.3,0.2,0.7,0.2,0.9,0l7.2-4.2C368.3,423.7,368.3,423.4,368,423.3z M373.5,420.1
		c0.3,0.2,0.7,0.2,0.9,0l5.9-3.4c0.2-0.1,0.2-0.4,0-0.5l-6.8-3.9c-0.3-0.2-0.7-0.2-0.9,0l-5.9,3.4c-0.2,0.1-0.2,0.4,0,0.5
		L373.5,420.1z M403.2,438.9l-6.8-3.9c-0.3-0.2-0.7-0.2-0.9,0l-11.3,6.5c-0.2,0.1-0.2,0.4,0,0.5l6.8,3.9c0.3,0.2,0.7,0.2,0.9,0
		l11.3-6.5C403.5,439.3,403.5,439,403.2,438.9z M408.8,446.8l-6.8-3.9c-0.3-0.2-0.7-0.2-0.9,0l-7.2,4.2c-0.2,0.1-0.2,0.4,0,0.5
		l6.8,3.9c0.3,0.2,0.7,0.2,0.9,0l7.2-4.2C409.1,447.2,409.1,447,408.8,446.8z M437.2,383.3c0.3,0.2,0.7,0.2,0.9,0l5.9-3.4
		c0.2-0.1,0.2-0.4,0-0.5l-6.8-3.9c-0.3-0.2-0.7-0.2-0.9,0l-5.9,3.4c-0.2,0.1-0.2,0.4,0,0.5L437.2,383.3z M420.1,393.2
		c0.3,0.2,0.7,0.2,0.9,0l5.9-3.4c0.2-0.1,0.2-0.4,0-0.5l-6.8-3.9c-0.3-0.2-0.7-0.2-0.9,0l-5.9,3.4c-0.2,0.1-0.2,0.4,0,0.5
		L420.1,393.2z M382.1,415.1c0.3,0.2,0.7,0.2,0.9,0l5.9-3.4c0.2-0.1,0.2-0.4,0-0.5l-6.8-3.9c-0.3-0.2-0.7-0.2-0.9,0l-5.9,3.4
		c-0.2,0.1-0.2,0.4,0,0.5L382.1,415.1z M428.7,388.2c0.3,0.2,0.7,0.2,0.9,0l5.9-3.4c0.2-0.1,0.2-0.4,0-0.5l-6.8-3.9
		c-0.3-0.2-0.7-0.2-0.9,0l-5.9,3.4c-0.2,0.1-0.2,0.4,0,0.5L428.7,388.2z M411.5,398.1c0.3,0.2,0.7,0.2,0.9,0l5.9-3.4
		c0.2-0.1,0.2-0.4,0-0.5l-6.8-3.9c-0.3-0.2-0.7-0.2-0.9,0l-5.9,3.4c-0.2,0.1-0.2,0.4,0,0.5L411.5,398.1z M413.5,447.5
		c-0.3-0.2-0.7-0.2-0.9,0l-9,5.2c-0.2,0.1-0.2,0.4,0,0.5l6.8,3.9c0.3,0.2,0.7,0.2,0.9,0l9-5.2c0.2-0.1,0.2-0.4,0-0.5L413.5,447.5z
		 M399.2,405.2c0.3,0.2,0.7,0.2,0.9,0l5.9-3.4c0.2-0.1,0.2-0.4,0-0.5l-6.8-3.9c-0.3-0.2-0.7-0.2-0.9,0l-5.9,3.4
		c-0.2,0.1-0.2,0.4,0,0.5L399.2,405.2z M390.7,410.2c0.3,0.2,0.7,0.2,0.9,0l5.9-3.4c0.2-0.1,0.2-0.4,0-0.5l-6.8-3.9
		c-0.3-0.2-0.7-0.2-0.9,0l-5.9,3.4c-0.2,0.1-0.2,0.4,0,0.5L390.7,410.2z M572.2,355.8c-0.3-0.2-0.7-0.2-0.9,0l-14.4,8.3
		c-0.2,0.1-0.2,0.4,0,0.5l6.8,3.9c0.3,0.2,0.7,0.2,0.9,0l14.4-8.3c0.2-0.1,0.2-0.4,0-0.5L572.2,355.8z M553.3,366.8
		c-0.3-0.2-0.7-0.2-0.9,0l-5.9,3.4c-0.2,0.1-0.2,0.4,0,0.5l6.8,3.9c0.3,0.2,0.7,0.2,0.9,0l5.9-3.4c0.2-0.1,0.2-0.4,0-0.5
		L553.3,366.8z M437.3,431l5.9-3.4c0.2-0.1,0.2-0.4,0-0.5l-6.8-3.9c-0.3-0.2-0.7-0.2-0.9,0l-5.9,3.4c-0.2,0.1-0.2,0.4,0,0.5l6.8,3.9
		C436.6,431.1,437,431.1,437.3,431z M536.2,376.6c-0.3-0.2-0.7-0.2-0.9,0l-5.9,3.4c-0.2,0.1-0.2,0.4,0,0.5l6.8,3.9
		c0.3,0.2,0.7,0.2,0.9,0l5.9-3.4c0.2-0.1,0.2-0.4,0-0.5L536.2,376.6z M580.8,350.9c-0.3-0.2-0.7-0.2-0.9,0l-5.9,3.4
		c-0.2,0.1-0.2,0.4,0,0.5l6.8,3.9c0.3,0.2,0.7,0.2,0.9,0l5.9-3.4c0.2-0.1,0.2-0.4,0-0.5L580.8,350.9z M596.2,349.8l-16.5-9.5
		c-0.3-0.2-0.7-0.2-0.9,0l-5.9,3.4c-0.2,0.1-0.2,0.4,0,0.5l16.5,9.5c0.3,0.2,0.7,0.2,0.9,0l5.9-3.4
		C596.4,350.2,596.4,350,596.2,349.8z M504.2,395.1c-0.3-0.2-0.7-0.2-0.9,0l-7.2,4.2c-0.2,0.1-0.2,0.4,0,0.5l6.8,3.9
		c0.3,0.2,0.7,0.2,0.9,0l7.2-4.2c0.2-0.1,0.2-0.4,0-0.5L504.2,395.1z M525.8,382.6c-0.3-0.2-0.7-0.2-0.9,0l-9,5.2
		c-0.2,0.1-0.2,0.4,0,0.5l6.8,3.9c0.3,0.2,0.7,0.2,0.9,0l9-5.2c0.2-0.1,0.2-0.4,0-0.5L525.8,382.6z M484.3,406.6
		c-0.3-0.2-0.7-0.2-0.9,0l-48.2,27.9c-0.2,0.1-0.2,0.4,0,0.5l6.8,3.9c0.3,0.2,0.7,0.2,0.9,0l48.2-27.9c0.2-0.1,0.2-0.4,0-0.5
		L484.3,406.6z M433.4,436c-0.3-0.2-0.7-0.2-0.9,0l-7.2,4.2c-0.2,0.1-0.2,0.4,0,0.5l6.8,3.9c0.3,0.2,0.7,0.2,0.9,0l7.2-4.2
		c0.2-0.1,0.2-0.4,0-0.5L433.4,436z M494.2,400.9c-0.3-0.2-0.7-0.2-0.9,0l-7.2,4.2c-0.2,0.1-0.2,0.4,0,0.5l6.8,3.9
		c0.3,0.2,0.7,0.2,0.9,0l7.2-4.2c0.2-0.1,0.2-0.4,0-0.5L494.2,400.9z M423.4,441.7c-0.3-0.2-0.7-0.2-0.9,0l-7.2,4.2
		c-0.2,0.1-0.2,0.4,0,0.5l6.8,3.9c0.3,0.2,0.7,0.2,0.9,0l7.2-4.2c0.2-0.1,0.2-0.4,0-0.5L423.4,441.7z M514.1,389.4
		c-0.3-0.2-0.7-0.2-0.9,0l-7.2,4.2c-0.2,0.1-0.2,0.4,0,0.5l6.8,3.9c0.3,0.2,0.7,0.2,0.9,0l7.2-4.2c0.2-0.1,0.2-0.4,0-0.5
		L514.1,389.4z M544.7,371.7c-0.3-0.2-0.7-0.2-0.9,0l-5.9,3.4c-0.2,0.1-0.2,0.4,0,0.5l6.8,3.9c0.3,0.2,0.7,0.2,0.9,0l5.9-3.4
		c0.2-0.1,0.2-0.4,0-0.5L544.7,371.7z M563.5,358.1l5.9-3.4c0.2-0.1,0.2-0.4,0-0.5l-6.8-3.9c-0.3-0.2-0.7-0.2-0.9,0l-5.9,3.4
		c-0.2,0.1-0.2,0.4,0,0.5l6.8,3.9C562.8,358.2,563.3,358.2,563.5,358.1z M525.2,357.8l5.9-3.4c0.2-0.1,0.2-0.4,0-0.5l-6.8-3.9
		c-0.3-0.2-0.7-0.2-0.9,0l-5.9,3.4c-0.2,0.1-0.2,0.4,0,0.5l6.8,3.9C524.5,358,525,358,525.2,357.8z M505.8,391.4l17.1-9.9
		c0.2-0.1,0.2-0.4,0-0.5l-6.8-3.9c-0.3-0.2-0.7-0.2-0.9,0l-17.1,9.9c-0.2,0.1-0.2,0.4,0,0.5l6.8,3.9
		C505.1,391.5,505.5,391.5,505.8,391.4z M554,363c0.3,0.2,0.7,0.2,0.9,0l5.9-3.4c0.2-0.1,0.2-0.4,0-0.5l-6.8-3.9
		c-0.3-0.2-0.7-0.2-0.9,0l-5.9,3.4c-0.2,0.1-0.2,0.4,0,0.5L554,363z M545.3,357.4l5.9-3.4c0.2-0.1,0.2-0.4,0-0.5l-6.8-3.9
		c-0.3-0.2-0.7-0.2-0.9,0l-5.9,3.4c-0.2,0.1-0.2,0.4,0,0.5l6.8,3.9C544.6,357.6,545,357.6,545.3,357.4z M497.2,396.3l5.9-3.4
		c0.2-0.1,0.2-0.4,0-0.5l-6.8-3.9c-0.3-0.2-0.7-0.2-0.9,0l-5.9,3.4c-0.2,0.1-0.2,0.4,0,0.5l6.8,3.9
		C496.6,396.5,497,396.5,497.2,396.3z M535.1,373.9c0.3,0.2,0.7,0.2,0.9,0l5.9-3.4c0.2-0.1,0.2-0.4,0-0.5l-6.8-3.9
		c-0.3-0.2-0.7-0.2-0.9,0l-5.9,3.4c-0.2,0.1-0.2,0.4,0,0.5L535.1,373.9z M454.4,421.1l5.9-3.4c0.2-0.1,0.2-0.4,0-0.5l-6.8-3.9
		c-0.3-0.2-0.7-0.2-0.9,0l-5.9,3.4c-0.2,0.1-0.2,0.4,0,0.5l6.8,3.9C453.7,421.2,454.1,421.2,454.4,421.1z M463,416.1l5.9-3.4
		c0.2-0.1,0.2-0.4,0-0.5l-6.8-3.9c-0.3-0.2-0.7-0.2-0.9,0l-5.9,3.4c-0.2,0.1-0.2,0.4,0,0.5l6.8,3.9
		C462.3,416.3,462.7,416.3,463,416.1z M445.8,426l5.9-3.4c0.2-0.1,0.2-0.4,0-0.5l-6.8-3.9c-0.3-0.2-0.7-0.2-0.9,0l-5.9,3.4
		c-0.2,0.1-0.2,0.4,0,0.5l6.8,3.9C445.2,426.2,445.6,426.2,445.8,426z M480.1,406.2l5.9-3.4c0.2-0.1,0.2-0.4,0-0.5l-6.8-3.9
		c-0.3-0.2-0.7-0.2-0.9,0l-5.9,3.4c-0.2,0.1-0.2,0.4,0,0.5l6.8,3.9C479.4,406.4,479.8,406.4,480.1,406.2z M471.5,411.2l5.9-3.4
		c0.2-0.1,0.2-0.4,0-0.5l-6.8-3.9c-0.3-0.2-0.7-0.2-0.9,0l-5.9,3.4c-0.2,0.1-0.2,0.4,0,0.5l6.8,3.9
		C470.9,411.3,471.3,411.3,471.5,411.2z M488.7,401.3l5.9-3.4c0.2-0.1,0.2-0.4,0-0.5l-6.8-3.9c-0.3-0.2-0.7-0.2-0.9,0l-5.9,3.4
		c-0.2,0.1-0.2,0.4,0,0.5l6.8,3.9C488,401.4,488.4,401.4,488.7,401.3z M527.9,328.1c0.3,0.2,0.7,0.2,0.9,0l5.9-3.4
		c0.2-0.1,0.2-0.4,0-0.5l-1.8-1c-0.3-0.2-0.7-0.2-0.9,0l-5.9,3.4c-0.2,0.1-0.2,0.4,0,0.5L527.9,328.1z M485.7,355.3
		c0.3,0.2,0.7,0.2,0.9,0l5.9-3.4c0.2-0.1,0.2-0.4,0-0.5l-6.8-3.9c-0.3-0.2-0.7-0.2-0.9,0l-5.9,3.4c-0.2,0.1-0.2,0.4,0,0.5
		L485.7,355.3z M502.8,345.4c0.3,0.2,0.7,0.2,0.9,0l5.9-3.4c0.2-0.1,0.2-0.4,0-0.5l-6.8-3.9c-0.3-0.2-0.7-0.2-0.9,0L496,341
		c-0.2,0.1-0.2,0.4,0,0.5L502.8,345.4z M475.2,361.4c0.3,0.2,0.7,0.2,0.9,0l5.9-3.4c0.2-0.1,0.2-0.4,0-0.5l-6.8-3.9
		c-0.3-0.2-0.7-0.2-0.9,0l-5.9,3.4c-0.2,0.1-0.2,0.4,0,0.5L475.2,361.4z M494.3,350.4c0.3,0.2,0.7,0.2,0.9,0l5.9-3.4
		c0.2-0.1,0.2-0.4,0-0.5l-6.8-3.9c-0.3-0.2-0.7-0.2-0.9,0l-5.9,3.4c-0.2,0.1-0.2,0.4,0,0.5L494.3,350.4z M458.1,371.3
		c0.3,0.2,0.7,0.2,0.9,0l5.9-3.4c0.2-0.1,0.2-0.4,0-0.5l-6.8-3.9c-0.3-0.2-0.7-0.2-0.9,0l-5.9,3.4c-0.2,0.1-0.2,0.4,0,0.5
		L458.1,371.3z M466.7,366.3c0.3,0.2,0.7,0.2,0.9,0l5.9-3.4c0.2-0.1,0.2-0.4,0-0.5l-6.8-3.9c-0.3-0.2-0.7-0.2-0.9,0l-5.9,3.4
		c-0.2,0.1-0.2,0.4,0,0.5L466.7,366.3z M510.7,338c0.3,0.2,0.7,0.2,0.9,0l5.9-3.4c0.2-0.1,0.2-0.4,0-0.5l-1.8-1
		c-0.3-0.2-0.7-0.2-0.9,0l-5.9,3.4c-0.2,0.1-0.2,0.4,0,0.5L510.7,338z M536.4,323.2c0.3,0.2,0.7,0.2,0.9,0l5.9-3.4
		c0.2-0.1,0.2-0.4,0-0.5l-1.8-1c-0.3-0.2-0.7-0.2-0.9,0l-5.9,3.4c-0.2,0.1-0.2,0.4,0,0.5L536.4,323.2z M550.7,331.4
		c0.3,0.2,0.7,0.2,0.9,0l5.9-3.4c0.2-0.1,0.2-0.4,0-0.5l-6.8-3.9c-0.3-0.2-0.7-0.2-0.9,0l-5.9,3.4c-0.2,0.1-0.2,0.4,0,0.5
		L550.7,331.4z M572.1,353.1l5.9-3.4c0.2-0.1,0.2-0.4,0-0.5l-6.8-3.9c-0.3-0.2-0.7-0.2-0.9,0l-5.9,3.4c-0.2,0.1-0.2,0.4,0,0.5
		l6.8,3.9C571.4,353.3,571.8,353.3,572.1,353.1z M519.3,333.1c0.3,0.2,0.7,0.2,0.9,0l5.9-3.4c0.2-0.1,0.2-0.4,0-0.5l-1.8-1
		c-0.3-0.2-0.7-0.2-0.9,0l-5.9,3.4c-0.2,0.1-0.2,0.4,0,0.5L519.3,333.1z M449.5,376.2c0.3,0.2,0.7,0.2,0.9,0l5.9-3.4
		c0.2-0.1,0.2-0.4,0-0.5l-6.8-3.9c-0.3-0.2-0.7-0.2-0.9,0l-5.9,3.4c-0.2,0.1-0.2,0.4,0,0.5L449.5,376.2z"/>
	<path id="XMLID_168_" class="st5" d="M487.5,427.6l57.8-33.4c1.7-1,4.6-1,6.3,0l33.2,19.2c1.7,1,1.7,2.6,0,3.6L527,450.4
		c-1.7,1-4.6,1-6.3,0l-33.2-19.2C485.8,430.3,485.8,428.6,487.5,427.6z"/>
	<g>
		<path id="XMLID_1436_" class="st9" d="M567.9,226.4L567.9,226.4L567.9,226.4l-9.8-5.7c-0.6-0.3-1.4,0-2.4,0.7
			c-9,6.9-21.2,9.1-31.1,5.9c-0.6-0.6-1.2-1.2-1.8-1.9c-0.1-0.1-0.1-0.1-0.2-0.2l0,0c-0.3-0.4-0.7-0.6-1-0.8l-0.2-0.1l-9.7-5.6
			c-1.1-0.5-2.1,0-2.8,1.6c-9.4,23.3-29.4,47-42.8,52.9c-1,0.4-1.9,1.1-2.6,2c-0.9,1.1-1.5,2.4-1.5,3.8l1.9,52.4
			c0,15.1,6.4,31.1,19.4,38.9l10.1,5.8l0.2,0.1c5,2.9,10.9,4.5,17.8,4.5c1.4,0,2.8-0.1,4.3-0.2c2.5-0.2,5.9-2,7.6-3.8
			c29.2-30.1,43.4-70.9,43.4-93.5l1.9-54.8C568.7,227.4,568.4,226.7,567.9,226.4z"/>
		<g>
			<path id="XMLID_1457_" class="st2" d="M568.6,228.6l-1.9,54.8c0,22.6-14.2,63.3-43.4,93.5c-1.7,1.8-5.1,3.6-7.6,3.8
				c-1.5,0.1-2.9,0.2-4.3,0.2c-6.9,0-12.8-1.7-17.8-4.5l-0.2-0.1l-0.3-0.2c-13-7.8-19.4-23.8-19.4-38.9l-1.9-52.4
				c0-1.4,0.5-2.7,1.5-3.8c0.7-0.8,1.6-1.5,2.6-2c13.3-5.9,33.4-29.6,42.8-52.9c0.7-1.6,1.7-2.2,2.8-1.7l0,0l0.2,0.1
				c0.3,0.2,0.7,0.5,1,0.8l0,0c0.1,0.1,0.1,0.1,0.2,0.2c10,11.6,29.6,11.6,42.7,1.6c1-0.8,1.8-1,2.4-0.7h0.1l0,0
				C568.4,226.7,568.7,227.4,568.6,228.6z"/>
			<g id="XMLID_1433_">
				<path id="XMLID_1454_" class="st10" d="M567.8,226.3c-0.6-0.3-1.4,0-2.4,0.7c-12.3,9.4-30.4,10-40.8,0.3
					c9.9,3.2,22.1,1,31.1-5.9c1-0.8,1.8-1,2.4-0.7L567.8,226.3z"/>
				<path id="XMLID_1458_" class="st10" d="M521.4,224.4c-1.1-0.5-2.1,0-2.8,1.7c-9.4,23.3-29.4,47-42.8,52.9c-1,0.4-1.9,1.1-2.6,2
					c-0.3,0.3-0.5,0.6-0.7,0.9l-9.7-5.6c0.2-0.3,0.4-0.6,0.7-0.9c0.1-0.2,0.3-0.3,0.4-0.4l0,0c0.1,0,0.1-0.1,0.2-0.2
					c0.1,0,0.1-0.1,0.2-0.2c0.5-0.5,1.2-0.9,1.9-1.2c13.3-5.9,33.4-29.6,42.8-52.9c0.7-1.6,1.7-2.2,2.8-1.6L521.4,224.4z"/>
				<path id="XMLID_1463_" class="st11" d="M464,274.8c0-0.1,0.1-0.1,0.2-0.2C464.1,274.7,464,274.8,464,274.8
					S463.9,274.8,464,274.8z"/>
				<path id="XMLID_1455_" class="st12" d="M464.1,274.7c-0.1,0.1-0.1,0.1-0.2,0.2l0,0C464,274.8,464.1,274.7,464.1,274.7z"/>
			</g>
			<path id="XMLID_1453_" class="st12" d="M493.6,376.4l-0.2-0.1l-10.1-5.8c-13-7.8-19.4-23.8-19.4-38.9l-1.9-52.4
				c0-1,0.3-2,0.8-2.9l9.7,5.6c-0.5,0.9-0.8,1.9-0.8,2.9l1.9,52.4c0,15.1,6.4,31.1,19.4,38.9l0.3,0.2L493.6,376.4z"/>
			<g id="XMLID_308_">
				<path id="XMLID_332_" class="st6" d="M528,328.1l-15.5,9l2.4-28.1c-1.9-1-3-3.4-3-6.9c0-6.2,3.8-13.4,8.4-16.1
					c4.6-2.7,8.4,0.2,8.4,6.4c0,3.5-1.2,7.3-3,10.4L528,328.1z"/>
				<polygon id="XMLID_327_" class="st4" points="528,328.1 513.9,320 512.4,337.1 				"/>
				<path id="XMLID_313_" class="st4" d="M520.2,286.1c-3,1.8-5.7,5.4-7.2,9.5l12.5,7.2l0,0c1.9-3.1,3-6.9,3-10.4
					C528.6,286.2,524.8,283.4,520.2,286.1z"/>
			</g>
		</g>
	</g>
	<g>
		<path id="XMLID_369_" class="st13" d="M381.9,527.9v4.7c0,5.6,3.7,11.2,11,15.4c11.1,6.4,27.4,8,41.1,4.7l12.7,7.3l9.7-2.2
			l6.7,3.8l0.4,8l3.6,2.1l9,0.8l6.5,3.6v4.5l8.1,4.7h20.6l7.4-4.3v-4.8l-66-33.3c3-3.2,4.6-6.8,4.6-10.4v-4.8c-1-4.6-4.9-7-11-10.6
			c-14.7-8.5-38.6-8.5-53.3,0C386.4,521.1,382.6,522.9,381.9,527.9z M402.2,522.3c4.2-2.4,10.9-2.4,15.1,0s4.2,6.3,0,8.7
			s-10.9,2.4-15.1,0S398,524.7,402.2,522.3z"/>
		<path id="XMLID_306_" class="st14" d="M381.9,527.9v4.7c0,5.6,3.7,11.2,11,15.4c11.1,6.4,27.4,8,41.1,4.7l12.7,7.3l9.7-2.2
			l6.7,3.8l0.4,8l3.6,2.1l9,0.8l6.5,3.6v4.5l8.1,4.7h20.6l7.4-4.3v-4.8l-66-33.3c3-3.2,4.6-6.8,4.6-10.4v-4.8c-1-4.6-4.9-7-11-10.6
			c-14.7-8.5-38.6-8.5-53.3,0C386.4,521.1,382.6,522.9,381.9,527.9z M402.2,522.3c4.2-2.4,10.9-2.4,15.1,0s4.2,6.3,0,8.7
			s-10.9,2.4-15.1,0S398,524.7,402.2,522.3z"/>
		<path id="XMLID_1237_" class="st14" d="M406,548.2v4.8c9,2,19.1,1.9,28-0.2V548C425.1,550.1,415,550.2,406,548.2z"/>
		<polygon id="XMLID_383_" class="st14" points="446.7,555.3 446.7,560.1 456.5,557.9 456.5,553.1 		"/>
		<g>
			<path id="XMLID_377_" class="st2" d="M393,543.3c11.1,6.4,27.4,8,41.1,4.7l12.7,7.3l9.7-2.2l6.7,3.8l0.4,8l3.6,2.1l9,0.8l7,3.9
				l-0.5,4.2l8.1,4.7h20.6l7.4-4.3l-66-38.1c7.8-8.2,5.6-18.8-6.4-25.8c-14.7-8.5-38.6-8.5-53.3,0C378.3,521,378.3,534.8,393,543.3z
				 M402.2,517.5c4.2-2.4,10.9-2.4,15.1,0s4.2,6.3,0,8.7s-10.9,2.4-15.1,0S398,519.9,402.2,517.5z"/>
			<path class="st15" d="M419.6,545.5c-9.3,0-18.1-2.1-24.5-5.8c-5.7-3.3-8.9-7.6-8.9-11.8s3.3-8.5,8.9-11.8
				c6.5-3.7,15.2-5.8,24.5-5.8s18.1,2.1,24.5,5.8c5.7,3.3,8.9,7.6,8.9,11.8s-3.3,8.5-8.9,11.8C437.7,543.4,428.9,545.5,419.6,545.5z
				 M419.6,512c-9,0-17.5,2-23.7,5.6c-5.2,3-8.1,6.7-8.1,10.3s3,7.3,8.1,10.3c6.2,3.6,14.7,5.6,23.7,5.6s17.5-2,23.7-5.6
				c5.2-3,8.1-6.7,8.1-10.3s-3-7.3-8.1-10.3C437.1,514,428.7,512,419.6,512z"/>
			<polygon id="XMLID_367_" class="st16" points="516.3,577.7 516.3,579.8 448.6,540.7 450.4,539.7 			"/>
		</g>
		<polygon id="XMLID_350_" class="st16" points="450.4,539.7 450.4,541.8 448.6,540.7 		"/>
	</g>
	<g>
		<g>
			<g>
				<g>
					<g class="st17">
						
							<linearGradient id="SVGID_1_" gradientUnits="userSpaceOnUse" x1="286" y1="232.3775" x2="391.5" y2="232.3775" gradientTransform="matrix(1 0 0 -1 0 737.89)">
							<stop  offset="0" style="stop-color:#5661D5"/>
							<stop  offset="6.462777e-02" style="stop-color:#5470D6"/>
							<stop  offset="0.2729" style="stop-color:#4D9AD9"/>
							<stop  offset="0.4757" style="stop-color:#47BBDB"/>
							<stop  offset="0.6687" style="stop-color:#43D3DD"/>
							<stop  offset="0.848" style="stop-color:#41E1DE"/>
							<stop  offset="1" style="stop-color:#40E6DE"/>
						</linearGradient>
						<path class="st18" d="M342.9,476.7c-2.5-1.4-5.6-1.4-8.1,0l-48.2,27.7c-0.8,0.4-0.8,1.5,0,2l48.6,28c2.2,1.3,4.9,1.3,7.1,0
							l48.6-28c0.8-0.4,0.8-1.5,0-2L342.9,476.7z"/>
					</g>
					<g class="st17">
						
							<linearGradient id="SVGID_2_" gradientUnits="userSpaceOnUse" x1="286" y1="240.5775" x2="391.5" y2="240.5775" gradientTransform="matrix(1 0 0 -1 0 737.89)">
							<stop  offset="0" style="stop-color:#5661D5"/>
							<stop  offset="6.462777e-02" style="stop-color:#5470D6"/>
							<stop  offset="0.2729" style="stop-color:#4D9AD9"/>
							<stop  offset="0.4757" style="stop-color:#47BBDB"/>
							<stop  offset="0.6687" style="stop-color:#43D3DD"/>
							<stop  offset="0.848" style="stop-color:#41E1DE"/>
							<stop  offset="1" style="stop-color:#40E6DE"/>
						</linearGradient>
						<path class="st19" d="M342.9,468.5c-2.5-1.4-5.6-1.4-8.1,0l-48.2,27.7c-0.8,0.4-0.8,1.5,0,2l48.6,28c2.2,1.3,4.9,1.3,7.1,0
							l48.6-28c0.8-0.4,0.8-1.5,0-2L342.9,468.5z"/>
					</g>
					<g class="st17">
						
							<linearGradient id="SVGID_3_" gradientUnits="userSpaceOnUse" x1="286" y1="248.6775" x2="391.5" y2="248.6775" gradientTransform="matrix(1 0 0 -1 0 737.89)">
							<stop  offset="0" style="stop-color:#5661D5"/>
							<stop  offset="6.462777e-02" style="stop-color:#5470D6"/>
							<stop  offset="0.2729" style="stop-color:#4D9AD9"/>
							<stop  offset="0.4757" style="stop-color:#47BBDB"/>
							<stop  offset="0.6687" style="stop-color:#43D3DD"/>
							<stop  offset="0.848" style="stop-color:#41E1DE"/>
							<stop  offset="1" style="stop-color:#40E6DE"/>
						</linearGradient>
						<path class="st20" d="M342.9,460.4c-2.5-1.4-5.6-1.4-8.1,0l-48.2,27.7c-0.8,0.4-0.8,1.5,0,2l48.6,28c2.2,1.3,4.9,1.3,7.1,0
							l48.6-28c0.8-0.4,0.8-1.5,0-2L342.9,460.4z"/>
					</g>
					<g class="st17">
						
							<linearGradient id="SVGID_4_" gradientUnits="userSpaceOnUse" x1="286" y1="256.7775" x2="391.5" y2="256.7775" gradientTransform="matrix(1 0 0 -1 0 737.89)">
							<stop  offset="0" style="stop-color:#5661D5"/>
							<stop  offset="6.462777e-02" style="stop-color:#5470D6"/>
							<stop  offset="0.2729" style="stop-color:#4D9AD9"/>
							<stop  offset="0.4757" style="stop-color:#47BBDB"/>
							<stop  offset="0.6687" style="stop-color:#43D3DD"/>
							<stop  offset="0.848" style="stop-color:#41E1DE"/>
							<stop  offset="1" style="stop-color:#40E6DE"/>
						</linearGradient>
						<path class="st21" d="M342.9,452.3c-2.5-1.4-5.6-1.4-8.1,0L286.6,480c-0.8,0.4-0.8,1.5,0,2l48.6,28c2.2,1.3,4.9,1.3,7.1,0
							l48.6-28c0.8-0.4,0.8-1.5,0-2L342.9,452.3z"/>
					</g>
					
						<linearGradient id="SVGID_5_" gradientUnits="userSpaceOnUse" x1="286" y1="244.6275" x2="391.5" y2="244.6275" gradientTransform="matrix(1 0 0 -1 0 737.89)">
						<stop  offset="0" style="stop-color:#5661D5"/>
						<stop  offset="6.462777e-02" style="stop-color:#5470D6"/>
						<stop  offset="0.2729" style="stop-color:#4D9AD9"/>
						<stop  offset="0.4757" style="stop-color:#47BBDB"/>
						<stop  offset="0.6687" style="stop-color:#43D3DD"/>
						<stop  offset="0.848" style="stop-color:#41E1DE"/>
						<stop  offset="1" style="stop-color:#40E6DE"/>
					</linearGradient>
					<path class="st22" d="M391,480.1l-48.1-27.8c-2.5-1.4-5.6-1.4-8.1,0L286.6,480c-0.4,0.2-0.6,0.6-0.6,1v24.3
						c0,0.4,0.2,0.8,0.6,1l48.6,28c2.2,1.3,4.9,1.3,7.1,0l48.6-28c0.4-0.2,0.6-0.6,0.6-1V481l0,0C391.5,480.7,391.3,480.3,391,480.1
						z"/>
					<g class="st17">
						
							<linearGradient id="SVGID_6_" gradientUnits="userSpaceOnUse" x1="286" y1="256.7775" x2="391.5" y2="256.7775" gradientTransform="matrix(1 0 0 -1 0 737.89)">
							<stop  offset="0" style="stop-color:#5661D5"/>
							<stop  offset="6.462777e-02" style="stop-color:#5470D6"/>
							<stop  offset="0.2729" style="stop-color:#4D9AD9"/>
							<stop  offset="0.4757" style="stop-color:#47BBDB"/>
							<stop  offset="0.6687" style="stop-color:#43D3DD"/>
							<stop  offset="0.848" style="stop-color:#41E1DE"/>
							<stop  offset="1" style="stop-color:#40E6DE"/>
						</linearGradient>
						<path class="st23" d="M342.9,452.3c-2.5-1.4-5.6-1.4-8.1,0L286.6,480c-0.8,0.4-0.8,1.5,0,2l48.6,28c2.2,1.3,4.9,1.3,7.1,0
							l48.6-28c0.8-0.4,0.8-1.5,0-2L342.9,452.3z"/>
					</g>
					<g class="st24">
						<path class="st25" d="M341.4,462.8c-1.6-0.9-3.6-0.9-5.1,0l-30.7,17.7c-0.5,0.3-0.5,1,0,1.3l30.9,17.9c1.4,0.8,3.1,0.8,4.5,0
							l31-17.9c0.5-0.3,0.5-1,0-1.3L341.4,462.8z"/>
					</g>
					<g class="st26">
						<path class="st27" d="M340.5,468.2c-1.1-0.6-2.4-0.6-3.4,0l-21.6,12.4c-0.3,0.2-0.3,0.7,0,0.9l21.7,12.5c1,0.6,2.2,0.6,3.2,0
							l21.7-12.5c0.3-0.2,0.3-0.7,0-0.9L340.5,468.2z"/>
					</g>
					<path class="st27" d="M315.5,481.4l21.6-12.4c1.1-0.6,2.4-0.6,3.4,0l21.5,12.4l0,0c0.3-0.2,0.3-0.6,0-0.8l-21.5-12.4
						c-1.1-0.6-2.4-0.6-3.4,0l-21.6,12.4C315.2,480.8,315.2,481.3,315.5,481.4C315.5,481.5,315.5,481.4,315.5,481.4z"/>
					
						<linearGradient id="SVGID_7_" gradientUnits="userSpaceOnUse" x1="286.052" y1="242.1525" x2="391.4568" y2="242.1525" gradientTransform="matrix(1 0 0 -1 0 737.89)">
						<stop  offset="0" style="stop-color:#5661D5"/>
						<stop  offset="6.462777e-02" style="stop-color:#5470D6"/>
						<stop  offset="0.2729" style="stop-color:#4D9AD9"/>
						<stop  offset="0.4757" style="stop-color:#47BBDB"/>
						<stop  offset="0.6687" style="stop-color:#43D3DD"/>
						<stop  offset="0.848" style="stop-color:#41E1DE"/>
						<stop  offset="1" style="stop-color:#40E6DE"/>
					</linearGradient>
					<path class="st28" d="M391,480.9l-48.6,28c-2.2,1.3-4.9,1.3-7.1,0l-48.6-28c-0.2-0.1-0.3-0.3-0.4-0.4c-0.3,0.5-0.1,1.2,0.4,1.5
						l48.6,28c2.2,1.3,4.9,1.3,7.1,0l48.6-28c0.6-0.3,0.7-1,0.4-1.5C391.3,480.7,391.1,480.8,391,480.9z"/>
				</g>
			</g>
		</g>
		<g>
			<polygon class="st29" points="338.8,374.6 286.1,344.2 338.8,313.7 391.5,344.2 			"/>
			<polygon class="st30" points="338.8,370.3 293.6,344.2 338.8,318.1 384,344.2 			"/>
			<polygon class="st3" points="338.8,491.5 286.1,461.1 338.8,430.6 391.5,461.1 			"/>
			
				<linearGradient id="SVGID_8_" gradientUnits="userSpaceOnUse" x1="365.15" y1="279.2933" x2="365.15" y2="390.589" gradientTransform="matrix(1 0 0 -1 0 737.89)">
				<stop  offset="0" style="stop-color:#BDBDF4"/>
				<stop  offset="0.2938" style="stop-color:#C2C2F5"/>
				<stop  offset="0.6399" style="stop-color:#D0D0F7"/>
				<stop  offset="1" style="stop-color:#E7E7FB"/>
			</linearGradient>
			<polygon class="st31" points="391.5,344.2 391.5,461.1 338.8,491.5 338.8,374.6 			"/>
			<polygon class="st32" points="286.1,344.2 286.1,461.1 338.8,491.5 338.8,374.6 			"/>
			<g class="st33">
				<polygon class="st34" points="289.6,351.9 289.6,457 335.2,483.3 335.2,378.3 				"/>
			</g>
			<polygon class="st34" points="383.6,372.4 383.6,375.5 346.7,396.8 346.7,393.7 			"/>
			<polygon class="st34" points="383.6,385.5 383.6,388.6 346.7,409.9 346.7,406.8 			"/>
			<polygon class="st34" points="383.6,398.5 383.6,401.6 346.7,422.9 346.7,419.9 			"/>
			<polygon class="st34" points="383.6,411.6 383.6,414.7 346.7,436 346.7,432.9 			"/>
			<polygon class="st34" points="383.6,424.7 383.6,427.8 346.7,449.1 346.7,446 			"/>
			<polygon class="st34" points="383.6,437.7 383.6,440.8 346.7,462.1 346.7,459 			"/>
			<polygon class="st3" points="338.8,373.6 286.9,343.7 286.1,344.2 338.8,374.6 391.5,344.2 390.7,343.7 			"/>
			<g class="st33">
				<polygon class="st34" points="286.1,442.6 338.8,410.7 338.8,374.6 286.1,344.2 				"/>
			</g>
			<g>
				
					<linearGradient id="SVGID_9_" gradientUnits="userSpaceOnUse" x1="331.627" y1="358.7806" x2="336.7017" y2="358.7806" gradientTransform="matrix(1 0 0 -1 0 737.89)">
					<stop  offset="0" style="stop-color:#BDBDF4"/>
					<stop  offset="0.2938" style="stop-color:#C2C2F5"/>
					<stop  offset="0.6399" style="stop-color:#D0D0F7"/>
					<stop  offset="1" style="stop-color:#E7E7FB"/>
				</linearGradient>
				<path class="st35" d="M336.7,379.9c0-1.3-0.9-3-2.1-3.6c-0.6-0.3-1.1-0.4-1.5-0.1l0,0l-1.5,0.9h0.9c0,0.1,0,0.3,0,0.5
					c0,1.3,0.9,3,2.1,3.6c0.2,0.1,0.3,0.2,0.4,0.2l-0.4,0.8l1.5-0.9l0,0C336.5,381,336.7,380.6,336.7,379.9z"/>
				
					<linearGradient id="SVGID_10_" gradientUnits="userSpaceOnUse" x1="331.0092" y1="358.29" x2="335.2092" y2="358.29" gradientTransform="matrix(1 0 0 -1 0 737.89)">
					<stop  offset="0" style="stop-color:#5661D5"/>
					<stop  offset="0.1789" style="stop-color:#5B65D7"/>
					<stop  offset="0.3899" style="stop-color:#6973DD"/>
					<stop  offset="0.617" style="stop-color:#8188E6"/>
					<stop  offset="0.8539" style="stop-color:#A2A6F3"/>
					<stop  offset="1" style="stop-color:#BABCFD"/>
				</linearGradient>
				<path class="st36" d="M335.2,380.8c0,1.3-0.9,1.9-2.1,1.2s-2.1-2.3-2.1-3.6c0-1.3,0.9-1.9,2.1-1.2
					C334.3,377.8,335.2,379.4,335.2,380.8z"/>
				<path class="st37" d="M334.3,380.2c0,0.8-0.5,1.1-1.2,0.7s-1.2-1.3-1.2-2.1s0.5-1.1,1.2-0.7S334.3,379.5,334.3,380.2z"/>
			</g>
			<g>
				
					<linearGradient id="SVGID_11_" gradientUnits="userSpaceOnUse" x1="287.4" y1="385.9806" x2="292.4748" y2="385.9806" gradientTransform="matrix(1 0 0 -1 0 737.89)">
					<stop  offset="0" style="stop-color:#BDBDF4"/>
					<stop  offset="0.2938" style="stop-color:#C2C2F5"/>
					<stop  offset="0.6399" style="stop-color:#D0D0F7"/>
					<stop  offset="1" style="stop-color:#E7E7FB"/>
				</linearGradient>
				<path class="st38" d="M292.5,352.7c0-1.3-0.9-3-2.1-3.6c-0.6-0.3-1.1-0.4-1.5-0.1l0,0l-1.5,0.9h0.9c0,0.1,0,0.3,0,0.5
					c0,1.3,0.9,3,2.1,3.6c0.2,0.1,0.3,0.2,0.4,0.2l-0.4,0.8l1.5-0.9l0,0C292.2,353.8,292.5,353.4,292.5,352.7z"/>
				
					<linearGradient id="SVGID_12_" gradientUnits="userSpaceOnUse" x1="286.7777" y1="385.49" x2="290.9777" y2="385.49" gradientTransform="matrix(1 0 0 -1 0 737.89)">
					<stop  offset="0" style="stop-color:#5661D5"/>
					<stop  offset="0.1789" style="stop-color:#5B65D7"/>
					<stop  offset="0.3899" style="stop-color:#6973DD"/>
					<stop  offset="0.617" style="stop-color:#8188E6"/>
					<stop  offset="0.8539" style="stop-color:#A2A6F3"/>
					<stop  offset="1" style="stop-color:#BABCFD"/>
				</linearGradient>
				<path class="st39" d="M291,353.6c0,1.3-0.9,1.9-2.1,1.2c-1.2-0.7-2.1-2.3-2.1-3.6c0-1.3,0.9-1.9,2.1-1.2
					C290,350.6,291,352.2,291,353.6z"/>
				<path class="st37" d="M290.1,353.1c0,0.8-0.5,1.1-1.2,0.7s-1.2-1.3-1.2-2.1c0-0.8,0.5-1.1,1.2-0.7
					C289.5,351.4,290.1,352.3,290.1,353.1z"/>
			</g>
			<g>
				
					<linearGradient id="SVGID_13_" gradientUnits="userSpaceOnUse" x1="331.627" y1="254.0806" x2="336.7017" y2="254.0806" gradientTransform="matrix(1 0 0 -1 0 737.89)">
					<stop  offset="0" style="stop-color:#BDBDF4"/>
					<stop  offset="0.2938" style="stop-color:#C2C2F5"/>
					<stop  offset="0.6399" style="stop-color:#D0D0F7"/>
					<stop  offset="1" style="stop-color:#E7E7FB"/>
				</linearGradient>
				<path class="st40" d="M336.7,484.6c0-1.3-0.9-3-2.1-3.6c-0.6-0.3-1.1-0.4-1.5-0.1l0,0l-1.5,0.9h0.9c0,0.1,0,0.3,0,0.5
					c0,1.3,0.9,3,2.1,3.6c0.2,0.1,0.3,0.2,0.4,0.2l-0.4,0.8l1.5-0.9l0,0C336.5,485.7,336.7,485.2,336.7,484.6z"/>
				
					<linearGradient id="SVGID_14_" gradientUnits="userSpaceOnUse" x1="331.0092" y1="253.69" x2="335.2092" y2="253.69" gradientTransform="matrix(1 0 0 -1 0 737.89)">
					<stop  offset="0" style="stop-color:#5661D5"/>
					<stop  offset="0.1789" style="stop-color:#5B65D7"/>
					<stop  offset="0.3899" style="stop-color:#6973DD"/>
					<stop  offset="0.617" style="stop-color:#8188E6"/>
					<stop  offset="0.8539" style="stop-color:#A2A6F3"/>
					<stop  offset="1" style="stop-color:#BABCFD"/>
				</linearGradient>
				<path class="st41" d="M335.2,485.4c0,1.3-0.9,1.9-2.1,1.2c-1.2-0.7-2.1-2.3-2.1-3.6c0-1.3,0.9-1.9,2.1-1.2
					C334.3,482.5,335.2,484.1,335.2,485.4z"/>
				<path class="st37" d="M334.3,484.9c0,0.8-0.5,1.1-1.2,0.7s-1.2-1.3-1.2-2.1c0-0.8,0.5-1.1,1.2-0.7
					C333.8,483.2,334.3,484.1,334.3,484.9z"/>
			</g>
			<g>
				
					<linearGradient id="SVGID_15_" gradientUnits="userSpaceOnUse" x1="287.4" y1="281.2806" x2="292.4748" y2="281.2806" gradientTransform="matrix(1 0 0 -1 0 737.89)">
					<stop  offset="0" style="stop-color:#BDBDF4"/>
					<stop  offset="0.2938" style="stop-color:#C2C2F5"/>
					<stop  offset="0.6399" style="stop-color:#D0D0F7"/>
					<stop  offset="1" style="stop-color:#E7E7FB"/>
				</linearGradient>
				<path class="st42" d="M292.5,457.4c0-1.3-0.9-3-2.1-3.6c-0.6-0.3-1.1-0.4-1.5-0.1l0,0l-1.5,0.9h0.9c0,0.1,0,0.3,0,0.5
					c0,1.3,0.9,3,2.1,3.6c0.2,0.1,0.3,0.2,0.4,0.2l-0.4,0.8l1.5-0.9l0,0C292.2,458.5,292.5,458.1,292.5,457.4z"/>
				
					<linearGradient id="SVGID_16_" gradientUnits="userSpaceOnUse" x1="286.7777" y1="280.79" x2="290.9777" y2="280.79" gradientTransform="matrix(1 0 0 -1 0 737.89)">
					<stop  offset="0" style="stop-color:#5661D5"/>
					<stop  offset="0.1789" style="stop-color:#5B65D7"/>
					<stop  offset="0.3899" style="stop-color:#6973DD"/>
					<stop  offset="0.617" style="stop-color:#8188E6"/>
					<stop  offset="0.8539" style="stop-color:#A2A6F3"/>
					<stop  offset="1" style="stop-color:#BABCFD"/>
				</linearGradient>
				<path class="st43" d="M291,458.3c0,1.3-0.9,1.9-2.1,1.2c-1.2-0.7-2.1-2.3-2.1-3.6c0-1.3,0.9-1.9,2.1-1.2
					C290,455.3,291,456.9,291,458.3z"/>
				<path class="st37" d="M290.1,457.7c0,0.8-0.5,1.1-1.2,0.7s-1.2-1.3-1.2-2.1c0-0.8,0.5-1.1,1.2-0.7
					C289.5,456,290.1,457,290.1,457.7z"/>
			</g>
		</g>
		<g>
			<g>
				
					<linearGradient id="SVGID_17_" gradientUnits="userSpaceOnUse" x1="259.9749" y1="390.74" x2="395.1378" y2="390.74" gradientTransform="matrix(1 0 0 -1 0 737.89)">
					<stop  offset="0" style="stop-color:#5661D5"/>
					<stop  offset="0.1656" style="stop-color:#5D67D8"/>
					<stop  offset="0.4078" style="stop-color:#7179E0"/>
					<stop  offset="0.697" style="stop-color:#9196EC"/>
					<stop  offset="1" style="stop-color:#BABCFD"/>
				</linearGradient>
				<polygon class="st44" points="391.5,328.9 391.5,335 338.8,365.4 286.1,335 286.1,328.9 				"/>
				<polygon class="st29" points="338.8,359.3 286.1,328.9 338.8,298.4 391.5,328.9 				"/>
				<polygon class="st3" points="338.8,358.6 286.7,328.5 286.1,328.9 338.8,359.3 391.5,328.9 390.9,328.5 				"/>
			</g>
			<g>
				<polygon class="st45" points="338.8,352.3 298.2,328.9 338.8,305.5 379.4,328.9 				"/>
				<g>
					
						<linearGradient id="SVGID_18_" gradientUnits="userSpaceOnUse" x1="298.2" y1="408.99" x2="379.4" y2="408.99" gradientTransform="matrix(1 0 0 -1 0 737.89)">
						<stop  offset="0" style="stop-color:#40E6DE"/>
						<stop  offset="0.152" style="stop-color:#41E1DE"/>
						<stop  offset="0.3313" style="stop-color:#43D3DD"/>
						<stop  offset="0.5243" style="stop-color:#47BBDB"/>
						<stop  offset="0.7271" style="stop-color:#4D9AD9"/>
						<stop  offset="0.9354" style="stop-color:#5470D6"/>
						<stop  offset="1" style="stop-color:#5661D5"/>
					</linearGradient>
					<polygon class="st46" points="338.8,352.3 298.2,328.9 338.8,305.5 379.4,328.9 					"/>
					<g>
						
							<linearGradient id="SVGID_19_" gradientUnits="userSpaceOnUse" x1="338.8" y1="423.64" x2="379.4" y2="423.64" gradientTransform="matrix(1 0 0 -1 0 737.89)">
							<stop  offset="0" style="stop-color:#40E6DE"/>
							<stop  offset="0.152" style="stop-color:#41E1DE"/>
							<stop  offset="0.3313" style="stop-color:#43D3DD"/>
							<stop  offset="0.5243" style="stop-color:#47BBDB"/>
							<stop  offset="0.7271" style="stop-color:#4D9AD9"/>
							<stop  offset="0.9354" style="stop-color:#5470D6"/>
							<stop  offset="1" style="stop-color:#5661D5"/>
						</linearGradient>
						<polygon class="st47" points="338.8,299.6 379.4,323 379.4,328.9 338.8,305.5 						"/>
						
							<linearGradient id="SVGID_20_" gradientUnits="userSpaceOnUse" x1="298.2" y1="423.64" x2="338.8" y2="423.64" gradientTransform="matrix(1 0 0 -1 0 737.89)">
							<stop  offset="0" style="stop-color:#40E6DE"/>
							<stop  offset="0.152" style="stop-color:#41E1DE"/>
							<stop  offset="0.3313" style="stop-color:#43D3DD"/>
							<stop  offset="0.5243" style="stop-color:#47BBDB"/>
							<stop  offset="0.7271" style="stop-color:#4D9AD9"/>
							<stop  offset="0.9354" style="stop-color:#5470D6"/>
							<stop  offset="1" style="stop-color:#5661D5"/>
						</linearGradient>
						<polygon class="st48" points="338.8,305.5 298.2,328.9 298.2,323 338.8,299.6 						"/>
						
							<linearGradient id="SVGID_21_" gradientUnits="userSpaceOnUse" x1="298.2" y1="414.89" x2="379.4" y2="414.89" gradientTransform="matrix(1 0 0 -1 0 737.89)">
							<stop  offset="0" style="stop-color:#40E6DE"/>
							<stop  offset="0.152" style="stop-color:#41E1DE"/>
							<stop  offset="0.3313" style="stop-color:#43D3DD"/>
							<stop  offset="0.5243" style="stop-color:#47BBDB"/>
							<stop  offset="0.7271" style="stop-color:#4D9AD9"/>
							<stop  offset="0.9354" style="stop-color:#5470D6"/>
							<stop  offset="1" style="stop-color:#5661D5"/>
						</linearGradient>
						<polygon class="st49" points="338.8,346.4 298.2,323 338.8,299.6 379.4,323 						"/>
						<polygon class="st50" points="338.8,332.4 322.6,323 338.8,313.6 355,323 						"/>
						<polygon class="st50" points="338.8,314.5 354.3,323.4 355,323 338.8,313.6 322.6,323 323.3,323.4 						"/>
						
							<linearGradient id="SVGID_22_" gradientUnits="userSpaceOnUse" x1="338.8" y1="400.24" x2="379.4" y2="400.24" gradientTransform="matrix(1 0 0 -1 0 737.89)">
							<stop  offset="0" style="stop-color:#40E6DE"/>
							<stop  offset="0.152" style="stop-color:#41E1DE"/>
							<stop  offset="0.3313" style="stop-color:#43D3DD"/>
							<stop  offset="0.5243" style="stop-color:#47BBDB"/>
							<stop  offset="0.7271" style="stop-color:#4D9AD9"/>
							<stop  offset="0.9354" style="stop-color:#5470D6"/>
							<stop  offset="1" style="stop-color:#5661D5"/>
						</linearGradient>
						<polygon class="st51" points="338.8,346.4 338.8,352.3 379.4,328.9 379.4,323 						"/>
					</g>
					
						<linearGradient id="SVGID_23_" gradientUnits="userSpaceOnUse" x1="298.2" y1="400.24" x2="338.8" y2="400.24" gradientTransform="matrix(1 0 0 -1 0 737.89)">
						<stop  offset="0" style="stop-color:#40E6DE"/>
						<stop  offset="0.152" style="stop-color:#41E1DE"/>
						<stop  offset="0.3313" style="stop-color:#43D3DD"/>
						<stop  offset="0.5243" style="stop-color:#47BBDB"/>
						<stop  offset="0.7271" style="stop-color:#4D9AD9"/>
						<stop  offset="0.9354" style="stop-color:#5470D6"/>
						<stop  offset="1" style="stop-color:#5661D5"/>
					</linearGradient>
					<polygon class="st52" points="298.2,323 298.2,328.9 338.8,352.3 338.8,346.4 					"/>
				</g>
				<polygon class="st53" points="338.8,345.8 298.8,322.7 298.2,323 338.8,346.4 379.4,323 378.8,322.7 				"/>
			</g>
		</g>
		<g>
			<g>
				<polygon class="st27" points="321.2,442.9 321.2,441.5 322.4,442.2 322.4,443.6 				"/>
				<polygon class="st54" points="321.2,445.7 321.2,444.3 322.4,445 322.4,446.4 				"/>
				<polygon class="st55" points="321.2,448.5 321.2,447.1 322.4,447.8 322.4,449.2 				"/>
				<polygon class="st27" points="321.2,451.3 321.2,449.9 322.4,450.6 322.4,452 				"/>
				<polygon class="st55" points="321.2,454.1 321.2,452.7 322.4,453.4 322.4,454.8 				"/>
				<polygon class="st27" points="321.2,456.9 321.2,455.5 322.4,456.2 322.4,457.6 				"/>
				<polygon class="st27" points="321.1,459.7 321.1,458.3 322.4,459 322.4,460.4 				"/>
				<polygon class="st27" points="321.1,462.5 321.1,461.1 322.4,461.8 322.4,463.2 				"/>
				<polygon class="st54" points="321.1,465.3 321.1,463.9 322.4,464.6 322.3,466 				"/>
			</g>
			<g>
				<polygon class="st27" points="318.7,441.4 318.7,440 320,440.7 320,442.1 				"/>
				<polygon class="st27" points="318.7,444.3 318.7,442.8 320,443.6 320,445 				"/>
				<polygon class="st27" points="318.7,447.1 318.7,445.7 319.9,446.4 319.9,447.8 				"/>
				<polygon class="st27" points="318.7,449.9 318.7,448.5 319.9,449.2 319.9,450.6 				"/>
				<polygon class="st27" points="318.7,452.7 318.7,451.3 319.9,452 319.9,453.4 				"/>
				<polygon class="st27" points="318.7,455.5 318.7,454.1 319.9,454.8 319.9,456.2 				"/>
				<polygon class="st27" points="318.7,458.3 318.7,456.9 319.9,457.6 319.9,459 				"/>
				<polygon class="st27" points="318.7,461.1 318.7,459.7 319.9,460.4 319.9,461.8 				"/>
				<polygon class="st27" points="318.7,463.9 318.7,462.5 319.9,463.2 319.9,464.6 				"/>
			</g>
			<g>
				<polygon class="st27" points="316.3,440 316.3,438.6 317.5,439.3 317.5,440.7 				"/>
				<polygon class="st27" points="316.3,442.8 316.3,441.4 317.5,442.1 317.5,443.5 				"/>
				<polygon class="st27" points="316.3,445.6 316.3,444.2 317.5,444.9 317.5,446.3 				"/>
				<polygon class="st54" points="316.3,448.5 316.3,447 317.5,447.8 317.5,449.2 				"/>
				<polygon class="st55" points="316.3,451.3 316.3,449.9 317.5,450.6 317.5,452 				"/>
				<polygon class="st55" points="316.3,454.1 316.3,452.7 317.5,453.4 317.5,454.8 				"/>
				<polygon class="st27" points="316.3,456.9 316.3,455.5 317.5,456.2 317.5,457.6 				"/>
				<polygon class="st27" points="316.3,459.7 316.3,458.3 317.5,459 317.5,460.4 				"/>
				<polygon class="st27" points="316.3,462.5 316.3,461.1 317.5,461.8 317.5,463.2 				"/>
			</g>
			<g>
				<polygon class="st55" points="313.9,438.6 313.9,437.2 315.1,437.9 315.1,439.3 				"/>
				<polygon class="st55" points="313.9,441.4 313.9,440 315.1,440.7 315.1,442.1 				"/>
				<polygon class="st54" points="313.9,444.2 313.9,442.8 315.1,443.5 315.1,444.9 				"/>
				<polygon class="st27" points="313.8,447 313.8,445.6 315.1,446.3 315.1,447.7 				"/>
				<polygon class="st27" points="313.8,449.8 313.8,448.4 315.1,449.1 315.1,450.6 				"/>
				<polygon class="st27" points="313.8,452.7 313.8,451.3 315.1,452 315,453.4 				"/>
				<polygon class="st55" points="313.8,455.5 313.8,454.1 315,454.8 315,456.2 				"/>
				<polygon class="st27" points="313.8,458.3 313.8,456.9 315,457.6 315,459 				"/>
				<polygon class="st27" points="313.8,461.1 313.8,459.7 315,460.4 315,461.8 				"/>
			</g>
			<g>
				<polygon class="st27" points="311.4,437.2 311.4,435.8 312.6,436.5 312.6,437.9 				"/>
				<polygon class="st27" points="311.4,440 311.4,438.6 312.6,439.3 312.6,440.7 				"/>
				<polygon class="st27" points="311.4,442.8 311.4,441.4 312.6,442.1 312.6,443.5 				"/>
				<polygon class="st27" points="311.4,445.6 311.4,444.2 312.6,444.9 312.6,446.3 				"/>
				<polygon class="st27" points="311.4,448.4 311.4,447 312.6,447.7 312.6,449.1 				"/>
				<polygon class="st27" points="311.4,451.2 311.4,449.8 312.6,450.5 312.6,451.9 				"/>
				<polygon class="st27" points="311.4,454 311.4,452.6 312.6,453.3 312.6,454.8 				"/>
				<polygon class="st27" points="311.4,456.9 311.4,455.5 312.6,456.2 312.6,457.6 				"/>
				<polygon class="st27" points="311.4,459.7 311.4,458.3 312.6,459 312.6,460.4 				"/>
			</g>
			<g>
				<polygon class="st27" points="309,435.8 309,434.4 310.2,435.1 310.2,436.5 				"/>
				<polygon class="st27" points="309,438.6 309,437.2 310.2,437.9 310.2,439.3 				"/>
				<polygon class="st55" points="309,441.4 309,440 310.2,440.7 310.2,442.1 				"/>
				<polygon class="st27" points="309,444.2 309,442.8 310.2,443.5 310.2,444.9 				"/>
				<polygon class="st54" points="309,447 309,445.6 310.2,446.3 310.2,447.7 				"/>
				<polygon class="st27" points="309,449.8 309,448.4 310.2,449.1 310.2,450.5 				"/>
				<polygon class="st27" points="308.9,452.6 309,451.2 310.2,451.9 310.2,453.3 				"/>
				<polygon class="st27" points="308.9,455.4 308.9,454 310.2,454.7 310.2,456.1 				"/>
				<polygon class="st27" points="308.9,458.3 308.9,456.8 310.2,457.6 310.2,459 				"/>
			</g>
			<g>
				<polygon class="st27" points="306.5,434.4 306.6,433 307.8,433.7 307.8,435.1 				"/>
				<polygon class="st27" points="306.5,437.2 306.5,435.8 307.8,436.5 307.8,437.9 				"/>
				<polygon class="st55" points="306.5,440 306.5,438.6 307.8,439.3 307.7,440.7 				"/>
				<polygon class="st27" points="306.5,442.8 306.5,441.4 307.7,442.1 307.7,443.5 				"/>
				<polygon class="st27" points="306.5,445.6 306.5,444.2 307.7,444.9 307.7,446.3 				"/>
				<polygon class="st54" points="306.5,448.4 306.5,447 307.7,447.7 307.7,449.1 				"/>
				<polygon class="st55" points="306.5,451.2 306.5,449.8 307.7,450.5 307.7,451.9 				"/>
				<polygon class="st27" points="306.5,454 306.5,452.6 307.7,453.3 307.7,454.7 				"/>
				<polygon class="st54" points="306.5,456.8 306.5,455.4 307.7,456.1 307.7,457.5 				"/>
			</g>
			<g>
				<polygon class="st27" points="304.1,433 304.1,431.5 305.3,432.3 305.3,433.7 				"/>
				<polygon class="st55" points="304.1,435.8 304.1,434.4 305.3,435.1 305.3,436.5 				"/>
				<polygon class="st27" points="304.1,438.6 304.1,437.2 305.3,437.9 305.3,439.3 				"/>
				<polygon class="st27" points="304.1,441.4 304.1,440 305.3,440.7 305.3,442.1 				"/>
				<polygon class="st27" points="304.1,444.2 304.1,442.8 305.3,443.5 305.3,444.9 				"/>
				<polygon class="st27" points="304.1,447 304.1,445.6 305.3,446.3 305.3,447.7 				"/>
				<polygon class="st27" points="304.1,449.8 304.1,448.4 305.3,449.1 305.3,450.5 				"/>
				<polygon class="st55" points="304.1,452.6 304.1,451.2 305.3,451.9 305.3,453.3 				"/>
				<polygon class="st27" points="304.1,455.4 304.1,454 305.3,454.7 305.3,456.1 				"/>
			</g>
			<g>
				<polygon class="st27" points="301.7,431.5 301.7,430.1 302.9,430.8 302.9,432.2 				"/>
				<polygon class="st54" points="301.7,434.3 301.7,432.9 302.9,433.6 302.9,435 				"/>
				<polygon class="st27" points="301.7,437.2 301.7,435.7 302.9,436.5 302.9,437.9 				"/>
				<polygon class="st27" points="301.7,440 301.7,438.6 302.9,439.3 302.9,440.7 				"/>
				<polygon class="st27" points="301.6,442.8 301.6,441.4 302.9,442.1 302.9,443.5 				"/>
				<polygon class="st27" points="301.6,445.6 301.6,444.2 302.9,444.9 302.9,446.3 				"/>
				<polygon class="st55" points="301.6,448.4 301.6,447 302.8,447.7 302.8,449.1 				"/>
				<polygon class="st27" points="301.6,451.2 301.6,449.8 302.8,450.5 302.8,451.9 				"/>
				<polygon class="st27" points="301.6,454 301.6,452.6 302.8,453.3 302.8,454.7 				"/>
			</g>
		</g>
		<g>
			<g>
				<polygon class="st27" points="321.2,412.9 321.2,411.5 322.4,412.2 322.4,413.6 				"/>
				<polygon class="st54" points="321.2,415.7 321.2,414.3 322.4,415 322.4,416.4 				"/>
				<polygon class="st55" points="321.2,418.5 321.2,417.1 322.4,417.8 322.4,419.2 				"/>
				<polygon class="st27" points="321.2,421.3 321.2,419.9 322.4,420.6 322.4,422 				"/>
				<polygon class="st55" points="321.2,424.1 321.2,422.7 322.4,423.5 322.4,424.9 				"/>
				<polygon class="st27" points="321.2,427 321.2,425.6 322.4,426.3 322.4,427.7 				"/>
				<polygon class="st27" points="321.1,429.8 321.1,428.4 322.4,429.1 322.4,430.5 				"/>
				<polygon class="st27" points="321.1,432.6 321.1,431.2 322.4,431.9 322.4,433.3 				"/>
				<polygon class="st54" points="321.1,435.4 321.1,434 322.4,434.7 322.3,436.1 				"/>
			</g>
			<g>
				<polygon class="st27" points="318.7,411.5 318.7,410.1 320,410.8 320,412.2 				"/>
				<polygon class="st27" points="318.7,414.3 318.7,412.9 320,413.6 320,415 				"/>
				<polygon class="st27" points="318.7,417.1 318.7,415.7 319.9,416.4 319.9,417.8 				"/>
				<polygon class="st27" points="318.7,419.9 318.7,418.5 319.9,419.2 319.9,420.6 				"/>
				<polygon class="st27" points="318.7,422.7 318.7,421.3 319.9,422 319.9,423.4 				"/>
				<polygon class="st27" points="318.7,425.5 318.7,424.1 319.9,424.8 319.9,426.2 				"/>
				<polygon class="st27" points="318.7,428.4 318.7,426.9 319.9,427.7 319.9,429.1 				"/>
				<polygon class="st27" points="318.7,431.2 318.7,429.8 319.9,430.5 319.9,431.9 				"/>
				<polygon class="st27" points="318.7,434 318.7,432.6 319.9,433.3 319.9,434.7 				"/>
			</g>
			<g>
				<polygon class="st27" points="316.3,410.1 316.3,408.7 317.5,409.4 317.5,410.8 				"/>
				<polygon class="st27" points="316.3,412.9 316.3,411.5 317.5,412.2 317.5,413.6 				"/>
				<polygon class="st27" points="316.3,415.7 316.3,414.3 317.5,415 317.5,416.4 				"/>
				<polygon class="st54" points="316.3,418.5 316.3,417.1 317.5,417.8 317.5,419.2 				"/>
				<polygon class="st55" points="316.3,421.3 316.3,419.9 317.5,420.6 317.5,422 				"/>
				<polygon class="st55" points="316.3,424.1 316.3,422.7 317.5,423.4 317.5,424.8 				"/>
				<polygon class="st27" points="316.3,426.9 316.3,425.5 317.5,426.2 317.5,427.6 				"/>
				<polygon class="st27" points="316.3,429.7 316.3,428.3 317.5,429 317.5,430.5 				"/>
				<polygon class="st27" points="316.3,432.6 316.3,431.1 317.5,431.9 317.5,433.3 				"/>
			</g>
			<g>
				<polygon class="st55" points="313.9,408.7 313.9,407.3 315.1,408 315.1,409.4 				"/>
				<polygon class="st55" points="313.9,411.5 313.9,410.1 315.1,410.8 315.1,412.2 				"/>
				<polygon class="st54" points="313.9,414.3 313.9,412.9 315.1,413.6 315.1,415 				"/>
				<polygon class="st27" points="313.8,417.1 313.8,415.7 315.1,416.4 315.1,417.8 				"/>
				<polygon class="st27" points="313.8,419.9 313.8,418.5 315.1,419.2 315.1,420.6 				"/>
				<polygon class="st27" points="313.8,422.7 313.8,421.3 315.1,422 315,423.4 				"/>
				<polygon class="st55" points="313.8,425.5 313.8,424.1 315,424.8 315,426.2 				"/>
				<polygon class="st27" points="313.8,428.3 313.8,426.9 315,427.6 315,429 				"/>
				<polygon class="st27" points="313.8,431.1 313.8,429.7 315,430.4 315,431.8 				"/>
			</g>
			<g>
				<polygon class="st27" points="311.4,407.3 311.4,405.8 312.6,406.6 312.6,408 				"/>
				<polygon class="st27" points="311.4,410.1 311.4,408.7 312.6,409.4 312.6,410.8 				"/>
				<polygon class="st27" points="311.4,412.9 311.4,411.5 312.6,412.2 312.6,413.6 				"/>
				<polygon class="st27" points="311.4,415.7 311.4,414.3 312.6,415 312.6,416.4 				"/>
				<polygon class="st27" points="311.4,418.5 311.4,417.1 312.6,417.8 312.6,419.2 				"/>
				<polygon class="st27" points="311.4,421.3 311.4,419.9 312.6,420.6 312.6,422 				"/>
				<polygon class="st27" points="311.4,424.1 311.4,422.7 312.6,423.4 312.6,424.8 				"/>
				<polygon class="st27" points="311.4,426.9 311.4,425.5 312.6,426.2 312.6,427.6 				"/>
				<polygon class="st27" points="311.4,429.7 311.4,428.3 312.6,429 312.6,430.4 				"/>
			</g>
			<g>
				<polygon class="st27" points="309,405.8 309,404.4 310.2,405.1 310.2,406.5 				"/>
				<polygon class="st27" points="309,408.6 309,407.2 310.2,407.9 310.2,409.4 				"/>
				<polygon class="st55" points="309,411.5 309,410.1 310.2,410.8 310.2,412.2 				"/>
				<polygon class="st27" points="309,414.3 309,412.9 310.2,413.6 310.2,415 				"/>
				<polygon class="st54" points="309,417.1 309,415.7 310.2,416.4 310.2,417.8 				"/>
				<polygon class="st27" points="309,419.9 309,418.5 310.2,419.2 310.2,420.6 				"/>
				<polygon class="st27" points="308.9,422.7 309,421.3 310.2,422 310.2,423.4 				"/>
				<polygon class="st27" points="308.9,425.5 308.9,424.1 310.2,424.8 310.2,426.2 				"/>
				<polygon class="st27" points="308.9,428.3 308.9,426.9 310.2,427.6 310.2,429 				"/>
			</g>
			<g>
				<polygon class="st27" points="306.5,404.4 306.6,403 307.8,403.7 307.8,405.1 				"/>
				<polygon class="st27" points="306.5,407.2 306.5,405.8 307.8,406.5 307.8,407.9 				"/>
				<polygon class="st55" points="306.5,410 306.5,408.6 307.8,409.3 307.7,410.7 				"/>
				<polygon class="st27" points="306.5,412.8 306.5,411.4 307.7,412.1 307.7,413.6 				"/>
				<polygon class="st27" points="306.5,415.7 306.5,414.3 307.7,415 307.7,416.4 				"/>
				<polygon class="st54" points="306.5,418.5 306.5,417.1 307.7,417.8 307.7,419.2 				"/>
				<polygon class="st55" points="306.5,421.3 306.5,419.9 307.7,420.6 307.7,422 				"/>
				<polygon class="st27" points="306.5,424.1 306.5,422.7 307.7,423.4 307.7,424.8 				"/>
				<polygon class="st54" points="306.5,426.9 306.5,425.5 307.7,426.2 307.7,427.6 				"/>
			</g>
			<g>
				<polygon class="st27" points="304.1,403 304.1,401.6 305.3,402.3 305.3,403.7 				"/>
				<polygon class="st55" points="304.1,405.8 304.1,404.4 305.3,405.1 305.3,406.5 				"/>
				<polygon class="st27" points="304.1,408.6 304.1,407.2 305.3,407.9 305.3,409.3 				"/>
				<polygon class="st27" points="304.1,411.4 304.1,410 305.3,410.7 305.3,412.1 				"/>
				<polygon class="st27" points="304.1,414.2 304.1,412.8 305.3,413.5 305.3,414.9 				"/>
				<polygon class="st27" points="304.1,417.1 304.1,415.6 305.3,416.4 305.3,417.8 				"/>
				<polygon class="st27" points="304.1,419.9 304.1,418.5 305.3,419.2 305.3,420.6 				"/>
				<polygon class="st55" points="304.1,422.7 304.1,421.3 305.3,422 305.3,423.4 				"/>
				<polygon class="st27" points="304.1,425.5 304.1,424.1 305.3,424.8 305.3,426.2 				"/>
			</g>
			<g>
				<polygon class="st27" points="301.7,401.6 301.7,400.2 302.9,400.9 302.9,402.3 				"/>
				<polygon class="st54" points="301.7,404.4 301.7,403 302.9,403.7 302.9,405.1 				"/>
				<polygon class="st27" points="301.7,407.2 301.7,405.8 302.9,406.5 302.9,407.9 				"/>
				<polygon class="st27" points="301.7,410 301.7,408.6 302.9,409.3 302.9,410.7 				"/>
				<polygon class="st27" points="301.6,412.8 301.6,411.4 302.9,412.1 302.9,413.5 				"/>
				<polygon class="st27" points="301.6,415.6 301.6,414.2 302.9,414.9 302.9,416.3 				"/>
				<polygon class="st55" points="301.6,418.4 301.6,417 302.8,417.7 302.8,419.1 				"/>
				<polygon class="st27" points="301.6,421.3 301.6,419.8 302.8,420.6 302.8,422 				"/>
				<polygon class="st27" points="301.6,424.1 301.6,422.7 302.8,423.4 302.8,424.8 				"/>
			</g>
		</g>
		<g>
			<g>
				<polygon class="st27" points="321.2,383 321.2,381.6 322.4,382.3 322.4,383.7 				"/>
				<polygon class="st54" points="321.2,385.8 321.2,384.4 322.4,385.1 322.4,386.5 				"/>
				<polygon class="st55" points="321.2,388.6 321.2,387.2 322.4,387.9 322.4,389.3 				"/>
				<polygon class="st27" points="321.2,391.4 321.2,390 322.4,390.7 322.4,392.1 				"/>
				<polygon class="st55" points="321.2,394.2 321.2,392.8 322.4,393.5 322.4,394.9 				"/>
				<polygon class="st27" points="321.2,397 321.2,395.6 322.4,396.3 322.4,397.7 				"/>
				<polygon class="st27" points="321.1,399.8 321.1,398.4 322.4,399.1 322.4,400.5 				"/>
				<polygon class="st27" points="321.1,402.6 321.1,401.2 322.4,401.9 322.4,403.3 				"/>
				<polygon class="st54" points="321.1,405.4 321.1,404 322.4,404.7 322.3,406.1 				"/>
			</g>
			<g>
				<polygon class="st27" points="318.7,381.6 318.7,380.2 320,380.9 320,382.3 				"/>
				<polygon class="st27" points="318.7,384.4 318.7,383 320,383.7 320,385.1 				"/>
				<polygon class="st27" points="318.7,387.2 318.7,385.8 319.9,386.5 319.9,387.9 				"/>
				<polygon class="st27" points="318.7,390 318.7,388.6 319.9,389.3 319.9,390.7 				"/>
				<polygon class="st27" points="318.7,392.8 318.7,391.4 319.9,392.1 319.9,393.5 				"/>
				<polygon class="st27" points="318.7,395.6 318.7,394.2 319.9,394.9 319.9,396.3 				"/>
				<polygon class="st27" points="318.7,398.4 318.7,397 319.9,397.7 319.9,399.1 				"/>
				<polygon class="st27" points="318.7,401.2 318.7,399.8 319.9,400.5 319.9,401.9 				"/>
				<polygon class="st27" points="318.7,404 318.7,402.6 319.9,403.3 319.9,404.7 				"/>
			</g>
			<g>
				<polygon class="st27" points="316.3,380.1 316.3,378.7 317.5,379.4 317.5,380.8 				"/>
				<polygon class="st27" points="316.3,382.9 316.3,381.5 317.5,382.3 317.5,383.7 				"/>
				<polygon class="st27" points="316.3,385.8 316.3,384.4 317.5,385.1 317.5,386.5 				"/>
				<polygon class="st54" points="316.3,388.6 316.3,387.2 317.5,387.9 317.5,389.3 				"/>
				<polygon class="st55" points="316.3,391.4 316.3,390 317.5,390.7 317.5,392.1 				"/>
				<polygon class="st55" points="316.3,394.2 316.3,392.8 317.5,393.5 317.5,394.9 				"/>
				<polygon class="st27" points="316.3,397 316.3,395.6 317.5,396.3 317.5,397.7 				"/>
				<polygon class="st27" points="316.3,399.8 316.3,398.4 317.5,399.1 317.5,400.5 				"/>
				<polygon class="st27" points="316.3,402.6 316.3,401.2 317.5,401.9 317.5,403.3 				"/>
			</g>
			<g>
				<polygon class="st55" points="313.9,378.7 313.9,377.3 315.1,378 315.1,379.4 				"/>
				<polygon class="st55" points="313.9,381.5 313.9,380.1 315.1,380.8 315.1,382.2 				"/>
				<polygon class="st54" points="313.9,384.3 313.9,382.9 315.1,383.6 315.1,385 				"/>
				<polygon class="st27" points="313.8,387.2 313.8,385.7 315.1,386.5 315.1,387.9 				"/>
				<polygon class="st27" points="313.8,390 313.8,388.6 315.1,389.3 315.1,390.7 				"/>
				<polygon class="st27" points="313.8,392.8 313.8,391.4 315.1,392.1 315,393.5 				"/>
				<polygon class="st55" points="313.8,395.6 313.8,394.2 315,394.9 315,396.3 				"/>
				<polygon class="st27" points="313.8,398.4 313.8,397 315,397.7 315,399.1 				"/>
				<polygon class="st27" points="313.8,401.2 313.8,399.8 315,400.5 315,401.9 				"/>
			</g>
			<g>
				<polygon class="st27" points="311.4,377.3 311.4,375.9 312.6,376.6 312.6,378 				"/>
				<polygon class="st27" points="311.4,380.1 311.4,378.7 312.6,379.4 312.6,380.8 				"/>
				<polygon class="st27" points="311.4,382.9 311.4,381.5 312.6,382.2 312.6,383.6 				"/>
				<polygon class="st27" points="311.4,385.7 311.4,384.3 312.6,385 312.6,386.4 				"/>
				<polygon class="st27" points="311.4,388.5 311.4,387.1 312.6,387.8 312.6,389.2 				"/>
				<polygon class="st27" points="311.4,391.4 311.4,389.9 312.6,390.7 312.6,392.1 				"/>
				<polygon class="st27" points="311.4,394.2 311.4,392.8 312.6,393.5 312.6,394.9 				"/>
				<polygon class="st27" points="311.4,397 311.4,395.6 312.6,396.3 312.6,397.7 				"/>
				<polygon class="st27" points="311.4,399.8 311.4,398.4 312.6,399.1 312.6,400.5 				"/>
			</g>
			<g>
				<polygon class="st27" points="309,375.9 309,374.5 310.2,375.2 310.2,376.6 				"/>
				<polygon class="st27" points="309,378.7 309,377.3 310.2,378 310.2,379.4 				"/>
				<polygon class="st55" points="309,381.5 309,380.1 310.2,380.8 310.2,382.2 				"/>
				<polygon class="st27" points="309,384.3 309,382.9 310.2,383.6 310.2,385 				"/>
				<polygon class="st54" points="309,387.1 309,385.7 310.2,386.4 310.2,387.8 				"/>
				<polygon class="st27" points="309,389.9 309,388.5 310.2,389.2 310.2,390.6 				"/>
				<polygon class="st27" points="308.9,392.7 309,391.3 310.2,392 310.2,393.5 				"/>
				<polygon class="st27" points="308.9,395.6 308.9,394.2 310.2,394.9 310.2,396.3 				"/>
				<polygon class="st27" points="308.9,398.4 308.9,397 310.2,397.7 310.2,399.1 				"/>
			</g>
			<g>
				<polygon class="st27" points="306.5,374.5 306.6,373.1 307.8,373.8 307.8,375.2 				"/>
				<polygon class="st27" points="306.5,377.3 306.5,375.9 307.8,376.6 307.8,378 				"/>
				<polygon class="st55" points="306.5,380.1 306.5,378.7 307.8,379.4 307.7,380.8 				"/>
				<polygon class="st27" points="306.5,382.9 306.5,381.5 307.7,382.2 307.7,383.6 				"/>
				<polygon class="st27" points="306.5,385.7 306.5,384.3 307.7,385 307.7,386.4 				"/>
				<polygon class="st54" points="306.5,388.5 306.5,387.1 307.7,387.8 307.7,389.2 				"/>
				<polygon class="st55" points="306.5,391.3 306.5,389.9 307.7,390.6 307.7,392 				"/>
				<polygon class="st27" points="306.5,394.1 306.5,392.7 307.7,393.4 307.7,394.8 				"/>
				<polygon class="st54" points="306.5,396.9 306.5,395.5 307.7,396.2 307.7,397.7 				"/>
			</g>
			<g>
				<polygon class="st27" points="304.1,373.1 304.1,371.7 305.3,372.4 305.3,373.8 				"/>
				<polygon class="st55" points="304.1,375.9 304.1,374.5 305.3,375.2 305.3,376.6 				"/>
				<polygon class="st27" points="304.1,378.7 304.1,377.3 305.3,378 305.3,379.4 				"/>
				<polygon class="st27" points="304.1,381.5 304.1,380.1 305.3,380.8 305.3,382.2 				"/>
				<polygon class="st27" points="304.1,384.3 304.1,382.9 305.3,383.6 305.3,385 				"/>
				<polygon class="st27" points="304.1,387.1 304.1,385.7 305.3,386.4 305.3,387.8 				"/>
				<polygon class="st27" points="304.1,389.9 304.1,388.5 305.3,389.2 305.3,390.6 				"/>
				<polygon class="st55" points="304.1,392.7 304.1,391.3 305.3,392 305.3,393.4 				"/>
				<polygon class="st27" points="304.1,395.5 304.1,394.1 305.3,394.8 305.3,396.2 				"/>
			</g>
			<g>
				<polygon class="st27" points="301.7,371.6 301.7,370.2 302.9,370.9 302.9,372.4 				"/>
				<polygon class="st54" points="301.7,374.5 301.7,373.1 302.9,373.8 302.9,375.2 				"/>
				<polygon class="st27" points="301.7,377.3 301.7,375.9 302.9,376.6 302.9,378 				"/>
				<polygon class="st27" points="301.7,380.1 301.7,378.7 302.9,379.4 302.9,380.8 				"/>
				<polygon class="st27" points="301.6,382.9 301.6,381.5 302.9,382.2 302.9,383.6 				"/>
				<polygon class="st27" points="301.6,385.7 301.6,384.3 302.9,385 302.9,386.4 				"/>
				<polygon class="st55" points="301.6,388.5 301.6,387.1 302.8,387.8 302.8,389.2 				"/>
				<polygon class="st27" points="301.6,391.3 301.6,389.9 302.8,390.6 302.8,392 				"/>
				<polygon class="st27" points="301.6,394.1 301.6,392.7 302.8,393.4 302.8,394.8 				"/>
			</g>
		</g>
	</g>
	<g>
		<g id="XMLID_1498_">
			<path id="XMLID_1499_" class="st56" d="M710.7,406.6c0.9-31.6-1.7-39.2-10.1-45l-3.3,18.3c0,0,3.8,21.6,3.4,28.8
				c-0.4,6.3-1,14.2-2.5,19.3c-0.3,0.9-0.9,1.7-1.7,2.2c-2.1,1.3-3,2.7-4.6,4.4c-1.3,1.3-2.3,1.7-2.2,2.1c0.2,0.5,1.1,1.4,2.7,0.9
				c0.8-0.2,1.8-0.8,3-1.7c0,0-0.9,2.6-3.1,5.4c-3,3.7-3.1,6,2.9,6c3.8,0,6.8-2.3,9.7-10.7c0.8-2.4,2.1-6.2,2.7-9.4
				C709.2,419,710.6,411.7,710.7,406.6z"/>
		</g>
		<path id="XMLID_1497_" class="st57" d="M693.5,359.2c4-0.6,9.5,0.3,13,6.6c3.5,6.3,4.4,17.2,4.8,28c0,0-7,5.9-15.4,3L693.5,359.2z
			"/>
		<path id="XMLID_8_" class="st58" d="M693.5,359.2c4-0.6,9.5,0.3,13,6.6c3.5,6.3,4.4,17.2,4.8,28c0,0-7,5.9-15.4,3L693.5,359.2z"/>
		<g id="XMLID_1482_">
			<g id="XMLID_1493_">
				<path id="XMLID_1494_" class="st5" d="M705.4,533.3c0.6,0.2,0.8,1.5,0.9,3.9c0.1,1.8,0.5,5-1.7,5.7c-2.1,0.6-5.3,0.3-6.7-1.4
					c-1.7-2.2-2.9-4-5.3-6.7c-2.1-2.3-4.4-4.4-5.3-7.6c-0.8-2.9-0.1-4.1,1.8-5c2.7-1.2,7,2.6,9.1,3.2
					C700.1,525.9,704.7,533,705.4,533.3z"/>
			</g>
			<g id="XMLID_1491_">
				<path id="XMLID_1492_" class="st56" d="M705.4,531v3c0,0-3.1,2.4-7.5,0.2c-0.1-0.3-0.8-4.2-0.8-4.2L705.4,531z"/>
			</g>
			<g id="XMLID_1489_">
				<path id="XMLID_1490_" class="st5" d="M681.3,550.4c0,0,0.9,2.6,1.3,4.8c0.4,1.8,0.9,4.8,0.3,6.1c-0.6,1.4-3.1,2.2-6.9,2.2
					c-2.5,0-6.3,1.7-8.9,3.1c-2.7,1.5-8.4,2.1-11.2,1.8c-3.4-0.4-6.9-2.4-7.4-3.8c-0.5-1.4,0.2-2.9,8.2-6.3c0.1,0,11.1-3.6,14.9-7.9
					L681.3,550.4z"/>
			</g>
			<g id="XMLID_1487_">
				<path id="XMLID_1488_" class="st56" d="M681.3,547.2c0,0,0,2.2,0,3.5s-1.5,3.1-5.3,3c-2.7-0.1-4.6-0.8-4.5-3.1v-3.2L681.3,547.2
					z"/>
			</g>
			<g id="XMLID_1485_">
				<path id="XMLID_1486_" class="st4" d="M707.3,491.6c-1.4-9.7-3.5-15.5-3.5-15.5s1.1-13.3,1.6-26c0.5-13.7,0-30.8,0.2-34.3
					c0,0-44.1-8.9-44.9,6.9c-0.8,15.8,1.7,56,2.3,62.9c0.5,6.9,1.7,13.1,3.2,24.3c1.4,11.1,5.4,37.3,5.4,37.3c5,2.7,9.8-0.2,9.8-0.2
					s3.1-31.6,2.8-39.6c-0.4-9.8-3-17.5-3-17.5s0.8-13,1.6-24.4c0.7-11.3,1.5-16.8,1.7-21.7l0.9-0.5c0,0,1,19.5,1.5,26.5
					c0.5,6.9,1.6,13.6,3.6,26.5c1.7,11.2,6.9,34.8,6.9,34.8c5,2.7,8-0.4,8-0.4S708.7,501.3,707.3,491.6z"/>
			</g>
			<g id="XMLID_1483_">
				<path id="XMLID_1484_" class="st5" d="M684.3,444.1c0,0,10.7-5.3,16.1-10c0,0-5,7-11.5,10.1c0,0-2.3,24.3-2.3,23.8l-1.3-23.9
					H684.3z"/>
			</g>
		</g>
		<g id="XMLID_1479_">
			<g id="XMLID_1480_">
				<polygon id="XMLID_1481_" class="st56" points="674.8,354.2 677.4,368.6 690.4,367.6 687.7,351.3 				"/>
			</g>
		</g>
		<g id="XMLID_1476_">
			<g id="XMLID_1477_">
				<path id="XMLID_1478_" class="st57" d="M704.1,366.6c-1.3-3.9-6.2-8.2-11.2-7.2c-9.1,1.7-16.3,3.5-21.7,5.4
					c-4.5,1.6-8.7,5.5-9,20.5c0,0-1.5,34.8-1.5,41.5c11.4,4.5,23.2,4.4,29.8,2.9c13.6-3,15.3-8.6,15.3-8.6s0.2-25-0.2-35.8
					C705.1,376.1,705,369.3,704.1,366.6z"/>
			</g>
		</g>
		<g id="XMLID_4_" class="st59">
			<g id="XMLID_5_">
				<path id="XMLID_6_" class="st11" d="M704.1,366.6c-1.3-3.9-6.2-8.2-11.2-7.2c-9.1,1.7-16.3,3.5-21.7,5.4
					c-4.5,1.6-8.7,5.5-9,20.5c0,0-1.5,34.8-1.5,41.5c11.4,4.5,23.2,4.4,29.8,2.9c13.6-3,15.3-8.6,15.3-8.6s0.2-25-0.2-35.8
					C705.1,376.1,705,369.3,704.1,366.6z"/>
			</g>
		</g>
		<g id="XMLID_1471_">
			<g id="XMLID_1474_">
				<path id="XMLID_1475_" class="st60" d="M664.8,336.7c0,0-3.3,5.2-2.9,5.7c0.4,0.5,2.9,0.9,2.9,0.9V336.7z"/>
			</g>
			<g id="XMLID_1472_">
				<path id="XMLID_1473_" class="st56" d="M673.9,322.2c-6.9,1.6-8.8,4.7-9.2,15.6c-0.4,11.5,0.8,15,2.4,16.5c1,1,6.7,1.1,9.5,0.2
					c3.5-1.1,11.5-4.1,15.2-9.9c4.3-6.9,5.2-16.1,0.4-19.7C685.4,319.8,676.7,321.6,673.9,322.2z"/>
			</g>
		</g>
		<g id="XMLID_1263_">
			<g id="XMLID_1468_">
				<g id="XMLID_1469_">
					<path id="XMLID_1470_" class="st5" d="M664.8,325.1c2,3.4,6.4,5.1,6.4,5.1c1.3,1.5,0.6,7.3,2.9,8.3c0,0,1-4.3,4.6-3.8
						s4.2,5,2,7.8s-4.3,1.8-4.3,1.8s0.2,6,3,9.4c0,0,3.1,0.9,8.6-0.4c3.4-0.8,8.2-5.2,10.1-9.8c4.1-9.7,4.2-18.4-2-20.9
						c-0.8-4.4-4.3-6.3-8.3-7.2c-8.6-1.8-14.2,3.6-20.8,3.1C663.2,318.3,662.5,321,664.8,325.1z"/>
				</g>
			</g>
			<g id="XMLID_1264_">
				<g id="XMLID_1265_">
					<path id="XMLID_1467_" class="st5" d="M696.3,324.1l4.1-2.5c-0.7-1.1-2.2-1.5-3.3-0.8C695.9,321.5,695.6,322.9,696.3,324.1z"/>
				</g>
			</g>
		</g>
		<path id="XMLID_1259_" class="st56" d="M616.3,390.6c2.1,0.9,27.3,19.5,31.2,17.4c3.9-2.2,24-25.7,24-25.7c5.8-9.7,0-17.6,0-17.6
			s-6.4,1.2-9.8,6.3c-3.4,5.1-17.9,23.4-17.9,23.4c-3.6-1.8-7.2-3.6-10.8-5.5c-2.9-1.5-5.9-3-8.8-4.7c-0.7-0.4-1.7-0.8-2.3-1.4
			c-1.4-1.4-1.2-4.8-1.2-6.7c0-0.9,0-1.7,0.1-2.6c0.1-1.1,0.3-3.6-1.6-2.8c-0.4,0.2-0.7,0.4-0.9,0.8c-0.3,0.4-0.5,0.8-0.7,1.3
			c-0.4,1.1-0.2,2.3-0.6,3.5c0,0.2-0.1,0.3-0.2,0.5c-0.2,0.1-0.4,0.2-0.6,0.2c-2.8-0.1-5.4-4-6.7-6c-0.6-0.9-1.1-1.9-2.1-2.4
			c-1.5-0.7-3.3,0.3-4.3,1.7c-1.2,1.7-1.6,4-1.4,6.1c0.3,2.9,1.5,5.7,3.6,7.7C608.8,386.9,612.3,388.8,616.3,390.6z"/>
		<path id="XMLID_1240_" class="st57" d="M673.6,363.9c-2.8,0.3-7.4,0.5-11.9,5.6c-5.3,6-12.2,15.7-12.2,15.7s1.9,9.5,12.2,11.4
			c0,0,9.5-9.7,12.2-15.1C676.4,376.3,676.9,367.6,673.6,363.9z"/>
		<path id="XMLID_7_" class="st58" d="M673.6,363.9c-2.8,0.3-7.4,0.5-11.9,5.6c-5.3,6-12.2,15.7-12.2,15.7s1.9,9.5,12.2,11.4
			c0,0,9.5-9.7,12.2-15.1C676.4,376.3,676.9,367.6,673.6,363.9z"/>
	</g>
</g>
</svg>
