<?xml version="1.0" encoding="utf-8"?>
<!-- Generator: Adobe Illustrator 21.0.2, SVG Export Plug-In . SVG Version: 6.00 Build 0)  -->
<svg version="1.1" id="e66cdcae-b662-46fb-b424-18ba1a805fb0"
	 xmlns="http://www.w3.org/2000/svg" xmlns:xlink="http://www.w3.org/1999/xlink" x="0px" y="0px" viewBox="0 0 832.5 677.8"
	 style="enable-background:new 0 0 832.5 677.8;" xml:space="preserve">
<style type="text/css">
	.st0{fill:none;stroke:#3F3D56;stroke-miterlimit:10;}
	.st1{fill:#55536E;}
	.st2{fill:#78E2FF;}
	.st3{fill:url(#SVGID_1_);}
	.st4{opacity:0.2;fill:#00A4D6;}
	.st5{fill:url(#SVGID_2_);}
	.st6{opacity:0.2;}
	.st7{fill:#18BDF7;}
	.st8{opacity:0.2;fill:#18BDF7;}
	.st9{opacity:0.26;fill:#4A63FE;}
	.st10{opacity:0.8;}
	.st11{opacity:0.15;fill:#00A4D6;}
	.st12{opacity:0.1;fill:none;stroke:#00A4D6;stroke-width:4.725;stroke-miterlimit:10;}
	.st13{opacity:0.5;fill:none;stroke:#00A4D6;stroke-width:1.1813;stroke-miterlimit:10;}
	.st14{opacity:0.1;fill:none;stroke:#00A4D6;stroke-width:7.3885;stroke-miterlimit:10;}
	.st15{fill:#4A63FE;}
	.st16{fill:#425DE2;}
	.st17{opacity:0.2;fill:#60F4DF;}
	.st18{fill:#3B5BD1;}
	.st19{opacity:0.2;fill:#FFFFFF;}
	.st20{opacity:0.39;fill:#FFFFFF;}
	.st21{opacity:0.8;fill:#FFFFFF;}
	.st22{opacity:0.5;fill:#9CD7FF;}
	.st23{opacity:0.2;fill:#9CD7FF;}
	.st24{opacity:0.3;}
	.st25{fill:#FFFFFF;}
	.st26{opacity:0.5;fill:#FFFFFF;}
	.st27{opacity:0.3;fill:#FFFFFF;}
	.st28{fill:#9CD7FF;}
	.st29{fill:url(#SVGID_3_);}
	.st30{fill:#5FB0E7;}
	.st31{opacity:0.5;fill:#00A4D6;}
	.st32{fill:#FFE1BD;}
	.st33{fill:#FCCB95;}
	.st34{fill:#594A5F;}
	.st35{fill:#F9B253;}
	.st36{fill:#2C1E56;}
	.st37{fill:#39297F;}
	.st38{fill:#4C4199;}
	.st39{fill:#F29127;}
	.st40{fill:#00215B;}
	.st41{fill:#AEC1FF;}
	.st42{opacity:0.5;fill:#AEC1FF;}
	.st43{fill:#B8ECFF;}
	.st44{fill:#15A7CE;}
	.st45{fill:#EBFAFF;}
	.st46{fill:#B2EBF9;}
	.st47{fill:#80D4DD;}
	.st48{opacity:0.47;fill:url(#SVGID_4_);}
</style>
<title>bookmarks</title>
<ellipse class="st0" cx="488.7" cy="1271.7" rx="151" ry="34"/>
<path class="st1" d="M528.3,1247.8c0,0,9,5,5,16s-6,8-8,17s-20,8-21,4s-3-20,2-26S528.3,1247.8,528.3,1247.8z"/>
<path class="st1" d="M439.3,1247.8c0,0-9,5-5,16s6,8,8,17s20,8,21,4s3-20-2-26S439.3,1247.8,439.3,1247.8z"/>
<g>
	<path class="st2" d="M362.6,642.2L352,606.4c0,0,16-68-17.7-71.1c-32.1-2.9-23.5,58.4-22.5,64.9c-1.1-6.9-12.7-74.9-40.7-64.5
		c-31.2,11.6,18.9,74.6,18.9,74.6c-11.3-14.6-40.3-36.1-50.5-13.3c-4.5,9.9,5.1,19.2,17.3,26.5c-7.8-1.8-15.8-2.7-18.4,0.4
		c-7.2,8.8,7.5,19,35.8,19.6c10.3,0.2,15.4-1.9,17.9-4.7c0.3,0.1,0.6,0.2,0.6,0.2L362.6,642.2z"/>
	<linearGradient id="SVGID_1_" gradientUnits="userSpaceOnUse" x1="346.7978" y1="640.6744" x2="264.0331" y2="558.7543">
		<stop  offset="0" style="stop-color:#2484C6"/>
		<stop  offset="1" style="stop-color:#2484C6;stop-opacity:0"/>
	</linearGradient>
	<path class="st3" d="M362.6,642.2L352,606.4c0,0,16-68-17.7-71.1c-32.1-2.9-23.5,58.4-22.5,64.9c-1.1-6.9-12.7-74.9-40.7-64.5
		c-31.2,11.6,18.9,74.6,18.9,74.6c-11.3-14.6-40.3-36.1-50.5-13.3c-4.5,9.9,5.1,19.2,17.3,26.5c-7.8-1.8-15.8-2.7-18.4,0.4
		c-7.2,8.8,7.5,19,35.8,19.6c10.3,0.2,15.4-1.9,17.9-4.7c0.3,0.1,0.6,0.2,0.6,0.2L362.6,642.2z"/>
	<path class="st4" d="M310.7,644.1c0,0-35.1-13.6-26.7-25.3c5.3-7.4,15.7,5.2,15.7,5.2s-13.6-17.8-1.8-23.2
		c12.2-5.6,18.7,14.9,18.7,14.9s-4.5-18,4.8-20.5c9.3-2.5,10,18,10,18s12-16.2,19.1-3.3c6.5,11.7-13.2,35-13.2,35"/>
	<path class="st2" d="M569.9,628.9c0.6-6.5-13.9-6.5-25-5.3c14.8-8.4,27.7-19.3,22.8-30.2c-10.2-22.8-43.4,2.3-54.7,16.9
		c0,0,50.2-63,18.9-74.6c-27.9-10.4-39.6,57.6-40.7,64.5c1-6.6,9.6-67.8-22.5-64.9c-33.8,3.1-28.3,106.9-28.3,106.9
		S567.8,651.5,569.9,628.9z"/>
	<linearGradient id="SVGID_2_" gradientUnits="userSpaceOnUse" x1="452.7378" y1="643.935" x2="549.8595" y2="551.8803">
		<stop  offset="0" style="stop-color:#2484C6"/>
		<stop  offset="1" style="stop-color:#2484C6;stop-opacity:0"/>
	</linearGradient>
	<path class="st5" d="M569.9,628.9c0.6-6.5-13.9-6.5-25-5.3c14.8-8.4,27.7-19.3,22.8-30.2c-10.2-22.8-43.4,2.3-54.7,16.9
		c0,0,50.2-63,18.9-74.6c-27.9-10.4-39.6,57.6-40.7,64.5c1-6.6,9.6-67.8-22.5-64.9c-33.8,3.1-28.3,106.9-28.3,106.9
		S567.8,651.5,569.9,628.9z"/>
	<path class="st4" d="M492,646.5c0,0,35.1-13.6,26.7-25.3c-5.3-7.4-15.7,5.2-15.7,5.2s13.6-17.8,1.8-23.2
		C492.6,597.5,486,618,486,618s4.5-18-4.8-20.5c-9.3-2.5-10,18-10,18s-12-16.2-19.1-3.3c-6.5,11.7,13.2,35,13.2,35"/>
</g>
<g>
	<g>
		<g class="st6">
			<path class="st7" d="M107.1,371.1c-7-8-17.3-13.1-28.8-13.1c-10.7,0-20.3,4.4-27.3,11.4c-6.8,6.9-11,16.4-11,26.8
				c0,21.1,17.1,38.2,38.2,38.2c6.1,0,11.9-1.5,17.1-4c10.2-5.1,17.9-14.7,20.3-26.2c0.6-2.6,0.8-5.2,0.8-8
				C116.5,386.6,112.9,377.9,107.1,371.1z M109.3,402.9c-2,9.5-8.4,17.5-16.9,21.8c-4.3,2.1-9.1,3.3-14.2,3.3
				c-17.5,0-31.7-14.2-31.7-31.7c0-8.7,3.5-16.5,9.1-22.2c5.8-5.9,13.8-9.5,22.6-9.5c9.5,0,18.1,4.2,23.9,10.9
				c4.9,5.6,7.8,12.9,7.8,20.8C110,398.5,109.7,400.7,109.3,402.9z"/>
		</g>
		<path class="st8" d="M115.6,404.2c-2.4,11.5-10.1,21.1-20.3,26.2l-2.9-5.8c8.5-4.3,14.8-12.2,16.9-21.8L115.6,404.2z"/>
		<path class="st9" d="M107.1,371.1l-4.9,4.3c-5.8-6.7-14.4-10.9-23.9-10.9c-8.8,0-16.9,3.6-22.6,9.5l-4.6-4.5
			c6.9-7.1,16.6-11.4,27.3-11.4C89.7,358,100,363.1,107.1,371.1z"/>
	</g>
	<g class="st10">
		<g class="st6">
			<path class="st7" d="M330.9,46.8c-4.7-5.3-11.5-8.7-19.2-8.7c-7.1,0-13.5,2.9-18.1,7.6c-4.5,4.6-7.3,10.9-7.3,17.8
				c0,14,11.4,25.4,25.4,25.4c4.1,0,7.9-1,11.4-2.7c6.8-3.4,11.9-9.8,13.5-17.4c0.4-1.7,0.6-3.5,0.6-5.3
				C337.2,57.1,334.8,51.3,330.9,46.8z M332.4,68c-1.4,6.4-5.6,11.7-11.2,14.5c-2.8,1.4-6,2.2-9.4,2.2c-11.6,0-21.1-9.5-21.1-21.1
				c0-5.8,2.3-11,6.1-14.8c3.8-3.9,9.2-6.3,15-6.3c6.3,0,12,2.8,15.9,7.2c3.2,3.7,5.2,8.6,5.2,13.9C332.9,65.1,332.7,66.5,332.4,68z
				"/>
		</g>
		<path class="st8" d="M336.7,68.9c-1.6,7.6-6.7,14-13.5,17.4l-1.9-3.9c5.7-2.8,9.9-8.1,11.2-14.5L336.7,68.9z"/>
		<path class="st9" d="M330.9,46.8l-3.3,2.8c-3.9-4.4-9.6-7.2-15.9-7.2c-5.9,0-11.2,2.4-15,6.3l-3.1-3c4.6-4.7,11-7.6,18.1-7.6
			C319.4,38.1,326.3,41.5,330.9,46.8z"/>
	</g>
	<path class="st4" d="M47.3,495.5l3.9-2.9c-1.9-3-4.4-5.5-7.4-7.4l-2.9,3.9c-1.7-1-3.5-1.8-5.4-2.2l0.7-4.8
		c-1.7-0.4-3.4-0.6-5.2-0.6c-1.8,0-3.5,0.2-5.2,0.6l0.7,4.8c-1.9,0.5-3.7,1.2-5.4,2.2l-2.9-3.9c-3,1.9-5.5,4.4-7.4,7.4l3.9,2.9
		c-1,1.7-1.8,3.5-2.2,5.4l-4.8-0.7c-0.4,1.7-0.6,3.4-0.6,5.2c0,1.8,0.2,3.5,0.6,5.2l4.8-0.7c0.5,1.9,1.2,3.7,2.2,5.4l-3.9,2.9
		c1.9,3,4.4,5.5,7.4,7.4l2.9-3.9c1.7,1,3.5,1.8,5.4,2.2l-0.7,4.8c1.7,0.4,3.4,0.6,5.2,0.6c1.8,0,3.5-0.2,5.2-0.6l-0.7-4.8
		c1.9-0.5,3.7-1.2,5.4-2.2l2.9,3.9c3-1.9,5.5-4.4,7.4-7.4l-3.9-2.9c1-1.7,1.8-3.5,2.2-5.4l4.8,0.7c0.4-1.7,0.6-3.4,0.6-5.2
		c0-1.8-0.2-3.5-0.6-5.2l-4.8,0.7C49.1,499,48.3,497.2,47.3,495.5z M31,518.2c-7,0-12.7-5.7-12.7-12.7c0-7,5.7-12.7,12.7-12.7
		s12.7,5.7,12.7,12.7C43.7,512.5,38,518.2,31,518.2z"/>
	<path class="st11" d="M789.6,132l5.8-4.3c-2.8-4.5-6.6-8.2-11.1-11.1l-4.3,5.8c-2.5-1.5-5.2-2.6-8.1-3.4l1-7.2
		c-2.5-0.6-5.1-0.9-7.8-0.9c-2.7,0-5.3,0.3-7.8,0.9l1,7.2c-2.9,0.7-5.6,1.8-8.1,3.4l-4.3-5.8c-4.5,2.8-8.2,6.6-11.1,11.1l5.8,4.3
		c-1.5,2.5-2.6,5.2-3.4,8.1l-7.2-1c-0.6,2.5-0.9,5.1-0.9,7.8c0,2.7,0.3,5.3,0.9,7.8l7.2-1c0.7,2.9,1.8,5.6,3.4,8.1l-5.8,4.3
		c2.8,4.5,6.6,8.3,11.1,11.1l4.3-5.8c2.5,1.5,5.2,2.6,8.1,3.4l-1,7.2c2.5,0.6,5.1,0.9,7.8,0.9c2.7,0,5.3-0.3,7.8-0.9l-1-7.2
		c2.9-0.7,5.6-1.8,8.1-3.4l4.3,5.8c4.5-2.8,8.3-6.6,11.1-11.1l-5.8-4.3c1.5-2.5,2.6-5.2,3.4-8.1l7.2,1c0.6-2.5,0.9-5.1,0.9-7.8
		c0-2.7-0.3-5.3-0.9-7.8l-7.2,1C792.2,137.2,791.1,134.4,789.6,132z M765.1,165.9c-10.5,0-19-8.5-19-19c0-10.5,8.5-19.1,19-19.1
		s19,8.5,19,19.1C784.2,157.4,775.6,165.9,765.1,165.9z"/>
	<circle class="st12" cx="232.3" cy="18" r="9.8"/>
	<circle class="st13" cx="613.5" cy="53.7" r="9.8"/>
	<circle class="st14" cx="362.1" cy="126.3" r="15.4"/>
	<circle class="st14" cx="801" cy="356.1" r="15.4"/>
</g>
<g>
	<g>
		<path class="st15" d="M745.2,150.1v396.2c0,9.4-7.7,17.1-17.1,17.1H74.5c-9.5,0-17.1-7.7-17.1-17.1V150.1
			c0-9.4,7.6-17.1,17.1-17.1h653.7C737.6,133,745.2,140.7,745.2,150.1z"/>
		<polygon class="st15" points="471.3,636.4 331.3,636.4 346.5,576.6 350,563.1 356.7,536.8 445.9,536.8 452.6,563.1 456.1,576.6 		
			"/>
		<polygon class="st16" points="456.1,576.6 346.5,576.6 350,563.1 452.6,563.1 		"/>
		<path class="st16" d="M525,652.9H277.6c-5.9,0-10.7-4.8-10.7-10.7l0,0c0-5.9,4.8-10.7,10.7-10.7H525c5.9,0,10.7,4.8,10.7,10.7l0,0
			C535.7,648.1,530.9,652.9,525,652.9z"/>
		<rect x="56.1" y="194.2" class="st17" width="689.1" height="300.7"/>
		<path class="st18" d="M401.3,543.9L401.3,543.9c-8.7,0-15.9-7.1-15.9-15.9l0,0c0-8.7,7.1-15.9,15.9-15.9l0,0
			c8.7,0,15.9,7.1,15.9,15.9l0,0C417.1,536.7,410,543.9,401.3,543.9z"/>
	</g>
	<g>
		<g>
			<path class="st19" d="M726.5,388.1H297.7c-1.8,0-3.3-1.5-3.3-3.3V205.5c0-1.8,1.5-3.3,3.3-3.3h428.8c1.8,0,3.3,1.5,3.3,3.3v179.3
				C729.8,386.6,728.4,388.1,726.5,388.1z"/>
			<path class="st20" d="M718.2,301.7v70.7c0,3.1-2.6,5.7-5.7,5.7H310.3c-3.2,0-5.7-2.6-5.7-5.7V217.2c37.1,0,55.6,13.9,66.5,32.1
				c0.7,1.2,1.4,2.4,2,3.6c18.3,34.7,12.8,82.3,53.2,82.3c1.5,0,2.9-0.2,4.3-0.5c0.9-0.2,1.7-0.5,2.5-0.8
				c27.1-11.4,22.9-92.5,71.2-91.9c10.3,0.1,18,4.1,24.1,10.4c0.6,0.6,1.2,1.3,1.7,2c21.6,25.4,21.9,81.9,55.1,92.1
				c12,3.7,22.5-1.3,33-9.6c0.7-0.5,1.3-1.1,2-1.6c22.1-18.3,44-49.6,78.1-42c1,0.2,2,0.5,3,0.8C706.4,295.5,712.1,298,718.2,301.7z
				"/>
			<path class="st21" d="M718.2,287.5c-7.2,0.1-12.7,2.5-17.2,6.5c-8.2,7.3-12.6,19.7-16.9,31.8c-6.5,18.2-13.1,36.9-32.6,36.9
				c-1,0-2.1-0.1-3.2-0.2c-12.7-1.2-22-11.6-30.3-25.7c-5.1-8.8-9.8-19-14.6-29.5c-13.5-29.6-27.4-60.1-53.1-60.9
				c-0.3,0-0.6,0-0.9,0c-7.8,0-14.1,3-19.5,7.9c-10.9,9.9-17.8,27.8-24.6,45.3c-10,25.9-20.3,52.6-43.7,53.2
				c-16.8,0.4-24.4-6-31.2-18c-2.6-4.7-5.2-10.2-8.1-16.5c-5.3-11.6-11.9-25.9-22.8-42.6c-7.3-11.2-16.6-18.3-26.6-22.6
				c-26.9-11.7-58.6-3.1-68.5,0.1v-2.7c10.6-3.3,40.2-10.9,66.5-1c11.5,4.3,22.3,12,30.7,24.8c11,16.8,17.6,31.3,23,42.9
				c3,6.5,5.5,12.1,8.2,16.7c6.4,11.1,13.5,16.6,28.7,16.3c21.6-0.5,31.2-25.3,41.4-51.5c6.9-17.8,13.9-36,25.2-46.3
				c6-5.4,13.1-8.7,22.1-8.4c27.3,0.7,41.6,32.1,55.4,62.4c4.7,10.3,9.3,20.3,14.3,28.9c7.9,13.7,16.8,23.7,28.5,24.9
				c20.1,2,26.5-16,33.2-35.1c4.2-11.9,8.5-24,16.3-31.7c5-5,11.4-8.1,20.1-8.2L718.2,287.5z"/>
		</g>
		<g>
			<path class="st22" d="M727,436.7H502.4c-1.5,0-2.8-1.2-2.8-2.8v-35.2c0-1.5,1.2-2.8,2.8-2.8H727c1.5,0,2.8,1.2,2.8,2.8v35.2
				C729.8,435.5,728.6,436.7,727,436.7z"/>
			<path class="st19" d="M727,486H502.4c-1.5,0-2.8-1.2-2.8-2.8V448c0-1.5,1.2-2.8,2.8-2.8H727c1.5,0,2.8,1.2,2.8,2.8v35.2
				C729.8,484.7,728.6,486,727,486z"/>
		</g>
		<g>
			<path class="st23" d="M284.2,292.2H77.1c-1.8,0-3.3-1.5-3.3-3.3v-83.4c0-1.8,1.5-3.3,3.3-3.3h207.1c1.8,0,3.3,1.5,3.3,3.3v83.4
				C287.4,290.7,286,292.2,284.2,292.2z"/>
			<g class="st24">
				<path class="st25" d="M258.6,284.5h-13.1c-0.5,0-0.8-0.4-0.8-0.8v-58.1c0-0.5,0.4-0.8,0.8-0.8h13.1c0.5,0,0.8,0.4,0.8,0.8v58.1
					C259.4,284.2,259.1,284.5,258.6,284.5z"/>
				<path class="st25" d="M278.8,284.5h-12.9c-0.5,0-0.9-0.4-0.9-0.9v-71.9c0-0.5,0.4-0.9,0.9-0.9h12.9c0.5,0,0.9,0.4,0.9,0.9v71.9
					C279.7,284.1,279.3,284.5,278.8,284.5z"/>
				<path class="st25" d="M96.1,284.5H83.1c-0.5,0-0.9-0.4-0.9-0.9v-71.9c0-0.5,0.4-0.9,0.9-0.9h12.9c0.5,0,0.9,0.4,0.9,0.9v71.9
					C97,284.1,96.6,284.5,96.1,284.5z"/>
				<path class="st25" d="M116.5,284.5h-13.2c-0.4,0-0.8-0.4-0.8-0.8v-54.7c0-0.4,0.4-0.8,0.8-0.8h13.2c0.4,0,0.8,0.4,0.8,0.8v54.7
					C117.3,284.2,116.9,284.5,116.5,284.5z"/>
				<path class="st25" d="M136.7,284.5h-12.9c-0.5,0-0.9-0.4-0.9-0.9v-71.9c0-0.5,0.4-0.9,0.9-0.9h12.9c0.5,0,0.9,0.4,0.9,0.9v71.9
					C137.6,284.1,137.2,284.5,136.7,284.5z"/>
				<path class="st25" d="M157.2,284.5h-13.4c-0.4,0-0.7-0.3-0.7-0.7v-39.3c0-0.4,0.3-0.7,0.7-0.7h13.4c0.4,0,0.7,0.3,0.7,0.7v39.3
					C157.9,284.2,157.6,284.5,157.2,284.5z"/>
				<path class="st25" d="M177.3,284.5h-12.9c-0.5,0-0.9-0.4-0.9-0.9v-71.9c0-0.5,0.4-0.9,0.9-0.9h12.9c0.5,0,0.9,0.4,0.9,0.9v71.9
					C178.2,284.1,177.8,284.5,177.3,284.5z"/>
				<path class="st25" d="M197.7,284.5h-13.1c-0.5,0-0.8-0.4-0.8-0.8v-58.1c0-0.5,0.4-0.8,0.8-0.8h13.1c0.5,0,0.8,0.4,0.8,0.8v58.1
					C198.5,284.2,198.1,284.5,197.7,284.5z"/>
				<path class="st25" d="M217.9,284.5H205c-0.5,0-0.9-0.4-0.9-0.9v-71.9c0-0.5,0.4-0.9,0.9-0.9h12.9c0.5,0,0.9,0.4,0.9,0.9v71.9
					C218.8,284.1,218.4,284.5,217.9,284.5z"/>
				<path class="st25" d="M238.3,284.5h-13.2c-0.4,0-0.8-0.4-0.8-0.8v-54.7c0-0.4,0.4-0.8,0.8-0.8h13.2c0.4,0,0.8,0.4,0.8,0.8v54.7
					C239.1,284.2,238.8,284.5,238.3,284.5z"/>
			</g>
		</g>
		<g>
			<path class="st19" d="M284.2,389.1H77.1c-1.8,0-3.3-1.5-3.3-3.3v-83.4c0-1.8,1.5-3.3,3.3-3.3h207.1c1.8,0,3.3,1.5,3.3,3.3v83.4
				C287.4,387.6,286,389.1,284.2,389.1z"/>
			<path class="st19" d="M284.2,486H77.1c-1.8,0-3.3-1.5-3.3-3.3v-83.4c0-1.8,1.5-3.3,3.3-3.3h207.1c1.8,0,3.3,1.5,3.3,3.3v83.4
				C287.4,484.5,286,486,284.2,486z"/>
			<path class="st26" d="M276.7,310.8c-2.2,0-4,1.8-4,4c0,0.7,0.2,1.4,0.6,2l-32.7,36.9c-0.5-0.2-1-0.3-1.5-0.3
				c-0.6,0-1.1,0.1-1.6,0.4l-35.1-34.5c0.2-0.5,0.4-1.1,0.4-1.7c0-2.2-1.8-4-4-4c-2.2,0-4,1.8-4,4c0,0.6,0.1,1.2,0.4,1.7L149.8,368
				c-0.7-0.5-1.4-0.7-2.3-0.7c-0.7,0-1.4,0.2-1.9,0.5l-24.7-32.2c0.5-0.7,0.8-1.5,0.8-2.3c0-2.2-1.8-4-4-4c-2.2,0-4,1.8-4,4
				c0,0.7,0.2,1.4,0.5,2l-27.7,35.9c-0.4-0.2-0.9-0.3-1.4-0.3c-2.2,0-4,1.8-4,4c0,2.2,1.8,4,4,4c2.2,0,4-1.8,4-4
				c0-0.8-0.2-1.5-0.6-2.2l27.6-35.8c0.5,0.2,1,0.3,1.6,0.3c0.4,0,0.8-0.1,1.2-0.2l25.1,32.6c-0.2,0.5-0.3,1-0.3,1.6
				c0,2.2,1.8,4,4,4c2.2,0,4-1.8,4-4c0-0.4-0.1-0.8-0.2-1.2l45.5-49.1c0.6,0.3,1.2,0.5,1.9,0.5c0.7,0,1.3-0.2,1.9-0.5l35,34.4
				c-0.3,0.6-0.5,1.2-0.5,1.9c0,2.2,1.8,4,4,4c2.2,0,4-1.8,4-4c0-0.8-0.2-1.4-0.6-2.1l32.6-36.8c0.5,0.2,1,0.3,1.6,0.3
				c2.2,0,4-1.8,4-4C280.7,312.6,278.9,310.8,276.7,310.8z"/>
			<path class="st27" d="M260.9,410.4H83c-0.8,0-1.4-0.6-1.4-1.4v-4.7c0-0.8,0.6-1.4,1.4-1.4h177.9c0.8,0,1.4,0.6,1.4,1.4v4.7
				C262.3,409.7,261.7,410.4,260.9,410.4z"/>
			<path class="st27" d="M242.8,423.9H82.9c-0.7,0-1.4-0.6-1.4-1.4v-4.9c0-0.7,0.6-1.4,1.4-1.4h159.9c0.7,0,1.4,0.6,1.4,1.4v4.9
				C244.2,423.3,243.5,423.9,242.8,423.9z"/>
			<path class="st27" d="M276.9,437.5H85.4c-2.1,0-3.8-1.7-3.8-3.8l0,0c0-2.1,1.7-3.8,3.8-3.8h191.5c2.1,0,3.8,1.7,3.8,3.8l0,0
				C280.7,435.8,279,437.5,276.9,437.5z"/>
			<path class="st27" d="M224.9,451.1H82.9c-0.7,0-1.3-0.6-1.3-1.3v-5c0-0.7,0.6-1.3,1.3-1.3h142.1c0.7,0,1.3,0.6,1.3,1.3v5
				C226.2,450.5,225.6,451.1,224.9,451.1z"/>
			<path class="st27" d="M262.8,464.7H83c-0.8,0-1.4-0.6-1.4-1.4v-4.7c0-0.8,0.6-1.4,1.4-1.4h179.8c0.8,0,1.4,0.6,1.4,1.4v4.7
				C264.2,464,263.6,464.7,262.8,464.7z"/>
			<path class="st27" d="M276.9,478.2H85.4c-2.1,0-3.8-1.7-3.8-3.8l0,0c0-2.1,1.7-3.8,3.8-3.8h191.5c2.1,0,3.8,1.7,3.8,3.8l0,0
				C280.7,476.5,279,478.2,276.9,478.2z"/>
		</g>
		<g>
			<path class="st22" d="M385,441c0,24.9-20.1,45-45,45c-24.9,0-45-20.1-45-45c0-24.8,20.1-45,45-45c3.6,0,7,0.4,10.4,1.2
				c18.7,4.4,32.9,20.5,34.4,40.2C384.9,438.6,385,439.8,385,441z"/>
			<path class="st28" d="M384.8,437.4L340,441l10.4-43.8C369.1,401.6,383.3,417.7,384.8,437.4z"/>
			<path class="st22" d="M485.1,403.1h-86.5c-1.6,0-3-1.3-3-3l0,0c0-1.6,1.3-3,3-3h86.5c1.6,0,3,1.3,3,3l0,0
				C488.1,401.8,486.7,403.1,485.1,403.1z"/>
			<path class="st22" d="M474,414.9h-77.3c-0.6,0-1.1-0.5-1.1-1.1v-3.8c0-0.6,0.5-1.1,1.1-1.1H474c0.6,0,1.1,0.5,1.1,1.1v3.8
				C475.1,414.4,474.6,414.9,474,414.9z"/>
			<path class="st22" d="M456.1,426.7h-59.5c-0.5,0-1-0.4-1-1v-4c0-0.5,0.4-1,1-1h59.5c0.5,0,1,0.4,1,1v4
				C457,426.3,456.6,426.7,456.1,426.7z"/>
			<path class="st22" d="M485.1,438.5h-86.5c-1.6,0-3-1.3-3-3l0,0c0-1.6,1.3-3,3-3h86.5c1.6,0,3,1.3,3,3l0,0
				C488.1,437.2,486.7,438.5,485.1,438.5z"/>
			<path class="st22" d="M476.8,450.3h-80.1c-0.6,0-1.1-0.5-1.1-1.1v-3.7c0-0.6,0.5-1.1,1.1-1.1h80.1c0.6,0,1.1,0.5,1.1,1.1v3.7
				C477.9,449.8,477.4,450.3,476.8,450.3z"/>
			<path class="st22" d="M485.1,462.1h-86.5c-1.6,0-3-1.3-3-3l0,0c0-1.6,1.3-3,3-3h86.5c1.6,0,3,1.3,3,3l0,0
				C488.1,460.7,486.7,462.1,485.1,462.1z"/>
			<path class="st22" d="M469.3,473.8h-72.6c-0.6,0-1.1-0.5-1.1-1.1V469c0-0.6,0.5-1.1,1.1-1.1h72.6c0.6,0,1.1,0.5,1.1,1.1v3.8
				C470.3,473.4,469.9,473.8,469.3,473.8z"/>
			<path class="st22" d="M485.1,485.6h-86.5c-1.6,0-3-1.3-3-3l0,0c0-1.6,1.3-3,3-3h86.5c1.6,0,3,1.3,3,3l0,0
				C488.1,484.3,486.7,485.6,485.1,485.6z"/>
		</g>
	</g>
	<linearGradient id="SVGID_3_" gradientUnits="userSpaceOnUse" x1="57.3966" y1="348.2008" x2="745.2216" y2="348.2008">
		<stop  offset="0" style="stop-color:#2484C6"/>
		<stop  offset="1" style="stop-color:#2484C6;stop-opacity:0"/>
	</linearGradient>
	<path class="st29" d="M745.2,150.1v396.2c0,9.4-7.7,17.1-17.1,17.1H74.5c-9.5,0-17.1-7.7-17.1-17.1V150.1c0-9.4,7.6-17.1,17.1-17.1
		h653.7C737.6,133,745.2,140.7,745.2,150.1z"/>
</g>
<g>
	<g class="st24">
		<g>
			<path class="st30" d="M283.5,341.5c0.2-1-0.9-1.2-2.1,0.7c-1.6,2.7-4.1,4.2-7.3,4.9c-0.2-0.5,0.5-0.7,1-1.8
				c0.6-1.2,0.2-2.1-0.3-2.3c-0.4-0.2-1.4,1.3-1.7,1.5c-1.2,1.1-2.5,2.1-3.7,3.1c-1.3,1.2-2.1,2-2.7,3.6c0,0.1-0.1,0.5-0.2,0.9
				c-8.2,6.3-35.4,14.1-39.1,16.4c-0.9,0.5-6.6,0.7-13.6,0.6c0-0.9-0.1-1.4-0.1-1.4s-11.2-1.9-16.6-5c-3.1-1.8-6.3-1.7-7.6-1.5
				c-0.3-0.4-0.5-0.9-0.8-1.2c-0.1-0.1-0.1-0.1-0.2-0.2c-1.4-1.6-3.4-2.4-4.6-4.1c-0.1-2.1-0.2-6.6,0.9-8.7c0.8-1.5,3.9-4.3,7.4-7.2
				c1.6-1.3,2.8-3.9,1.9-8c-1.4-6.2-1.9-8.8-2.8-10.6c-0.6-1.3-1.7-2.2-2.3-3.3c-0.1-0.2-0.2-0.4-0.3-0.6
				c1.6-1.8-3.1-14.9-17.4-14.5c-3.6,0.1-7.4,0.3-10.6,2c-3.2,1.6-6.8,4.5-6.6,7.4c-5.1,1-5.8,6.2-6.2,8.1c-0.6,2.7-0.7,5.6-0.3,8.4
				c0.5,4.1,2.1,8.1,2.9,12.2c0.7,3.3,0.9,7-0.5,10.2c-1.3,3-4.3,4.7-5.8,7.7c-1.9,3.8-1.8,8.4,0.2,12.2c0.9,1.7,1.9,3.1,2.7,4.6
				c-1.4,4.2-3,9.9-4.2,15.4l-37.6,6.4c-1.1,0.2-1.8,1.2-1.7,2.4l9.3,55c0.2,1.1,1.2,1.8,2.4,1.6l31.8-5.4c-0.5,4.2-0.5,8.5,0.1,13
				c0.5,3.7,4.3,14,4.8,17.7c1.3,8.5,4,20.9,3.9,30.6c0.8,0.6,1.7,1.2,2.6,1.7c2,11.6,3.7,22.2,3.5,23.8c-0.5,3.6-4.5,13.8-5.9,24.5
				c-0.1,0.4-0.1,0.9-0.2,1.4h20.9c1.4-7.7,2.6-14.4,3.4-19.5v0c0.2-1.3,0.3-2.4,0.5-3.5c0-0.1,0-0.2,0.1-0.3
				c0.1-0.6,0.1-1.1,0.2-1.6c0.1-0.9,0.1-1.8,0.2-2.8c0-0.3,0-0.6,0.1-0.9c0.1-0.8,0.1-1.6,0.1-2.5c0-0.2,0-0.5,0.1-0.7
				c0-1,0.1-2.1,0.1-3.2c0-0.3,0-0.7,0-1c0-0.9,0-1.7,0-2.6c0-0.4,0-0.8,0-1.2v-1c3.5,10.1,6.2,18,6.2,18s-3,10.5-3.7,22.9h20
				c0.6-11.6,1.2-21.2,1.3-25.7c0.3-7.8,0.1-15.7-0.6-24.1c0,0,0,0,0,0c1.2-11.7,1-21,0.1-37.1c-0.7-12.8-4-25.1-7.1-34.3l19.6-3.3
				c1.1-0.2,1.8-1.2,1.6-2.3l-8.7-51.1c2.2,0,3,0.2,3,0.2c0.2-0.7,0.3-1.5,0.4-2.4c7.1-0.6,13-1.2,14.5-1.5
				c11.5-2.3,40.1-21.6,42.6-23.3c1.7,0.4,7-1.4,8.4-3.6c0.5-0.7,0.7-1.6,0.6-2.4c0.8-1,2.2-4.4-0.2-3.6
				C282.2,346.9,282.8,344.4,283.5,341.5z"/>
		</g>
	</g>
	<g>
		<g>
			<ellipse class="st31" cx="178.3" cy="655.5" rx="56.2" ry="6.3"/>
		</g>
		<g>
			<g>
				<path class="st32" d="M172.5,454.8l-26.8-21.5c0,0-6.3,15.1-1.3,31c2.5,7.8-0.2,13.4,1.2,17.1c1.2,3.5,10.3,52.6,9.8,56.2
					c-0.5,3.6-4.5,13.8-5.9,24.5c-1.6,12.8-0.3,54.4-1.6,65.4c-1.2,11.1,9,12.7,9.5,8.9c4-32,15.5-82,16.9-98
					C175.7,522.4,174.3,493.3,172.5,454.8z"/>
				<g>
					<path class="st33" d="M173.4,486.2l-10.8,26.5c5,8,8,17.5,8.6,27.3c0.3,5,0,10.1,0.2,15.2c0,0.4,0.1,0.7,0.2,1.1
						c1.4-7.5,2.3-13.7,2.7-17.8c1-11.3,0.6-29.2-0.4-52.3C173.7,486.1,173.5,486.1,173.4,486.2z"/>
				</g>
				<path class="st32" d="M159,626.1c0,0-2.2,11.6-1.5,13.1c0.7,1.5,3.2,5.7,5.6,7.2c2.6,1.6,8.3,3.4,8.7,4.1
					c0.5,0.7,0.5,1.7-0.3,2.4c-2,1.7-5.6,2.6-8,2.2c-7.7-1.1-8.5-4.4-13-4.9c-0.8-0.1-2.2,1.1-4.3,0.1c-2.1-1-3.2-3-3.1-4.8
					c0.2-3.2,2-5.9,3.2-8.2c1.2-2.4,1.9-13.2,1.9-13.2"/>
				<path class="st34" d="M172.2,653.3c0.5-1,0.6-2.4,0.1-2.7c-0.7-0.5-3.3-2.1-4.8-2.7c-1.5-0.6-3.9-1.2-3-0.8
					c0.8,0.4-0.6,2.1-2,2.1c-4.8-0.2-8.4-3.3-11.1-3.9c-4-0.9-5.7-5.5-5.9-6.2c-0.7,0.5-2.4,4.3-2.7,5.5c-0.3,1.1-0.8,3-0.5,4.1
					c0.2,0.8,0.7,2.3,0.5,3.9c0,0,0.8,0.6,2.9,1c1.3,0.2,3,0,3,0l0.3-2.5c0,0,1.1-0.1,2.4,0.2c1.4,0.2,3.6,1.5,3.8,1.6
					c0.6,0.6,1,1.8,1.8,2.2c1.9,0.9,3.9,1.3,6.3,1.4C168.3,656.5,171.3,655,172.2,653.3z"/>
			</g>
			<g>
				<path class="st32" d="M211.1,650.9c-0.6-0.6-6.7-1.5-9.5-2.7c-2.7-1.1-6.1-4.7-6.7-6.3c-0.7-1.5-0.6-9.4-0.5-12.7
					c0.3-22.7,4-78.2,4.4-91.5c0.8-23.1-2.4-46.9-11.7-83.9l-33.3-25.1c0,0-9.1,17.3-5.8,33.8c1.9,9.5,9.8,10.9,11.2,14.6
					c1.4,3.7,22,63.4,22,63.4s-3.8,13-3.8,27.2c-0.1,12.1,5.8,48.6,6.9,62.5c0.1,2.7,0.7,9.2-0.1,11.3c-1,2.5-3.4,5.6-3.3,8.8
					c0.1,1.9,1.5,3.6,3.8,4.3c2.4,0.7,3.6-0.7,4.5-0.7c4.7-0.2,6,3,14,2.9c2.5,0,6.1-1.4,8-3.4C211.8,652.5,211.6,651.5,211.1,650.9
					z"/>
				<path class="st34" d="M211.8,653.7c0.4-1,0.4-2.5-0.2-2.7c-0.8-0.4-3.7-1.6-5.3-2c-1.6-0.4-4.1-0.6-3.2-0.3
					c0.9,0.3-0.4,2.2-1.8,2.4c-5,0.5-9.1-2-12-2.2c-4.2-0.3-5.8-4.6-6.1-5.3c-0.7,0.6-2.7,4.6-2.9,5.8c-0.2,1.1-0.5,3.1,0,4.2
					c0.3,0.7,1,2.2,1,3.8c0,0,0.9,0.5,3.1,0.5c1.4,0,3.1-0.5,3.1-0.5l0-2.5c0,0,1.1-0.2,2.5-0.2c1.4,0,3.2,0.8,4.1,1.4
					c0.7,0.5,1.4,1.4,2.2,1.6c2.3,0.6,4,0.7,6.5,0.4C208.2,657.5,211,655.5,211.8,653.7z"/>
			</g>
			<g>
				<g>
					<path class="st32" d="M264.3,358.3c1.7,0.5,7.1-1.4,8.5-3.6c0.4-0.7,0.7-1.6,0.6-2.4c0.8-1,2.2-4.4-0.2-3.6
						c2.5-1.7,3.2-4.2,3.8-7.1c0.2-1-0.9-1.2-2,0.7c-1.6,2.6-4.1,4.2-7.3,4.9c-0.2-0.5,0.5-0.7,1-1.8c0.6-1.2,0.2-2.1-0.4-2.3
						c-0.4-0.2-1.4,1.3-1.7,1.5c-1.2,1-2.5,2.1-3.7,3.1c-1.4,1.1-2.1,2-2.7,3.6c-0.1,0.3-0.7,3.1,0.5,2.7"/>
				</g>
				<path class="st32" d="M184,384.5c12.4-0.1,34.7-2.3,37.7-2.9c12-2.4,42.8-23.5,42.8-23.5s0.6-4.9-4.1-6.3
					c-7.8,6.3-35.8,14.4-39.5,16.6c-2.4,1.5-41.5-0.1-41.5-0.1"/>
			</g>
			<path class="st35" d="M142.6,369.2c0,0-5.3,14.2-7,25.5l12.8,2v-18.1"/>
			<path class="st36" d="M212,438.6l-104.5,17.8c-0.4,0.1-0.9-0.2-0.9-0.7l-9.8-57.4c-0.1-0.4,0.2-0.9,0.7-0.9L202,379.6
				c0.4-0.1,0.9,0.2,0.9,0.7l9.8,57.4C212.7,438.1,212.4,438.5,212,438.6z"/>
			<path class="st37" d="M207.3,435.3l-96.4,16.8c-1,0.2-1.9-0.5-2-1.4l-8.1-47.9c-0.2-1,0.5-1.9,1.4-2l96.4-16.8
				c1-0.2,1.9,0.5,2,1.4l8.1,47.9C208.9,434.2,208.3,435.1,207.3,435.3z"/>
			<path class="st38" d="M116,447.6l-1.6,0.3c-0.8,0.1-1.6-0.4-1.8-1.2l-7-41.3c-0.1-0.8,0.4-1.6,1.2-1.8l1.6-0.3
				c0.8-0.1,1.6,0.4,1.8,1.2l7,41.3C117.3,446.7,116.8,447.5,116,447.6z"/>
			<path class="st38" d="M124.6,446l-1.6,0.3c-0.8,0.1-1.6-0.4-1.8-1.2l-7-41.3c-0.1-0.8,0.4-1.6,1.2-1.8l1.6-0.3
				c0.8-0.1,1.6,0.4,1.8,1.2l7,41.3C126,445,125.4,445.8,124.6,446z"/>
			<path class="st38" d="M133.3,444.3l-1.6,0.3c-0.8,0.1-1.6-0.4-1.8-1.2l-7-41.3c-0.1-0.8,0.4-1.6,1.2-1.8l1.6-0.3
				c0.8-0.1,1.6,0.4,1.8,1.2l7,41.3C134.7,443.4,134.1,444.2,133.3,444.3z"/>
			<path class="st38" d="M141.9,442.6l-1.6,0.3c-0.8,0.1-1.6-0.4-1.8-1.2l-7-41.3c-0.1-0.8,0.4-1.6,1.2-1.8l1.6-0.3
				c0.8-0.1,1.6,0.4,1.8,1.2l7,41.3C143.3,441.7,142.8,442.5,141.9,442.6z"/>
			<path class="st38" d="M150.6,441l-1.6,0.3c-0.8,0.1-1.6-0.4-1.8-1.2l-7-41.3c-0.1-0.8,0.4-1.6,1.2-1.8l1.6-0.3
				c0.8-0.1,1.6,0.4,1.8,1.2l7,41.3C152,440.1,151.4,440.8,150.6,441z"/>
			<path class="st38" d="M159.2,439.3l-1.6,0.3c-0.8,0.1-1.6-0.4-1.8-1.2l-7-41.3c-0.1-0.8,0.4-1.6,1.2-1.8l1.6-0.3
				c0.8-0.1,1.6,0.4,1.8,1.2l7,41.3C160.6,438.4,160.1,439.2,159.2,439.3z"/>
			<path class="st38" d="M167.9,437.7l-1.6,0.3c-0.8,0.1-1.6-0.4-1.8-1.2l-7-41.3c-0.1-0.8,0.4-1.6,1.2-1.8l1.6-0.3
				c0.8-0.1,1.6,0.4,1.8,1.2l7,41.3C169.3,436.7,168.7,437.5,167.9,437.7z"/>
			<path class="st38" d="M176.6,436l-1.6,0.3c-0.8,0.1-1.6-0.4-1.8-1.2l-7-41.3c-0.1-0.8,0.4-1.6,1.2-1.8l1.6-0.3
				c0.8-0.1,1.6,0.4,1.8,1.2l7,41.3C177.9,435.1,177.4,435.9,176.6,436z"/>
			<path class="st38" d="M185.2,434.4l-1.6,0.3c-0.8,0.1-1.6-0.4-1.8-1.2l-7-41.3c-0.1-0.8,0.4-1.6,1.2-1.8l1.6-0.3
				c0.8-0.1,1.6,0.4,1.8,1.2l7,41.3C186.6,433.4,186,434.2,185.2,434.4z"/>
			<path class="st38" d="M193.9,432.7l-1.6,0.3c-0.8,0.1-1.6-0.4-1.8-1.2l-7-41.3c-0.1-0.8,0.4-1.6,1.2-1.8l1.6-0.3
				c0.8-0.1,1.6,0.4,1.8,1.2l7,41.3C195.3,431.8,194.7,432.6,193.9,432.7z"/>
			<path class="st38" d="M202.5,431l-1.6,0.3c-0.8,0.1-1.6-0.4-1.8-1.2l-7-41.3c-0.1-0.8,0.4-1.6,1.2-1.8l1.6-0.3
				c0.8-0.1,1.6,0.4,1.8,1.2l7,41.3C203.9,430.1,203.4,430.9,202.5,431z"/>
			<g>
				<path class="st34" d="M151.5,428.6c-9.2,7.9-12.7,21.1-10.9,35.2c0.5,3.7,4.2,14,4.8,17.7c1.3,8.5,4,20.9,3.9,30.6
					c12.4,9,37.4,8.2,48.8,1.5c1.3-11.7,1-20.9,0.1-37.1c-1.3-24.4-12.2-47.1-12.5-49.2"/>
			</g>
			<g>
				<path class="st35" d="M185.4,405.3c-0.5,4.4,0,11.1,0.6,18.5c0.1,1.3,0.7,3.6,0.6,4.9c-0.1,0.7-0.4,1.4-1,1.9
					c-1.3,1.3-3.9,2.1-6.7,2.6c-9.2,1.7-23.6,0.6-27.7,1.4c-3.8,0.8-7.8-0.5-7.8-2.9c0-1.6,1.5-2.5,1.6-5.7c0.3-7,0.1-22.9-1.2-30
					c-2.7-14.9-3.4-23.8-1.6-40.4l27.9-7.9c2.1,0.4,1.2,6.9,3.4,7.3c1.6,0.2,10.4,8.7,12.9,18.6c1.5,2.6,2.6,4.7,3.2,6.4
					c1.2,3.3,1.1,5.8,0,8.8C187.6,394.5,186.1,398.7,185.4,405.3z"/>
			</g>
			<path class="st39" d="M185.4,405.3c-0.5,4.4,0,11.1,0.6,18.5c0.1,1.3,0.7,3.6,0.6,4.9c-0.1,0.7-0.4,1.4-1,1.9v0
				c0.8-1.8-1.2-11-2-16.2c-0.9-5.2-0.6-15.2,1.2-21.5c1.8-6.3,2.5-9.3,2.5-9.3s1.4-2.1,2.4-3.8c1.2,3.3,1.1,5.8,0,8.8
				C187.6,394.5,186.1,398.7,185.4,405.3z"/>
			<path class="st35" d="M182.5,361.3c0,0,4.2-1,8.2,1.4c5.4,3.2,16.6,5.1,16.6,5.1s0.9,12.9-0.5,17.8c0,0-3.7-0.6-14.8,0.6
				c-11.5,1.2-26.7,8.8-26.7,8.8"/>
			<path class="st32" d="M182.5,317.8c-2.7-5.2-7.1-12.7-17.5-11.6c-10.4,1-19.3,7.6-19.2,15.4c0.1,7.8,5.4,17.2,7.4,22.5
				c2,5.4,1.2,13.4,1.2,13.4l23-0.8c0,0-0.6-7,0.8-9.7c0.8-1.5,3.9-4.3,7.4-7.2c1.6-1.3,2.8-3.9,1.9-8c-1.4-6.1-1.9-8.8-2.8-10.6
				C184.2,319.8,183.1,319,182.5,317.8z"/>
			<g>
				<path class="st40" d="M182.1,359.7c-1.4-1.7-3.5-2.5-4.8-4.3c-1.2-1.7-1.9-4.2-1.6-6.2c0.2-1.3,0.8-2.4,1.4-3.5
					c2.5-5,2.7-8.3-0.9-12.4c-1.2-1.3-2.3-2.7-2.9-4.4c-0.5-1.5-1-3.2,0.5-4.1c1-0.6,1.8-0.7,2.7,0c0.6,0.5,2.2,5.3,2.5,2
					c0.3-3.2,1.5-4-1.3-9.6c-0.3-0.7-1.9-3.3-1.6-3.9c3.6,0.7,4.8,1.6,6.3,3.9c1.6-1.8-3.1-14.9-17.4-14.5c-3.6,0.1-7.4,0.3-10.6,2
					c-3.2,1.6-6.8,4.5-6.6,7.4c-5.1,1-5.8,6.2-6.2,8.1c-0.6,2.8-0.7,5.6-0.3,8.4c0.5,4.1,2.1,8.1,2.9,12.2c0.7,3.3,0.8,7-0.5,10.2
					c-1.3,3-4.3,4.7-5.8,7.7c-1.9,3.8-1.8,8.4,0.2,12.2c2,3.8,4.5,6.2,3.8,10.8c-0.2,1.5-1.6,8.4,4.9,14.1c2.6,2.3,7.6,3.5,11,3
					c3.4-0.5,6-1.2,9-2.8c5.4-2.9,10.1-4.8,13.6-12.5c2-4.4-0.9-5,0.8-9.5c1-2.5,3.1-4.6,3.3-7.4c0.2-2.3-0.6-4.7-2-6.5
					C182.2,359.9,182.2,359.8,182.1,359.7z"/>
			</g>
		</g>
	</g>
</g>
<g>
	<g>
		<path class="st30" d="M772.4,277.4H547.8c-1.5,0-2.8-1.3-2.8-2.8V169.9c0-1.5,1.3-2.8,2.8-2.8h224.6c1.5,0,2.8,1.3,2.8,2.8v104.6
			C775.2,276.1,773.9,277.4,772.4,277.4z"/>
		<path class="st25" d="M770.1,169.2v96.1c0,3.9-3.2,7.1-7.1,7.1H547c-3.9,0-7.1-3.2-7.1-7.1v-96.1c0-3.9,3.2-7.1,7.1-7.1h216
			C766.9,162.1,770.1,165.3,770.1,169.2z"/>
		<path class="st41" d="M770.1,169.2V183H539.9v-13.8c0-3.9,3.2-7.1,7.1-7.1h216C766.9,162.1,770.1,165.3,770.1,169.2z"/>
		<path class="st42" d="M761,194.6v66.3H548.6v-21.2c8.6-11.8,20.3-19.6,47.1-3.7c25.8,15.2,25.7-33.8,55.1-31.2
			c29.4,2.5,37.3,46.5,60.1,12.9C733.7,184.1,761,194.6,761,194.6z"/>
		<rect x="548.6" y="194.2" class="st42" width="41.8" height="2.9"/>
		<rect x="548.6" y="199.2" class="st42" width="70.7" height="2.9"/>
		<rect x="548.6" y="204.3" class="st42" width="53.1" height="2.9"/>
		<rect x="548.6" y="209.4" class="st42" width="64.1" height="2.9"/>
		<rect x="548.6" y="214.4" class="st42" width="41.8" height="2.9"/>
	</g>
	<g>
		<path class="st30" d="M237,133c-9.7,26-34.8,44.6-64.2,44.6c-29.4,0-54.5-18.5-64.2-44.6H237z"/>
		<g>
			<path class="st7" d="M109.7,65c-7.7,11.1-12.3,24.6-12.3,39.1c0,7.8,1.3,15.3,3.7,22.2l64.8-22.2L109.7,65z"/>
			<path class="st7" d="M175.7,29.3v68.5l50.3,46.4c11.2-12.2,18.1-28.5,18.1-46.4C244.2,60,213.5,29.3,175.7,29.3z"/>
			<path class="st35" d="M165.9,35.6c-23.3,0-43.9,11.6-56.2,29.4l56.2,39.1V35.6z"/>
			<path class="st43" d="M153.2,171.3c4.1,0.8,8.4,1.2,12.7,1.2c19.9,0,37.8-8.5,50.3-22.1l-50.3-46.4L153.2,171.3z"/>
			<path class="st44" d="M101.2,126.3c7.9,23,27.7,40.5,52,45l12.7-67.2L101.2,126.3z"/>
		</g>
	</g>
	<g>
		<path class="st30" d="M132.4,282.3H41.1c-2.5,0-4.5,2-4.5,4.5v28.8c0,2.5,2,4.5,4.5,4.5h75.6c0.4,3,2.5,9.1,13.5,9.1
			c0,0-4.5-0.8-5.5-9.1h7.5c2.5,0,4.5-2,4.5-4.5v-28.8C136.9,284.3,134.9,282.3,132.4,282.3z"/>
		<path class="st45" d="M130.7,280H39.5c-2.5,0-4.5,2-4.5,4.5v28.8c0,2.5,2,4.5,4.5,4.5h75.6c0.4,3,2.5,9.1,13.5,9.1
			c0,0-4.5-0.8-5.5-9.1h7.5c2.5,0,4.5-2,4.5-4.5v-28.8C135.2,282,133.2,280,130.7,280z"/>
		<path class="st46" d="M131,287.4H38.5c-0.3,0-0.6-0.2-0.6-0.6v-2.8c0-0.3,0.2-0.6,0.6-0.6H131c0.3,0,0.6,0.2,0.6,0.6v2.8
			C131.5,287.2,131.3,287.4,131,287.4z"/>
		<path class="st46" d="M131,294H38.5c-0.3,0-0.6-0.2-0.6-0.6v-2.8c0-0.3,0.2-0.6,0.6-0.6H131c0.3,0,0.6,0.2,0.6,0.6v2.8
			C131.5,293.8,131.3,294,131,294z"/>
		<path class="st46" d="M131,300.6H38.5c-0.3,0-0.6-0.2-0.6-0.6v-2.8c0-0.3,0.2-0.6,0.6-0.6H131c0.3,0,0.6,0.2,0.6,0.6v2.8
			C131.5,300.4,131.3,300.6,131,300.6z"/>
		<path class="st46" d="M131,307.2H38.5c-0.3,0-0.6-0.2-0.6-0.6v-2.8c0-0.3,0.2-0.6,0.6-0.6H131c0.3,0,0.6,0.2,0.6,0.6v2.8
			C131.5,307,131.3,307.2,131,307.2z"/>
		<path class="st46" d="M131,313.8H38.5c-0.3,0-0.6-0.2-0.6-0.6v-2.8c0-0.3,0.2-0.6,0.6-0.6H131c0.3,0,0.6,0.2,0.6,0.6v2.8
			C131.5,313.5,131.3,313.8,131,313.8z"/>
	</g>
	<g>
		<path class="st30" d="M663,296.6h91.2c2.5,0,4.5,2,4.5,4.5v28.8c0,2.5-2,4.5-4.5,4.5h-75.6c-0.4,3-2.5,9.1-13.5,9.1
			c0,0,4.5-0.8,5.5-9.1H663c-2.5,0-4.5-2-4.5-4.5v-28.8C658.4,298.6,660.4,296.6,663,296.6z"/>
		<path class="st45" d="M664.6,294.3h91.2c2.5,0,4.5,2,4.5,4.5v28.8c0,2.5-2,4.5-4.5,4.5h-75.6c-0.4,3-2.5,9.1-13.5,9.1
			c0,0,4.5-0.8,5.5-9.1h-7.5c-2.5,0-4.5-2-4.5-4.5v-28.8C660.1,296.3,662.1,294.3,664.6,294.3z"/>
		<path class="st47" d="M729.4,328.1h27.1c0.5,0,0.8-0.4,0.8-0.8v-28.1c0-0.5-0.4-0.8-0.8-0.8h-27.1c-0.5,0-0.8,0.4-0.8,0.8v28.1
			C728.6,327.7,729,328.1,729.4,328.1z"/>
		<path class="st47" d="M664.5,302.1h59.8c0.2,0,0.4-0.2,0.4-0.4v-2.9c0-0.2-0.2-0.4-0.4-0.4h-59.8c-0.2,0-0.4,0.2-0.4,0.4v2.9
			C664,301.9,664.2,302.1,664.5,302.1z"/>
		<path class="st47" d="M677.7,308.6h46.6c0.2,0,0.4-0.2,0.4-0.4v-3c0-0.2-0.2-0.4-0.4-0.4h-46.6c-0.2,0-0.4,0.2-0.4,0.4v3
			C677.3,308.4,677.5,308.6,677.7,308.6z"/>
		<path class="st47" d="M664.5,315.1h59.8c0.2,0,0.4-0.2,0.4-0.4v-2.9c0-0.2-0.2-0.4-0.4-0.4h-59.8c-0.2,0-0.4,0.2-0.4,0.4v2.9
			C664,314.9,664.2,315.1,664.5,315.1z"/>
		<path class="st47" d="M669.4,321.6h54.9c0.2,0,0.4-0.2,0.4-0.4v-2.9c0-0.2-0.2-0.4-0.4-0.4h-54.9c-0.2,0-0.4,0.2-0.4,0.4v2.9
			C669,321.4,669.1,321.6,669.4,321.6z"/>
		<path class="st47" d="M701.7,328.1h22.7c0.1,0,0.3-0.1,0.3-0.3v-3.2c0-0.1-0.1-0.3-0.3-0.3h-22.7c-0.1,0-0.3,0.1-0.3,0.3v3.2
			C701.5,328,701.6,328.1,701.7,328.1z"/>
	</g>
</g>
<g>
	<path class="st35" d="M493.2,133h-92.1c0,0,0.1-1.3,0.9-3.2c2.3-5.5,10.9-16.7,41.6-21.7l15.2-3.1C458.8,105,494,104.9,493.2,133z"
		/>
	<path class="st39" d="M462.7,133h-61.6c0,0,0.1-1.3,0.9-3.2c2.3-0.7,5.1-0.6,7.3-0.1c2.3,0.6,3.8,1,3.8,1s32.3,0,40.1,0
		C460.9,130.7,462.7,133,462.7,133z"/>
	<path class="st32" d="M440.1,106.3c1,1.4,1.7,3.4,2.1,5.2c0.6,2.4,2.8,4.1,5.3,3.9c13.5-0.8,12.6-9.2,12.6-9.2
		c-2.8-4.2-4.5-16.8-4.5-16.8"/>
	<path class="st36" d="M408.6,67.7c0,0-0.6,16.9,7,16.6c7.6-0.2,0-18.6,0-18.6L408.6,67.7z"/>
	<path class="st32" d="M453.7,86.3c0.2,2.5,0.3,4.8,0.1,6.4c0,0.2-0.1,0.5-0.1,0.7c0,0.2-0.1,0.5-0.2,0.7
		c-1.8,7.2-11,17.4-17.4,18.3c-0.8,0.1-1.7,0.1-2.5,0c-9-0.4-14.2-7.7-17.2-15.6c-0.1-0.3-0.2-0.5-0.3-0.8
		c-2.7-7.3-3.5-14.7-3.8-17.3c-0.1-0.6-0.5-7.3,0.8-9.2c1.4-2.2,19.1-4.2,19.5-4.3c0.4,0,17.4,1.2,17.4,1.2S452.9,77.8,453.7,86.3z"
		/>
	<path class="st36" d="M456.5,86c0.2,2.5,0,4.6-0.2,6.3c0,0.2-0.1,0.5-0.1,0.7c-1.2,7.2-10,18.5-20,19.4c-0.8,0.1-1.5,0.2-2.2,0.2
		c-10.8,0.4-14.5-7.7-17.5-15.7c-0.1-0.3-0.2-0.5-0.3-0.8c0,0,3.7,6,5.6,6.2c1.9,0.2-0.5-2.2,4.6-4.1c3.2-1.3,8.1-1.1,10.4-0.9
		c2.1,0.3,5.9,1.4,7.2,1.5c0.3,0,0.6,0,0.8-0.1c1.8-0.9,6.1-7.7,6.8-11.6C451.8,85.5,455.1,85.8,456.5,86z"/>
	<path class="st36" d="M405.1,62.4c0,0,0.6,13,21.9,7.8c5.9-1.4,11-2.8,13.9-1.2c4.4,13.7,4.5,20.3,6,19.7
		c1.9-0.7-3.3-12.1,3.4-10.8c5.1,0.9-0.2,13.5-0.2,13.5s6.2,0.8,6.4-2.1c0.1-1.7,0.3-26.3-3.9-32.1c-4.2-5.8-9.3-5.6-9.3-5.6
		s-5.3-4.5-17.9-0.8c-12.6,3.7-19.2-1-19.2-0.6C406.2,50.7,404.2,54.3,405.1,62.4z"/>
	<path class="st30" d="M493.2,133c0,0-1.1,22.2-10.2,36.3v0c0,0-0.1,0.1-0.2,0.4c-0.1,0.1-0.2,0.2-0.2,0.3
		c-2.7,4.1-17.9,26.6-27.7,35.5c-10.8,9.9-23.1,21-23.1,21l-0.5-0.4c-1.6,1.5-3.1,3.1-3.5,3.8c-0.8,1.5-1.7,7.1-3.3,7.7
		c-0.2,0.1-0.5,0.1-0.8,0.2c-0.6,0.5-1.4,0.9-2.3,1c-1.8,0.3-4.3-0.3-5-0.5c-0.6,0.5-1.1,1.2-2.3,1.8c-2.2,1.1-4.2,2.6-6,3.2
		c-1.8,0.6-2.1,0-1.7-1.1c0.4-1.1,3.8-3,5-4c1.2-0.9,3.3-3.7,4-5.3c0.8-1.7,0.8-2.6,0-2.6s-3.1,1.4-4.8,1.8
		c-1.8,0.4-2.6-0.1-1.8-1.1c0.8-1.1,3.3-4.1,6.2-4.8c2.9-0.8,3.8-0.8,5.8-2.3c1-0.8,2.3-2.5,3.3-4l-0.7-0.6c0,0,19.4-27,33.8-47.8
		c0.3-0.5,0.6-0.8,1-1.3c8.2-16.5,9-29.6,9-34.8c-1-1.9-2.5-2.4-2.5-2.4L493.2,133z"/>
	<path class="st32" d="M424,216.9c0,0-3.1,5.4-5.2,6.9c-2.1,1.6-2.9,1.6-5.8,2.3c-2.9,0.8-5.4,3.8-6.2,4.8c-0.8,1,0,1.5,1.8,1.1
		c1.8-0.4,4.1-1.8,4.8-1.8s0.8,0.9,0,2.6c-0.8,1.7-2.8,4.4-4,5.3c-1.2,0.9-4.6,2.8-5,3.9c-0.4,1.1-0.1,1.7,1.7,1.1
		c1.8-0.6,3.8-2.1,6-3.2c1.2-0.6,1.7-1.3,2.3-1.8c0.7,0.2,3.2,0.8,5,0.5c0.9-0.1,1.7-0.6,2.3-1c0.2-0.1,0.5-0.1,0.7-0.2
		c1.6-0.6,2.4-6.2,3.3-7.7c0.8-1.5,7-7.1,7-7.1L424,216.9z"/>
	<path class="st35" d="M481,169.3L481,169.3c9.1-14.1,12.2-36.3,12.2-36.3l-11.6-7.9l-6,2.9c-3.7-1.6-10.1-4-10.1-4l-2.8,9.1
		c0,0,1.5,0.5,2.5,2.4c0.1,5.1-0.8,18.2-9,34.8c-0.3,0.4-0.7,0.8-1,1.3c-14.5,20.8-33.8,47.8-33.8,47.8l8.3,7.3
		c0,0,12.4-11.1,23.2-21c9.8-8.9,25-31.4,27.7-35.5c0.1-0.1,0.2-0.2,0.2-0.3C480.9,169.5,481,169.3,481,169.3z"/>
	<path class="st30" d="M416.5,138.5c-0.1,0-0.2-0.1-0.3-0.1c0.4,0.4,0.6,0.7,0.7,0.8c0.3,0.4,0.1,0.6,0.1,0.6
		c-0.5,0.5-0.8,0.4-1.4,0.4c-0.3,0-0.7-0.2-1.1-0.5c-0.4,0.4-0.8,0.3-1.3,0.3c-0.5-0.1-1.2-0.6-2.1-1.5c0.1,0.2,0,0.4,0,0.4
		c-0.5,0.5-0.9,0.4-1.4,0.4c-0.5-0.1-1.3-0.6-2.2-1.6c-0.3-0.3-0.7-0.8-1.2-1.4c-0.4-0.3-0.8-0.6-1.1-0.8c-0.7-0.5-1.5-0.6-1.7-0.6
		c-0.1,0-0.1,0-0.1,0v0c-4.4-0.1-6.3-2-11.7-2h24.2c-0.1,0-0.1,0.1-0.2,0.1c-0.2,0.1-0.8,0.2-1.5,0.3c0,0,0.1,0.1,0.1,0.1
		c0.3,0.4,0.6,0.7,0.9,1.1c1,1.2,2.3,2.7,2.5,2.9c0.3,0.4,0.1,0.6,0.1,0.6C417.5,138.6,417.1,138.5,416.5,138.5z"/>
	<path class="st32" d="M415.5,138.5c-0.1,0-0.2-0.1-0.3-0.1c0.4,0.4,0.6,0.7,0.7,0.8c0.3,0.4,0.1,0.6,0.1,0.6
		c-0.5,0.5-0.8,0.4-1.4,0.4c-0.3,0-0.7-0.2-1.1-0.5c-0.4,0.4-0.8,0.3-1.3,0.3c-0.5-0.1-1.2-0.6-2.1-1.5c0.1,0.2,0,0.4,0,0.4
		c-0.5,0.5-0.9,0.4-1.4,0.4c-0.5-0.1-1.3-0.6-2.2-1.6c-0.3-0.3-0.7-0.8-1.2-1.4c-0.4-0.3-0.8-0.6-1.1-0.8c-0.7-0.5-1.5-0.6-1.7-0.6
		c-0.1,0-0.1,0-0.1,0v0c-4.4-0.1-6.3-2-11.7-2c0,0,12.5-6,20-1.7c0.8,0.1,2.3,0.3,3.2,0.3c2.2,0,1.6,1.1,0.9,1.5
		c-0.2,0.1-0.8,0.2-1.5,0.3c0,0,0.1,0.1,0.1,0.1c0.3,0.4,0.6,0.7,0.9,1.1c1,1.2,2.3,2.7,2.5,2.9c0.3,0.4,0.1,0.6,0.1,0.6
		C416.5,138.6,416.1,138.5,415.5,138.5z"/>
	<linearGradient id="SVGID_4_" gradientUnits="userSpaceOnUse" x1="410.7108" y1="132.3201" x2="415.4153" y2="132.3201">
		<stop  offset="0" style="stop-color:#F7941E"/>
		<stop  offset="1" style="stop-color:#F7941E;stop-opacity:0"/>
	</linearGradient>
	<path class="st48" d="M414.8,133.1c-0.2,0.1-0.8,0.2-1.5,0.3c0,0-1.8-1.7-2.6-2.1c0.8,0.1,2.3,0.3,3.2,0.3
		C416.1,131.6,415.5,132.7,414.8,133.1z"/>
</g>
</svg>
